<?xml version="1.0" encoding="UTF-8" standalone="no"?>
<svg
   xmlns:dc="http://purl.org/dc/elements/1.1/"
   xmlns:cc="http://creativecommons.org/ns#"
   xmlns:rdf="http://www.w3.org/1999/02/22-rdf-syntax-ns#"
   xmlns:svg="http://www.w3.org/2000/svg"
   xmlns="http://www.w3.org/2000/svg"
   viewBox="0 0 3987.125 2971.8188"
   height="2971.8188"
   width="3987.125"
   version="1.1"
   id="svg4467">
  <metadata
     id="metadata4473">
    <rdf:RDF>
      <cc:Work
         rdf:about="">
        <dc:format>image/svg+xml</dc:format>
        <dc:type
           rdf:resource="http://purl.org/dc/dcmitype/StillImage" />
        <dc:title></dc:title>
      </cc:Work>
    </rdf:RDF>
  </metadata>
  <defs
     id="defs4471" />
  <path
     id="path4479"
     d="m 1.45725,2053.2974 c 0.8713,-0.5383 1.9217,-0.6413 2.3343,-0.2287 1.1187,1.1186 -0.5266,2.3384 -2.3392,1.7342 -1.27029996,-0.4235 -1.26929996,-0.7178 0,-1.5055 z m 17.0349,-624.4786 c 1.2169,0 1.7213,0.9565 1.448,2.7465 -0.6067,3.976 -3.3151,4.3704 -3.3151,0.4826 0,-2.031 0.6928,-3.2291 1.8671,-3.2291 z m 288.8258,688.75 c 0.9638,-3.0937 1.4606,-6.562 1.1038,-7.7072 -0.3566,-1.1454 -0.036,-2.4611 0.7132,-2.9239 0.8747,-0.5406 0.9368,-1.3603 0.1738,-2.2926 -1.8021,-2.2021 -2.6672,-14.9548 -1.1397,-16.8008 0.9359,-1.131 0.8989,-2.5316 -0.1261,-4.7811 -0.7973,-1.75 -1.0869,-3.7688 -0.6434,-4.4863 0.4434,-0.7173 1.0199,-4.3813 1.2811,-8.142 0.2613,-3.7606 1.0274,-7.87 1.7028,-9.1317 0.7033,-1.3143 0.9147,-6.7401 0.4948,-12.7019 -0.563,-7.9949 -0.2933,-11.2427 1.1632,-14.0104 1.4201,-2.6986 1.5813,-4.4241 0.6423,-6.875 -0.6896,-1.7996 -1.2536,-7.4908 -1.2535,-12.6471 2e-4,-5.1562 0,-14.4375 0,-20.625 0,-6.1875 0.035,-12.0937 0.084,-13.125 0.049,-1.0312 0.3101,-5.8125 0.5807,-10.625 0.3027,-5.3796 -0.023,-9.0744 -0.8436,-9.5922 -0.9142,-0.5764 -0.8086,-1.4775 0.3346,-2.8552 1.37,-1.6506 1.3817,-2.5527 0.065,-5.0131 -0.8831,-1.6501 -1.2758,-4.2613 -0.8728,-5.8026 0.4182,-1.5994 -0.1494,-4.2959 -1.3223,-6.2815 -1.9126,-3.2379 -1.9086,-3.641 0.06,-5.8156 2.5983,-2.871 2.6781,-5.2919 0.2794,-8.4634 -2.171,-2.8703 -2.47,-8.2462 -0.5646,-10.1515 0.9261,-0.9262 0.9691,-2.73 0.1368,-5.7442 -0.9368,-3.393 -0.8051,-4.8018 0.5783,-6.1853 1.3979,-1.3978 1.5366,-3.0059 0.6317,-7.3184 -0.6377,-3.0399 -1.0037,-7.2145 -0.8133,-9.277 0.1905,-2.0625 0.742,-7.6875 1.2256,-12.5 1.0914,-10.8616 1.0879,-13.5559 -0.026,-20.625 -0.488,-3.0937 -0.9783,-9 -1.09,-13.125 -0.1112,-4.125 -0.5431,-8.0625 -0.959,-8.75 -0.4157,-0.6875 -0.552,-4.625 -0.3026,-8.75 1.4949,-24.7281 1.5816,-33.6399 0.3499,-35.9416 -1.001,-1.8703 -0.932,-2.7526 0.2735,-3.4978 1.2284,-0.7591 1.631,-7.1922 1.6915,-27.0285 0.044,-14.3176 0.5369,-26.7392 1.0961,-27.6035 0.6375,-0.9852 0.2745,-1.8561 -0.9734,-2.335 -1.6851,-0.6466 -1.8677,-2.2767 -1.1921,-10.6353 0.5643,-6.9809 0.3503,-10.4112 -0.7309,-11.7138 -0.9522,-1.1475 -1.2251,-3.4602 -0.7237,-6.1334 0.4912,-2.618 0.2695,-4.6221 -0.5685,-5.1401 -0.7555,-0.4669 -1.0084,-1.7764 -0.562,-2.91 1.4962,-3.7999 3.1916,-16.5408 2.3766,-17.8595 -1.2207,-1.9751 -1.476,-19.8593 -0.2939,-20.5899 0.5682,-0.3511 0.3977,-1.8252 -0.3787,-3.276 -1.1443,-2.138 -1.0049,-2.9351 0.735,-4.2074 1.4144,-1.0341 1.8706,-2.4391 1.3376,-4.1184 -0.4449,-1.4019 -0.2357,-4.6248 0.4648,-7.162 0.7006,-2.5373 0.9112,-5.1997 0.4682,-5.9165 -0.443,-0.7169 -0.6349,-9.7697 -0.4262,-20.1173 0.4543,-22.5395 0.4897,-20.6424 -0.571,-30.689 -0.8287,-7.8482 -1.0908,-13.702 -0.6717,-15 0.1113,-0.3437 0.4317,-8.7812 0.7125,-18.75 0.2809,-9.9687 0.9866,-21.9554 1.5683,-26.637 0.5816,-4.6816 0.7436,-8.706 0.36,-8.9431 -1.0172,-0.6285 -0.6049,-20.692 0.5086,-24.7487 0.5847,-2.1302 0.3983,-4.116 -0.4865,-5.1821 -1.0368,-1.2493 -1.0969,-3.9294 -0.2166,-9.6712 1.1473,-7.4833 0.9518,-13.9839 -0.5642,-18.7604 -0.366,-1.1534 -0.071,-2.4646 0.6556,-2.9136 0.7267,-0.4492 1.0216,-1.3014 0.6555,-1.8939 -0.3661,-0.5925 -0.094,-1.4306 0.6046,-1.8624 1.792,-1.1076 1.5769,-7.972 -0.4624,-14.7479 -0.953,-3.1666 -1.4032,-6.0871 -1.0005,-6.4898 0.9241,-0.9242 0.6246,-27.1112 -0.5079,-44.3999 -1.1171,-17.0554 -1.0578,-20.6358 0.463,-27.969 0.6952,-3.3517 0.8277,-7.615 0.2945,-9.4741 -0.5332,-1.859 -0.7582,-5.023 -0.5001,-7.031 1.0841,-8.433 0.5863,-20.7712 -0.9109,-22.5752 -1.2712,-1.5317 -1.2283,-2.1036 0.225,-3.0078 1.4388,-0.8953 1.498,-1.5954 0.2988,-3.5312 -1.0821,-1.7466 -1.1481,-3.6737 -0.2389,-6.9671 1.2295,-4.453 0.9491,-12.2334 -0.8247,-22.8821 -0.5138,-3.0835 -0.3962,-5.3125 0.2802,-5.3125 0.6408,0 1.0495,-2.3906 0.9083,-5.3125 -0.1413,-2.9219 -0.3289,-5.3125 -0.4169,-5.3125 -0.087,0 -0.4461,-6.1353 -0.796,-13.6338 -0.3499,-7.4985 -0.8734,-14.0176 -1.1634,-14.4867 -0.2899,-0.4692 -0.6292,-4.8967 -0.7539,-9.8391 -0.125,-4.9423 -0.7111,-9.2853 -1.303,-9.6512 -1.4403,-0.8901 0.049,-10.4556 2.1529,-13.8332 1.1839,-1.8999 1.5384,-5.9527 1.2029,-13.75 -0.2615,-6.0808 -0.5881,-11.056 -0.7256,-11.056 -0.1377,0 -0.4395,-5.7567 -0.6709,-12.7926 -0.2315,-7.036 -1.034,-13.9382 -1.7833,-15.3384 -0.7493,-1.4001 -0.9447,-3.2217 -0.434,-4.0479 0.5107,-0.8262 1.0897,-6.0177 1.2867,-11.5367 0.4413,-12.3604 0.9905,-17.3302 2.1161,-19.1516 0.4771,-0.7719 0.3267,-5.7583 -0.3341,-11.081 -0.7699,-6.201 -0.769,-10.4857 0,-11.9272 0.8046,-1.5035 0.7235,-3.1474 -0.2449,-4.9567 -0.8643,-1.6149 -1.1905,-5.5554 -0.8086,-9.7665 0.3993,-4.4051 0.025,-8.5213 -0.9949,-10.9477 -1.3571,-3.2276 -1.3499,-3.9976 0.043,-4.532 0.9951,-0.3819 1.4035,-1.6919 1.0037,-3.2202 -0.3705,-1.4171 -0.1556,-2.5765 0.4775,-2.5765 1.7749,0 1.1105,-10.0324 -0.7401,-11.1762 -1.0675,-0.6597 -1.184,-1.2909 -0.3352,-1.8155 0.7201,-0.445 0.9972,-2.6765 0.6206,-4.9973 -0.3861,-2.38 -0.1013,-4.5513 0.6596,-5.0213 0.949,-0.5866 0.932,-1.8184 -0.057,-4.2215 -1.6121,-3.9127 -1.5048,-26.29443 0.147,-30.63883 0.6117,-1.6088 0.9298,-7.6679 0.707,-13.4647 -0.2227,-5.7968 0.1748,-14.8904 0.8834,-20.2081 0.7085,-5.3177 0.8796,-10.6615 0.38,-11.875 -0.4995,-1.2136 -0.9849,-7.1491 -1.0785,-13.19 -0.125,-8.054 -0.6489,-11.2791 -1.9649,-12.0922 -1.4282,-0.8824 -1.4835,-1.4837 -0.2705,-2.9452 2.6053,-3.1391 1.917,-69.4595 -0.7891,-76.0381 -0.7486,-1.8199 -1.1604,-3.5097 -0.9151,-3.755 0.2454,-0.2453 0.8324,-8.8813 1.3045,-19.191 0.4721,-10.3098 1.4206,-19.0967 2.1079,-19.5265 0.7252,-0.4536 0.8441,-2.0268 0.2832,-3.75 -1.2679,-3.8955 -1.4567,-33.6591 -0.2184,-34.4243 0.5269,-0.3256 0.6338,-1.1165 0.2375,-1.7577 -1.369,-2.2151 -1.5995,-16.8039 -0.3471,-21.9663 0.8778,-3.6177 0.844,-5.951 -0.1112,-7.7367 -0.7527,-1.4062 -0.9018,-2.8452 -0.3314,-3.1977 1.5636,-0.9664 1.79,-14.1654 0.2591,-15.1115 -0.7316,-0.4521 -0.9199,-1.486 -0.4184,-2.2974 0.5015,-0.8115 0.7417,-3.0989 0.5335,-5.0832 -0.2081,-1.9843 0.3257,-4.0429 1.1863,-4.5748 1.2092,-0.7473 1.1076,-1.4241 -0.4471,-2.9788 -1.6279,-1.628 -1.8888,-3.8554 -1.3672,-11.676 1.05,-15.7441 0.5057,-69.1568 -1.0413,-102.1641 -0.065,-1.375 -0.054,-4.75 0.025,-7.5 0.078,-2.75 -0.1725,-8.2898 -0.5569,-12.3106 -0.4805,-5.0267 -0.096,-8.9318 1.2286,-12.5 2.2114,-5.9539 3.0155,-14.5204 1.581,-16.8415 -0.5379,-0.8703 -0.2986,-2.401 0.5318,-3.4015 1.0817,-1.3035 1.1563,-2.794 0.2632,-5.2578 -0.6855,-1.8912 -1.3179,-6.5155 -1.4051,-10.2761 -0.088,-3.7605 -0.5464,-7.9793 -1.0203,-9.375 -0.4737,-1.3956 -0.7267,-3.4721 -0.5621,-4.6143 0.1646,-1.1422 -0.29,-2.441 -1.0105,-2.8863 -1.4639,-0.9047 -1.7795,-6.0255 -0.4531,-7.3519 0.4712,-0.4712 1.516,-2.7746 2.3219,-5.1186 1.1993,-3.48882 1.1352,-4.59196 -0.3537,-6.08087 -1.2622,-1.26221 -1.4721,-2.53301 -0.6856,-4.15223 0.6233,-1.28332 0.9988,-6.97395 0.8345,-12.64582 -0.1644,-5.67188 0.1826,-10.3125 0.771,-10.3125 0.5884,0 0.7765,-4.35938 0.418,-9.6875 -0.9214,-13.69509 -0.716,-22.55748 0.6734,-29.0625 0.6607,-3.09375 1.0222,-16.3125 0.8032,-29.375 -0.242,-14.43766 0.088,-24.34119 0.8389,-25.25775 0.6804,-0.82925 0.9191,-2.02198 0.5308,-2.6505 -1.4729,-2.38309 -2.0704,-15.51171 -0.7769,-17.07024 0.8419,-1.01439 0.9159,-2.66851 0.204,-4.55696 -0.6148,-1.6305 -0.8506,-6.0583 -0.5241,-9.83955 0.3265,-3.78125 0.5521,-8.28125 0.5016,-10 -0.051,-1.71875 -0.074,-4.25 -0.05,-5.625 0.064,-3.7922 0,-4.48588 -1.1331,-11.62248 -0.576,-3.64236 -0.6193,-6.88703 -0.096,-7.2104 1.4784,-0.9137 -0.2291,-9.74943 -2.1886,-11.32522 -3.6398,-2.92704 0.9466,-8.83355 7.6795,-9.88999 0.6875,-0.10787 1.5312,-0.33719 1.875,-0.50959 2.2495,-1.12818 33.2481,-1.00255 34.6252,0.14033 1.1719,0.97262 2.1354,0.92472 3.4567,-0.17188 2.2631,-1.87822 15.701,-2.52292 17.9086,-0.85918 1.0499,0.79118 2.0462,0.78662 2.8459,-0.013 0.7347,-0.73469 8.2271,-1.04748 18.595,-0.77629 9.5505,0.24981 17.6567,-0.0186 18.014,-0.59666 0.9188,-1.4868 24.4543,-0.5086 28.7326,1.1942 2.2612,0.90005 3.8517,0.97315 4.375,0.2011 0.8081,-1.1925 21.0985,-2.18693 35.822,-1.75564 14.1115,0.41336 16.2562,0.38917 21.1582,-0.23858 2.6995,-0.34568 8.8914,-0.0696 13.7598,0.61354 8.0171,1.12499 9.2926,0.9944 13.5292,-1.38522 2.5684,-1.44504 4.6734,-2.12388 4.6734,-1.50855 0,1.84333 9.8714,3.00141 11.8174,1.38637 1.3451,-1.1164 2.0319,-0.93361 3.0817,0.82033 1.2839,2.14484 1.4163,2.14786 2.6677,0.061 1.0402,-1.73469 1.8338,-1.91899 3.7795,-0.87773 1.8221,0.97517 2.8927,0.88805 4.1157,-0.33488 1.4566,-1.4567 5.1673,-1.66624 15.788,-0.89156 1.0313,0.0753 5.994,-0.50832 11.0284,-1.29676 6.888,-1.07871 9.5815,-1.0783 10.8827,0.001 0.9512,0.78937 2.3138,1.07404 3.028,0.63259 0.7143,-0.44144 5.6609,-0.70937 10.9923,-0.59541 8.4094,0.17975 21.5291,0.0885 29.6936,-0.20665 1.375,-0.0498 13.1875,0.27531 26.25,0.72223 25.9259,0.88704 43.8633,0.98409 61.25,0.33137 6.1875,-0.23228 12.2344,0.0493 13.4375,0.62575 1.3061,0.62581 3.2675,0.47006 4.8681,-0.38657 1.6474,-0.88163 11.5188,-1.58927 25.6099,-1.83583 12.611,-0.22068 23.4596,-0.72907 24.108,-1.12975 0.6483,-0.40069 1.4828,-0.23667 1.8543,0.3645 0.3716,0.60116 4.4276,0.9537 9.0133,0.7834 4.5858,-0.17029 10.0425,0.17928 12.126,0.77683 2.0837,0.59755 4.3945,0.65389 5.1357,0.12522 0.741,-0.52869 3.295,-0.84268 5.6756,-0.69775 2.3805,0.14492 5.3696,-0.29382 6.6424,-0.97497 1.5315,-0.81965 2.8223,-0.8166 3.8171,0.009 1.0007,0.83054 3.4974,0.82215 7.4699,-0.0251 3.995,-0.85206 6.4665,-0.85791 7.4793,-0.0177 0.8322,0.69016 4.6067,1.01215 8.3879,0.71554 9.2251,-0.72367 35.947,-2.06052 40.625,-2.03242 2.0625,0.0125 5.1563,0.0621 6.875,0.1105 1.7188,0.0484 10.4375,-0.0855 19.375,-0.29756 8.9375,-0.21205 17.2373,0.11013 18.4439,0.71599 1.4095,0.70767 4.236,0.40824 7.905,-0.83745 3.1411,-1.06644 6.1124,-1.69101 6.6027,-1.38794 0.4904,0.30306 4.5269,0.69516 8.97,0.87133 4.4432,0.17616 8.5095,0.5371 9.0365,0.80208 0.9324,0.46884 35.29595,1.6597 40.29195,1.3963 3.3454,-0.17636 6.5368,-0.12012 21.0571,0.37108 6.769,0.22899 12.5545,0.016 12.8568,-0.4734 0.3022,-0.48935 2.0135,-0.33319 3.8026,0.34704 1.7891,0.68022 5.5661,1.20891 8.3933,1.17485 8.4408,-0.10175 12.0967,-0.0927 23.723,0.0584 6.4895,0.0844 11.6441,-0.41745 12.4375,-1.21075 1.7047,-1.70484 6.202,-1.7575 7.8673,-0.0921 0.8273,0.82718 3.3923,0.86213 7.4375,0.10137 7.6659,-1.44171 30.1757,-2.15486 31.3378,-0.99282 0.4714,0.47142 1.5732,0.26282 2.4485,-0.46357 0.8751,-0.72637 8.8018,-1.55386 17.615,-1.83883 8.813,-0.28499 17.8517,-0.83629 20.0861,-1.2251 2.2344,-0.38883 4.0624,-0.2596 4.0621,0.28718 -10e-5,0.54678 5.7655,1.08372 12.8125,1.1932 32.8209,0.50993 52.9997,1.32464 55.0098,2.221 1.2084,0.5388 4.3021,0.54993 6.875,0.0247 5.9704,-1.21867 9.8165,-1.0522 26.5291,1.14825 2.3931,0.31508 4.8813,0.24519 5.5293,-0.1553 1.5858,-0.9801 6.6031,-1.33498 20.7447,-1.46735 14.0418,-0.13143 16.5335,0.11625 17.9076,1.7796 0.6769,0.81925 1.2349,0.76029 1.6197,-0.17111 0.3678,-0.89102 2.992,-1.24946 7.035,-0.96095 4.0652,0.29011 7.4117,-0.1712 9.0556,-1.2483 3.0734,-2.01376 9.3239,-1.61149 10.7472,0.6917 0.5494,0.88894 1.3687,1.24659 1.8204,0.79476 0.4519,-0.45181 2.2616,-0.274 4.0216,0.39515 1.76,0.66917 3.6709,0.7457 4.2465,0.17008 0.5757,-0.57561 5.6872,-0.53385 11.359,0.0928 5.6718,0.62665 14.5311,1.09629 19.6874,1.04364 5.1562,-0.0526 12.3727,-0.0846 16.0366,-0.071 5.382,0.02 6.7754,-0.40863 7.2533,-2.23103 0.4412,-1.68284 1.8175,-2.25575 5.4188,-2.25575 2.6553,0 5.2458,0.417 5.7569,0.92665 0.5111,0.50966 1.7034,0.28425 2.6495,-0.50091 1.3018,-1.08034 2.5196,-1.00169 5.007,0.32334 2.6466,1.4098 3.3926,1.43635 3.829,0.13625 0.3426,-1.02072 1.072,-1.20037 1.9829,-0.48839 2.27,1.77429 9.3905,2.77335 10.2184,1.43374 0.4768,-0.77155 1.656,-0.72718 3.2427,0.122 1.3714,0.73395 3.1654,1.09272 3.9866,0.79728 0.8213,-0.29543 2.5127,-0.0125 3.7587,0.62958 1.6221,0.83547 3.6991,0.41937 7.3156,-1.46564 3.9726,-2.07066 5.4309,-2.31644 6.8341,-1.15185 1.3046,1.0827 2.5724,1.12123 4.7185,0.14338 1.6915,-0.77067 3.4011,-0.87074 4.0356,-0.23623 1.0559,1.05593 6.0952,1.36534 15.4557,0.94901 2.4062,-0.107 7.1875,-0.10237 10.625,0.01 10.2749,0.33702 22.9072,-0.36922 23.8726,-1.33462 0.4968,-0.4967 1.69,0.2203 2.6518,1.59335 1.2871,1.83762 2.3101,2.19592 3.8763,1.35767 2.4503,-1.31135 27.6388,-1.13547 29.7712,0.20788 1.9132,1.2054 16.6695,0.73785 17.4675,-0.55346 0.841,-1.36068 6.4077,-1.31624 7.257,0.0579 0.8186,1.32459 6.736,0.32156 7.7462,-1.31304 0.4076,-0.65973 1.7805,-0.23195 3.1065,0.96798 2.247,2.03356 2.5048,2.03356 4.7518,0 1.386,-1.25426 2.6895,-1.6427 3.1286,-0.93224 0.414,0.66985 4.2456,0.99825 8.5149,0.72979 4.2691,-0.26846 9.9353,0.0971 12.5917,0.81239 3.5353,0.95193 5.3024,0.9082 6.5934,-0.16322 1.0082,-0.83681 2.7074,-1.05653 3.9671,-0.51301 1.2119,0.52289 3.4988,0.82291 5.082,0.66671 1.5834,-0.15618 3.6928,0.39155 4.6875,1.2172 1.3006,1.07938 1.8089,1.1026 1.8089,0.0826 0,-1.95485 12.943,-1.11343 15.4987,1.00757 1.6454,1.36554 2.0952,1.31457 2.7178,-0.30802 0.566,-1.47496 1.4546,-1.67506 3.6804,-0.82883 1.686,0.64102 4.5462,0.65327 6.7236,0.0288 4.117,-1.18075 11.4124,-0.93692 13.6674,0.45679 0.7757,0.47943 2.5302,0.27239 3.8988,-0.46009 1.3687,-0.73247 6.8647,-1.41771 12.2134,-1.52276 5.3486,-0.105 10.2874,-0.5124 10.9749,-0.90522 1.467,-0.83823 2.2336,-0.90862 19.1952,-1.76237 11.3013,-0.56885 13.5,-0.34004 17.3129,1.8015 3.3871,1.90244 4.7603,2.12714 6.1173,1.00101 1.1546,-0.95832 2.281,-1.03922 3.3121,-0.23792 1.7167,1.33404 21.4969,1.44923 22.8132,0.13285 0.4512,-0.45112 4.6623,-0.55931 9.3582,-0.2404 4.7191,0.32049 8.8656,0.0498 9.2703,-0.60521 0.4468,-0.72285 2.5633,-0.75991 5.4267,-0.095 6.2055,1.44101 19.2187,1.41203 21.5272,-0.048 1.1371,-0.71921 2.3848,-0.70145 3.2864,0.0467 0.7992,0.66338 4.1536,0.94171 7.454,0.61853 3.3004,-0.3232 6.5754,-0.23244 7.2777,0.20168 0.7025,0.43413 6.7889,0.68425 13.5255,0.55583 7.9579,-0.15171 12.2483,0.23165 12.2483,1.09442 0,0.73037 0.6709,0.91329 1.4909,0.40652 2.9751,-1.83869 19.322,-2.34855 57.2591,-1.78593 42.9272,0.63664 101.0932,-0.028 103.75,-1.18557 0.3437,-0.14977 4.6514,-0.1646 9.5725,-0.033 4.9212,0.13164 10.136,-0.39664 11.5884,-1.17396 1.4525,-0.77732 3.3231,-0.99163 4.157,-0.47626 1.5296,0.94535 8.2557,1.24575 37.6551,1.68176 8.8539,0.1313 17.725,0.80593 19.7136,1.49915 2.5758,0.89793 4.1191,0.8425 5.3665,-0.19272 1.3381,-1.11055 2.3635,-1.07064 4.3489,0.1693 1.4289,0.89233 2.598,2.02291 2.598,2.51237 0,0.99965 5.7094,0.43428 9.0784,-0.899 1.2118,-0.4796 2.9882,-0.22071 3.9473,0.57529 0.9592,0.79601 3.9323,1.31815 6.607,1.16034 2.6748,-0.15783 5.5233,0.121 6.33,0.61951 0.8067,0.49855 2.8845,-0.0225 4.6174,-1.15796 3.6663,-2.40224 19.9536,-2.68999 22.7114,-0.40125 1.0302,0.85502 3.0067,1.01625 5.1297,0.41846 1.8997,-0.53486 6.5475,-1.13469 10.3288,-1.33295 12.1217,-0.63556 16.0534,-1.11041 16.9956,-2.05268 1.2346,-1.23461 8.0044,-1.18188 8.0044,0.0624 0,0.83497 12.8236,0.97339 33.125,0.35752 2.75,-0.0834 9.2187,-0.14783 14.375,-0.14315 5.1562,0.005 10.312,-0.28576 11.4572,-0.64546 1.1454,-0.3597 2.461,-0.0413 2.9239,0.70754 0.6061,0.98081 1.3035,0.97805 2.4939,-0.01 1.1991,-0.9952 1.8849,-0.9952 2.5,0 0.5646,0.91366 1.3444,0.95911 2.336,0.13616 2.1846,-1.81317 24.9765,-1.57765 27.9765,0.28911 0.8594,0.53475 2.1756,0.59333 2.925,0.13017 0.7495,-0.46315 10.6126,-1.03813 21.9182,-1.27773 16.4019,-0.3476 20.944,-0.82384 22.4768,-2.35667 2.4911,-2.49113 3.8246,-2.42524 5.3924,0.26646 1.1221,1.92667 1.2786,1.94406 1.3121,0.14579 0.051,-2.72378 4.9779,-3.88952 8.135,-1.92468 1.3904,0.86534 7.252,1.71475 13.0259,1.88758 5.7737,0.17282 11.494,0.84738 12.7116,1.49903 1.4966,0.801 2.3672,0.72457 2.6874,-0.23596 0.4748,-1.42439 8.4558,-1.5694 32.5406,-0.59126 6.0156,0.24431 10.9375,0.0221 10.9375,-0.49365 0,-0.51583 3.2344,-0.73379 7.1875,-0.48439 9.2174,0.58154 8.7222,0.58179 15.297,-0.008 3.0851,-0.27646 6.6007,0.0279 7.8125,0.67636 1.4445,0.77312 2.203,0.73354 2.203,-0.115 0,-1.68602 4.4785,-1.66102 7.6621,0.0428 1.4885,0.79663 3.0968,0.88823 3.9803,0.22672 1.6678,-1.24872 7.121,-2.00363 12.7326,-1.76264 2.0625,0.0886 9.5197,0.22997 16.5716,0.31422 7.0519,0.0842 13.1186,0.63385 13.4818,1.22132 0.3631,0.58746 1.9861,0.56398 3.6067,-0.0521 1.6206,-0.61616 4.1349,-0.80952 5.5874,-0.4297 1.4525,0.37983 3.4557,0.0143 4.4517,-0.81234 1.4212,-1.17942 3.2773,-1.07666 8.6233,0.47748 7.9041,2.29779 12.2731,2.50974 14.099,0.68394 0.8952,-0.89527 2.3517,-0.89522 4.7067,1.7e-4 2.3862,0.90718 4.1674,0.89153 5.9307,-0.0521 1.5431,-0.82587 5.994,-1.05952 11.4806,-0.60269 12.1746,1.01367 17.4445,1.10279 27.7105,0.46857 4.8125,-0.2973 15.7812,-0.20202 24.375,0.21173 8.5937,0.41375 16.1875,0.45025 16.875,0.0811 0.6875,-0.36916 4.9062,-0.7296 9.375,-0.80097 15.7259,-0.25121 44.3748,-1.95158 49.7263,-2.95134 3.0252,-0.56517 7.7096,-0.49494 10.6213,0.15926 2.8649,0.64372 11.6931,0.82058 19.6182,0.39304 7.925,-0.42754 21.2716,-0.97039 29.659,-1.20632 8.3874,-0.23594 15.8289,-0.78688 16.5367,-1.22429 0.7078,-0.43741 2.4674,-0.16348 3.9103,0.60876 1.443,0.77224 3.564,1.00495 4.7134,0.51714 3.6179,-1.53546 14.1979,-1.84239 25.2148,-0.73149 5.8437,0.58928 11.1875,0.6718 11.875,0.18341 1.9182,-1.36266 56.8477,0.30552 59.2656,1.79987 0.6526,0.40337 1.5382,0.16453 1.9679,-0.53074 0.4297,-0.69528 2.578,-1.19798 4.7739,-1.11711 6.6818,0.24607 25.8827,-1.40234 31.8117,-2.73104 3.8703,-0.86736 6.0802,-0.84201 7.1941,0.0825 0.8844,0.73392 3.4932,1.32289 5.7974,1.30881 13.2238,-0.0809 40.613,1.5873 41.6098,2.53423 0.6928,0.65811 2.0699,0.29788 3.3744,-0.88274 1.7517,-1.58521 5.4878,-2.03065 18.2046,-2.17043 8.8003,-0.0967 16.2961,-0.56702 16.6572,-1.0451 0.3611,-0.47806 2.8923,-0.35086 5.625,0.28269 2.7326,0.63354 10.3122,1.16956 16.8434,1.19116 6.5313,0.0216 15.3765,0.60753 19.6562,1.30208 4.7725,0.77454 10.4667,0.84166 14.7268,0.17361 3.8202,-0.59905 7.1823,-0.70637 7.4715,-0.2385 0.2892,0.46789 4.3496,0.33336 9.0231,-0.29894 12.2425,-1.65632 23.254,-1.8915 25.0599,-0.53522 0.9939,0.74641 2.1601,0.67751 3.2046,-0.18934 2.2066,-1.83135 26.206,-2.45637 28.4764,-0.74162 1.9252,1.45411 8.0777,1.48126 11.2987,0.0499 2.8822,-1.28077 9.4152,-1.3051 50.4578,-0.1879 19.9375,0.54271 39.0625,0.97778 42.5,0.96679 12.4765,-0.0399 63.877,-1.64234 68.75,-2.14338 7.4506,-0.76607 31.8933,-0.77327 33.1287,-0.01 0.5905,0.36492 1.441,0.0689 1.8901,-0.65776 0.4491,-0.72667 1.8077,-1.00667 3.019,-0.62221 1.2113,0.38445 10.3046,0.70327 20.2073,0.7085 9.9027,0.005 24.4737,0.1266 32.3799,0.26975 21.2399,0.38457 31.4533,0.24344 61.875,-0.85499 15.125,-0.54612 28.0625,-0.97502 28.75,-0.95312 18.0271,0.57428 35.1729,1.82161 36.767,2.67471 2.8152,1.50669 13.8321,1.8396 25.108,0.75871 15.3387,-1.47034 29.2271,-1.53579 31.5625,-0.14874 1.5613,0.92733 2.8994,0.8546 4.6747,-0.25405 1.7768,-1.10966 5.8822,-1.33117 14.375,-0.77562 16.3443,1.88848 4.5212,0.37696 21.5318,0.91734 -0.1489,0.7906 0.4903,1.27751 1.4204,1.08205 0.9302,-0.19548 3.7427,-0.41444 6.25,-0.48659 2.5074,-0.0721 5.2524,-0.67634 6.1002,-1.34262 1.8942,-1.48879 24.0836,-2.15224 24.0836,-0.72009 0,1.57148 6.8035,1.22618 8.459,-0.42933 1.1121,-1.11202 1.642,-0.98214 2.2285,0.54608 1.0206,13.52058 -1.0976,13.59071 -1.2926,27.47545 -0.1304,9.25896 0.2672,15.9375 0.949,15.9375 0.6455,0 0.8131,0.9394 0.3725,2.08756 -0.4406,1.14816 -0.1305,2.50198 0.689,3.00848 1.1183,0.69115 0.9585,2.04098 -0.6404,5.41044 -1.1717,2.46923 -2.0766,6.88104 -2.0109,9.80402 0.3092,13.75729 -1.3607,56.06693 -2.3152,58.6548 -0.5902,1.60034 -0.7078,6.10819 -0.2614,10.01745 0.4464,3.90927 0.3339,8.39921 -0.25,9.97765 -0.5839,1.57845 -0.6096,3.02092 -0.057,3.20551 0.5525,0.1846 0.937,5.47002 0.8545,11.74537 -0.083,6.27535 0.3497,15.41563 0.9607,20.31172 2.0596,16.505 2.3363,25.01279 1.045,32.13371 -0.8313,4.5848 -0.8623,8.19924 -0.088,10.23672 0.6586,1.73223 0.886,3.46103 0.5052,3.84177 -1.0896,1.08966 -0.8074,15.39122 0.3404,17.24842 0.5679,0.9189 0.9059,9.8316 0.7511,19.8061 -0.3072,19.7899 -0.6792,25.1877 -1.8681,27.1114 -0.429,0.6942 -0.4736,9.9274 -0.099,20.5181 0.569,16.0857 0.7429,35.3399 0.366,40.5058 -0.05,0.6875 0.2992,11.375 0.7763,23.75 0.7726,20.037 0.8252,48.4887 0.1225,66.25 -0.136,3.4375 0.1953,7.2002 0.7361,8.3616 0.5409,1.1614 0.4679,2.4303 -0.1622,2.8197 -0.63,0.3894 -1.1238,4.7595 -1.0973,9.7113 0.03,5.5974 -0.4836,9.1806 -1.3578,9.472 -0.7733,0.2578 -1.4061,1.0175 -1.4061,1.6883 0,0.6708 0.6445,0.8213 1.4323,0.3344 1.839,-1.1365 0.6559,23.416 -1.3858,28.759 -0.9923,2.5968 -1.0057,3.8858 -0.046,4.4787 0.9306,0.5751 0.9603,1.8491 0.096,4.1219 -0.7045,1.853 -0.7713,3.5859 -0.1529,3.968 0.6037,0.3732 0.85,2.7837 0.5471,5.3568 -0.6874,5.8413 -0.6869,5.793 -0.136,13.803 0.2506,3.6435 -0.035,6.928 -0.6351,7.2987 -0.5999,0.3708 -0.4991,1.387 0.224,2.2582 0.7877,0.9491 1.1239,6.0403 0.8389,12.7012 -0.2617,6.1145 -0.022,11.6898 0.5334,12.3897 1.1821,1.4906 1.5457,12.8393 0.6372,19.8915 -0.3481,2.7027 -0.038,5.6308 0.6891,6.507 1.5066,1.8153 1.9344,38.5388 0.4896,42.0324 -0.5011,1.2119 -0.3093,2.9287 0.4263,3.815 0.7357,0.8864 1.0143,2.848 0.6191,4.3591 -0.4546,1.7383 -0.1496,2.7475 0.8304,2.7475 1.2257,0 1.2228,0.3928 -0.014,1.8827 -1.1056,1.3322 -1.4536,6.176 -1.1898,16.5625 0.5039,19.8388 0.3943,27.3967 -0.4936,34.0548 -1.6165,12.1219 -1.8844,27.4319 -0.6865,39.2347 1.6054,15.81933 2.3746,56.00263 1.1033,57.64023 -0.5337,0.6875 -0.598,6.4329 -0.1428,12.7676 0.4551,6.3347 0.4467,12.9414 -0.019,14.6815 -0.4654,1.7402 -0.4199,3.4275 0.1012,3.7495 0.5211,0.322 0.7483,3.5591 0.5049,7.1935 -0.3729,5.5673 -0.4931,22.5159 -0.2243,31.6079 0.041,1.375 0.022,4.75 -0.041,7.5 -0.063,2.75 0.019,8.9375 0.1828,13.75 0.1639,4.8125 -0.2875,9.875 -1.003,11.25 -1.0776,2.0708 -0.8096,19.8052 0.5951,39.375 0.1251,1.7428 -0.7077,19.9819 -1.1701,25.625 -0.2134,2.6054 -0.2174,3.3267 -0.165,30.3013 0.031,15.9318 0.1499,16.6783 3.1789,19.945 2.6663,2.8755 2.8941,3.6882 1.4924,5.3236 -0.9494,1.1077 -1.7263,5.331 -1.8233,9.9121 -0.093,4.3901 -0.7646,8.6994 -1.4923,9.5763 -0.7519,0.906 -0.838,1.894 -0.1994,2.2886 0.6181,0.382 0.898,5.354 0.622,11.0489 -0.8483,17.5065 -1.0314,34.9058 -0.3742,35.5648 0.6776,0.6797 0.8214,4.1285 1.0077,24.1644 0.1073,11.5515 -0.2709,18.6955 -1.0425,19.6875 -0.2805,0.3608 -0.333,5.1576 -0.061,5.625 0.8558,1.473 0.6903,22.1059 -0.2319,28.9135 -0.7353,5.4279 -0.7252,8.8866 0.027,9.375 1.9373,1.2575 1.7817,19.8666 -0.1924,23.0218 -2.0228,3.2326 -2.3873,10.7873 -0.6231,12.9131 0.6776,0.8165 1.1903,3.9267 1.1393,6.9119 -0.1429,8.3695 0.7461,18.9401 1.7967,21.3647 0.5214,1.2031 0.4659,2.1873 -0.1233,2.1867 -0.5892,-3e-4 -0.9558,6.0465 -0.8146,13.4375 0.1412,7.3912 0.3398,13.4383 0.4412,13.4383 0.9143,0 0.3641,39.1403 -0.568,40.4077 -0.8312,1.1304 -0.6966,1.9808 0.4231,2.6728 0.9033,0.5583 1.2435,1.6603 0.756,2.449 -0.712,1.1521 -1.0036,12.4853 -0.6455,25.0955 0.1887,6.6465 -1.0743,23.5127 -1.9049,25.4386 -0.656,1.5211 -0.4038,2.6809 0.7363,3.3855 1.3447,0.831 1.3987,1.4073 0.2407,2.5654 -1.0666,1.0665 -1.1247,2.1828 -0.2033,3.9045 0.997,1.8629 0.8057,2.7652 -0.8417,3.9699 -1.63,1.1918 -1.8357,2.1245 -0.8737,3.9601 1.7582,3.3544 1.8661,17.6149 0.1575,20.8074 -1.1029,2.0608 -1.0355,2.9439 0.3049,3.9946 1.3406,1.051 1.7207,6.0432 1.7207,22.599 0,11.6875 -0.4551,21.9531 -1.0113,22.8125 -0.592,0.9147 -0.4432,1.5625 0.359,1.5625 1.6976,0 0.8919,15.509 -1.2451,23.9664 -1.1113,4.3981 -1.1282,7.4628 -0.069,12.4042 0.9503,4.4313 0.9962,6.9741 0.1413,7.829 -0.855,0.855 -0.6472,1.9503 0.6398,3.3724 1.4817,1.6374 1.906,5.3954 1.906,16.8844 0,8.1281 0.4626,15.3723 1.028,16.0985 1.3101,1.6823 0.2275,10.6951 -1.2848,10.6951 -0.6253,0 -0.8659,1.2656 -0.5345,2.8125 1.3581,6.3387 1.7729,27.7639 0.5658,29.2184 -0.8651,1.0423 -0.7582,2.3335 0.3389,4.0901 1.3712,2.1957 1.2658,2.8136 -0.7286,4.272 -2.1397,1.5645 -2.158,1.7716 -0.2217,2.5146 1.5947,0.6119 1.9485,1.8061 1.4485,4.8885 -1.7417,10.7371 -2.8943,49.6773 -1.5356,51.8758 0.8413,1.3612 0.2895,6.2963 -1.064,9.5167 -0.5753,1.3686 -0.4114,2.6605 0.4012,3.1626 1.4028,0.867 1.1022,10.2434 -0.4066,12.6848 -0.4499,0.7279 -0.2521,2.0054 0.4395,2.8387 0.6986,0.8417 1.0066,5.1232 0.693,9.6327 -0.6189,8.9006 -0.609,19.642 0.031,33.1176 0.649,13.6754 0.6688,52.9001 0.032,63.0441 -0.3166,5.0413 -0.061,9.7936 0.5673,10.5609 1.4038,1.7135 0.759,32.6034 -0.8754,41.9397 -0.6542,3.737 -0.7791,10.2058 -0.2775,14.375 0.5015,4.1692 0.7999,13.0838 0.6629,19.8102 -0.1369,6.7265 0.088,12.4381 0.5006,12.6926 0.4123,0.2545 0.6084,6.5635 0.4359,14.0201 -0.799,34.536 -0.8692,59.1829 -0.1687,59.1826 0.9375,-2e-4 0.3033,28.3252 -0.8186,36.5623 -0.6629,4.8671 -0.461,5.9375 1.1199,5.9375 1.7375,0 1.7372,0.4579 0,4.6225 -1.2115,2.8994 -1.6569,6.3396 -1.1948,9.229 0.5328,3.3324 0.1985,5.0532 -1.2088,6.2211 -1.7574,1.4585 -1.7512,1.7233 0.063,2.7388 1.3752,0.7696 1.7381,1.9767 1.1507,3.8275 -1.085,3.4186 -0.7469,15.3065 0.7323,25.7517 0.6272,4.4285 0.7553,8.6554 0.2849,9.3931 -1.0624,1.6658 -1.6573,7.5872 -1.5476,15.4038 0.1222,8.7041 0.065,39.6031 -0.083,44.6875 -0.2182,7.5066 -0.2177,18.3375 0,29.375 0.089,4.4687 0.1292,8.9687 0.09,10 -0.039,1.0312 0.1364,6.375 0.3902,11.875 0.2537,5.5 0.074,10.5625 -0.3986,11.25 -1.3666,1.9867 -2.325,6.875 -1.348,6.875 0.7197,0 0.6661,18.3931 -0.086,29.375 -0.2535,3.7047 1.1845,22.0135 1.7755,22.6045 0.2802,0.2801 0.3682,8.9432 0.1955,19.2512 -0.1901,11.3408 0.1733,19.043 0.9202,19.5047 0.7348,0.4541 0.3728,1.7148 -0.8946,3.1152 -1.4764,1.6315 -1.7494,2.8385 -0.8906,3.9384 2.0048,2.5676 0.1539,118.1049 -2.0114,125.5544 -0.6344,2.1826 -0.8809,4.2408 -0.5479,4.574 0.8773,0.8772 1.5431,8.181 2.2979,25.2076 1.1567,26.0947 1.0764,36.0972 -0.2935,36.5539 -1.2821,0.4273 -0.3344,7.2937 1.3921,10.0873 0.4457,0.721 0.314,1.6178 -0.2925,1.9925 -1.346,0.832 -0.2796,7.3134 1.3817,8.3975 -2.6653,-0.4903 -1.5297,2.2836 -0.8183,4.3433 1.1438,-0.439 1.7486,0.2056 1.7486,1.8635 0,1.394 -0.5625,2.1869 -1.25,1.762 -0.7836,-0.4843 -1.3235,2.6365 -1.4469,8.3637 -0.2133,9.8979 -0.1997,10.1772 0.9035,18.5113 0.4096,3.0937 0.7931,6.3281 0.8524,7.1875 0.059,0.8594 0.8245,1.5625 1.7006,1.5625 2.7873,0 3.43,2.7767 0.9784,4.2271 -1.2996,0.7689 -2.9255,1.4239 -3.613,1.4556 -0.6875,0.031 -2.5843,0.7915 -4.2152,1.6883 -1.6309,0.8967 -4.502,1.3231 -6.3802,0.9474 -1.8783,-0.3757 -3.988,-0.11 -4.6883,0.5903 -0.8644,0.8644 -2.9533,0.8209 -6.5048,-0.1355 -2.8773,-0.7747 -9.277,-1.3417 -14.2215,-1.2598 -21.6998,0.3588 -38.8585,-0.1895 -40.9503,-1.309 -1.2446,-0.6662 -2.532,-0.7758 -2.8609,-0.2438 -0.6856,1.1094 -7.3662,0.938 -12.2299,-0.3136 -1.9899,-0.5121 -3.6478,-0.2888 -4.1738,0.5624 -0.648,1.0486 -1.3126,1.047 -2.5816,-0.013 -0.9399,-0.7802 -2.2498,-1.0842 -2.9107,-0.6757 -0.661,0.4085 -5.1401,0.1842 -9.9536,-0.4985 -8.5982,-1.2195 -10.8319,-0.9978 -25.7548,2.5548 -4.7383,1.1281 -6.7247,1.1272 -8.5354,0 -1.7698,-1.1053 -2.7892,-1.1175 -4.077,-0.049 -0.9443,0.7838 -2.8097,1.0783 -4.1451,0.6544 -1.3354,-0.4239 -11.3774,-1.0219 -22.3156,-1.3289 -28.5991,-0.803 -42.0257,-1.7352 -42.813,-2.973 -0.74,-1.1633 -7.9717,-0.9625 -15.0633,0.4185 -2.4062,0.4685 -9.3662,0.2303 -15.4666,-0.5296 -9.772,-1.2171 -11.3606,-1.138 -13.3534,0.6655 -2.1063,1.9061 -2.3721,1.8704 -3.8653,-0.5206 -1.4646,-2.3453 -1.7907,-2.3983 -3.7646,-0.6119 -1.7515,1.5851 -3.6546,1.7685 -10.0431,0.9678 -4.3351,-0.5435 -8.4445,-0.7984 -9.132,-0.5667 -2.458,0.8289 -10.038,0.6642 -12.1057,-0.2631 -1.1581,-0.5192 -3.6893,-0.3295 -5.625,0.4219 -4.3889,1.7037 -18.7381,2.7829 -20.7197,1.5581 -1.4935,-0.923 -13.451,-0.8016 -20.2996,0.2061 -17.6918,2.6033 -27.9924,2.9667 -36.875,1.3007 -2.4062,-0.4513 -10.5625,-1.0737 -18.125,-1.3832 -7.5625,-0.3093 -15.7187,-0.8345 -18.125,-1.167 -9.116,-1.2596 -40.5707,-0.4361 -44.0849,1.1542 -1.267,0.5733 -3.7616,0.3573 -5.8464,-0.5062 -2.8061,-1.1623 -4.7274,-1.1707 -8.415,-0.038 -2.6283,0.808 -6.4008,1.9639 -8.3834,2.5684 -1.9825,0.6045 -4.5138,0.6524 -5.625,0.1063 -1.1111,-0.5462 -4.8328,-0.7902 -8.2703,-0.5424 -3.4375,0.2477 -7.0937,0.4272 -8.125,0.3989 -1.6793,-0.046 -44.1312,0.097 -48.75,0.1645 -1.0312,0.015 -4.125,-0.017 -6.875,-0.073 -2.75,-0.055 -6.4062,-0.097 -8.125,-0.094 -11.1546,0.021 -18.2449,-0.3341 -19.2691,-0.9671 -1.0627,-0.6568 -8.7491,-1.3383 -16.8514,-1.4941 -1.6476,-0.031 -3.6442,-0.596 -4.4369,-1.2539 -1.4416,-1.1964 -8.9605,-1.1859 -11.3176,0.016 -0.6875,0.3505 -3.7812,0.5241 -6.875,0.3857 -14.8376,-0.6636 -28.8196,-0.5621 -30.0825,0.2184 -2.1431,1.3245 -11.1459,0.898 -12.9682,-0.6144 -1.1815,-0.9805 -2.0375,-0.8365 -3.1751,0.5342 -0.8566,1.0322 -2.1191,1.5295 -2.8056,1.1053 -0.6864,-0.4243 -1.7134,-0.019 -2.282,0.9015 -0.8357,1.3521 -1.5032,1.2484 -3.4806,-0.5413 -1.7953,-1.6247 -2.5865,-1.7947 -2.9719,-0.6385 -0.7274,2.1822 -10.9841,2.376 -10.9841,0.2077 0,-1.8488 -5.7224,-2.2454 -6.8181,-0.4727 -0.396,0.6409 -2.243,0.7334 -4.1362,0.2072 -3.8532,-1.071 -18.5665,-0.7214 -21.7605,0.5171 -1.1494,0.4457 -3.2246,0.203 -4.6116,-0.5393 -1.6216,-0.8678 -2.792,-0.9126 -3.2786,-0.1252 -0.8062,1.3045 -48.3616,0.8186 -50.5213,-0.5162 -0.6605,-0.4082 -1.5209,-0.2244 -1.912,0.4083 -0.8553,1.384 -19.6033,0.3234 -21.2307,-1.2011 -0.6519,-0.6108 -1.7998,-0.1748 -2.6688,1.0138 -1.2786,1.7486 -2.2331,1.8678 -5.9119,0.7388 -5.0114,-1.5381 -14.9064,-1.0461 -19.9403,0.9913 -1.8783,0.7602 -4.4095,0.9476 -5.625,0.4164 -1.2155,-0.5312 -2.691,-0.8568 -3.279,-0.7235 -0.588,0.1332 -1.8536,-0.4088 -2.8125,-1.2047 -1.2632,-1.0482 -1.7435,-1.0603 -1.7435,-0.044 0,1.4506 -12.2641,1.5459 -13.1563,0.1025 -0.4984,-0.8064 -17.6976,-0.2358 -20.2812,0.6727 -0.8593,0.3023 -1.5625,-0.061 -1.5625,-0.807 0,-0.8287 -1.0944,-1.0213 -2.8125,-0.4952 -1.5468,0.4737 -3.5156,0.8322 -4.375,0.7969 -6.0656,-0.2504 -7.9224,-0.5332 -8.3817,-1.2765 -0.2881,-0.466 -3.5122,-0.6232 -7.1647,-0.349 -3.6526,0.274 -8.2817,0.585 -10.2869,0.6911 -2.0052,0.1062 -3.8917,0.9302 -4.1921,1.8316 -0.4197,1.2591 -1.0987,1.139 -2.9299,-0.5181 -2.0002,-1.8103 -3.0996,-1.9374 -6.8359,-0.7906 -2.4488,0.7515 -5.6772,1.0424 -7.1743,0.6466 -5.1641,-1.3656 -15.2211,-0.9774 -17.2854,0.6671 -1.2943,1.0313 -2.3489,1.182 -2.8294,0.4045 -0.45,-0.7281 -3.7246,-0.9409 -7.9366,-0.5156 -3.9438,0.3982 -9.4206,0.7042 -12.1706,0.6802 -28.7615,-0.2515 -40.697,-0.6932 -41.2112,-1.5253 -0.7539,-1.2199 -10.4664,-0.2174 -13.5225,1.3957 -1.2286,0.6485 -7.9786,1.1144 -15,1.0351 -7.0215,-0.079 -13.3288,-0.048 -14.0163,0.07 -0.6875,0.1175 -2.592,0.1013 -4.2322,-0.036 -1.6401,-0.1375 -3.4254,0.4672 -3.9671,1.3437 -0.7487,1.2113 -1.4009,1.2489 -2.717,0.1565 -1.6109,-1.3368 -20.1334,-2.4175 -53.8168,-3.1396 -9.0642,-0.1944 -12.5205,-0.7271 -13.3422,-2.0569 -0.7902,-1.2785 -1.5859,-1.4253 -2.7669,-0.5108 -0.9864,0.7638 -8.2389,1.1676 -17.9078,0.9968 -8.9655,-0.1582 -16.9146,0.2498 -17.7326,0.9102 -0.9576,0.7731 -2.4306,0.6896 -4.1601,-0.236 -1.4728,-0.7882 -3.4594,-1.133 -4.4149,-0.7664 -0.9555,0.3667 -2.0637,0.1386 -2.4626,-0.5069 -1.0606,-1.7162 -20.1125,-0.6819 -22.3994,1.216 -1.3115,1.0885 -3.4312,1.3029 -6.6291,0.6706 -2.5858,-0.5111 -7.6701,-1.0816 -11.2988,-1.2676 -3.6286,-0.186 -7.4008,-1.005 -8.3827,-1.8199 -0.9819,-0.8148 -2.3205,-1.1507 -2.9748,-0.7465 -0.6542,0.4044 -5.3567,1.0569 -10.45,1.45 -7.4862,0.5779 -9.571,0.3408 -10.8808,-1.2375 -1.4548,-1.7528 -2.0023,-1.6803 -5.359,0.7098 -2.7197,1.9366 -3.9897,2.2561 -4.6594,1.1724 -0.5064,-0.8194 -1.9951,-1.4233 -3.3083,-1.342 -1.3131,0.081 -5.4812,0.031 -9.2625,-0.1113 -16.2661,-0.6116 -18.2085,-0.4925 -20.3577,1.2487 -1.8703,1.5152 -2.9479,1.5504 -6.6353,0.2171 -3.4782,-1.2578 -5.7048,-1.2796 -10.6062,-0.1038 -4.4345,1.0638 -6.665,1.1054 -7.8211,0.146 -1.1274,-0.9358 -3.6753,-0.964 -8.411,-0.094 -3.7365,0.6868 -7.3562,1.2031 -8.0437,1.1471 -0.6875,-0.056 -4.9317,-0.2498 -9.4317,-0.4309 -4.5,-0.181 -8.905,-0.776 -9.7888,-1.3223 -0.8837,-0.5462 -12.6707,-1.1381 -26.1932,-1.3153 -13.5224,-0.1773 -27.5356,-0.7504 -31.1405,-1.2737 -4.4091,-0.64 -7.1208,-0.4811 -8.2854,0.4854 -1.2396,1.0289 -2.6964,1.0699 -5.1301,0.1446 -2.3784,-0.9042 -4.9451,-0.8758 -8.5491,0.095 -3.7318,1.0049 -5.2762,1.0092 -5.6074,0.015 -0.5976,-1.7931 -6.7841,-1.7573 -10.7779,0.062 -2.4271,1.1058 -3.5829,1.0718 -5.0531,-0.1483 -1.8459,-1.532 -6.5275,-1.4275 -29.9461,0.6684 -4.3079,0.3855 -7.0732,-0.051 -9.2198,-1.4584 -2.2357,-1.4649 -3.3087,-1.617 -3.9611,-0.5614 -1.3644,2.2077 -8.257,2.6382 -13.4865,0.8424 -5.5386,-1.902 -20.3939,-1.7621 -44.0543,0.4146 -9.2812,0.854 -20.5312,1.4147 -25,1.2462 -4.4687,-0.1687 -10.0937,-0.2177 -12.5,-0.1088 -2.4062,0.1088 -5.7812,0.1288 -7.5,0.044 -6.4667,-0.3177 -11.5562,0.2282 -13.125,1.4077 -0.6875,0.5169 -3.7812,0.7338 -6.875,0.4819 -13.0486,-1.0624 -36.2921,-1.4381 -40.1501,-0.6491 -2.2906,0.4685 -8.337,0.3662 -13.4365,-0.2273 -7.2589,-0.8447 -9.5041,-0.7187 -10.3425,0.58 -0.8809,1.3646 -1.2725,1.3456 -2.2079,-0.1075 -0.945,-1.4676 -2.564,-1.5295 -9.582,-0.3666 -4.6447,0.7696 -8.8318,1.1602 -9.3047,0.8679 -2.2093,-1.3654 -18.0113,-1.7224 -19.5543,-0.4418 -1.1463,0.9514 -2.1632,0.9861 -3.2345,0.11 -0.8593,-0.7024 -3.25,-1.0314 -5.3125,-0.731 -6.2385,0.9086 -11.1237,0.8413 -13.563,-0.1867 -1.2721,-0.5363 -4.9265,-0.3769 -8.1208,0.3541 -3.4888,0.7984 -6.3522,0.8774 -7.1709,0.1979 -0.7496,-0.6223 -8.064,-1.1609 -16.2541,-1.197 -8.1902,-0.036 -16.2974,-0.1063 -18.0162,-0.1563 -7.8562,-0.2274 -14.9508,0.3146 -21.0776,1.6104 -3.51,0.7422 -5.9866,0.7101 -6.9511,-0.09 -1.9359,-1.6066 -19.0569,-0.923 -23.5531,0.9404 -2.1693,0.899 -5.1958,1.0633 -8.125,0.4413 -2.6457,-0.5617 -6.429,-0.4603 -8.7324,0.2339 -2.939,0.8859 -4.8879,0.7843 -7.0386,-0.3667 -1.6358,-0.8755 -4.0997,-1.2347 -5.4752,-0.798 -1.7361,0.551 -2.763,0.1137 -3.358,-1.431 -0.7805,-2.0259 -0.9597,-2.042 -2.0055,-0.1797 -1.4307,2.5482 -9.537,4.2152 -11.7133,2.4088 -1.7522,-1.454 -12.9513,-1.1651 -15.4828,0.3994 -0.8782,0.5428 -2.393,0.3262 -3.3659,-0.4813 -1.0575,-0.8776 -3.2857,-1.135 -5.5397,-0.64 -2.0739,0.4555 -4.4876,0.3801 -5.3638,-0.1677 -2.0973,-1.3113 -18.5498,-1.4434 -27.1257,-0.2179 -4.314,0.6165 -7.3559,0.4935 -8.3575,-0.3378 -1.0973,-0.9107 -2.3325,-0.9017 -4.0726,0.03 -3.1554,1.6887 -12.6622,1.7538 -12.6622,0.086 0,-1.9405 -5.8972,-1.4721 -6.6653,0.5294 -0.5135,1.3383 -2.6753,1.6912 -8.7219,1.4237 -4.4215,-0.1955 -8.6155,-0.7117 -9.3199,-1.1471 -0.7045,-0.4354 -1.5956,0.029 -1.9802,1.0309 -0.551,1.4358 -1.4625,1.5565 -4.2958,0.5688 -2.122,-0.7397 -4.8356,-0.816 -6.6191,-0.1861 -1.6625,0.5873 -5.6946,0.9254 -8.9603,0.7513 -3.4313,-0.1829 -5.9375,0.2248 -5.9375,0.9662 0,0.8213 -1.911,0.9488 -5.3125,0.3546 -8.452,-1.4765 -13.4956,-1.4296 -22.1875,0.2059 -4.8953,0.9213 -8.597,1.0765 -9.3125,0.3906 -1.7086,-1.6377 -12.422,-1.4037 -14.1345,0.3088 -1.0575,1.0575 -1.8936,1.0764 -3.1061,0.07 -1.8771,-1.5579 -22.357,-2.3383 -24.6224,-0.9381 -0.8118,0.5017 -5.1372,0.1845 -9.612,-0.705 -6.5366,-1.2993 -8.6295,-1.3089 -10.6471,-0.049 -1.8965,1.1844 -2.9337,1.2176 -4.2371,0.136 -1.0139,-0.8415 -3.2753,-1.0921 -5.4814,-0.6075 -6.3632,1.3976 -17.628,0.926 -19.752,-0.827 -1.6256,-1.3416 -2.1034,-1.3486 -2.5447,-0.037 -0.4044,1.2021 -0.9709,1.2599 -2.2168,0.2258 -1.2276,-1.0188 -2.368,-1.0173 -4.2792,0 -1.4333,0.767 -3.0745,1.1047 -3.6474,0.7507 -0.5729,-0.354 -7.0388,-0.9147 -14.3685,-1.246 -7.3299,-0.3312 -13.9436,-0.9834 -14.6974,-1.4492 -0.7537,-0.4658 -1.8125,-0.1315 -2.3529,0.7427 -0.6647,1.0756 -5.3145,1.7384 -14.377,2.0491 -7.367,0.2527 -13.7649,0.6882 -14.2174,0.9678 -0.4525,0.2797 -4.3346,0.095 -8.627,-0.4116 -4.2922,-0.5062 -8.0496,-0.6749 -8.3495,-0.3749 -0.3,0.2999 -3.845,0.6635 -7.8778,0.8079 -4.0329,0.1445 -7.9978,0.6737 -8.8109,1.1762 -0.813,0.5025 -2.1814,0.4709 -3.0408,-0.07 -0.8593,-0.5412 -12.25,-1.084 -25.3125,-1.206 -13.0625,-0.1225 -24.5937,-0.3151 -25.625,-0.4291 -2.8778,-0.3183 -27.5048,1.0357 -33.0058,1.8147 -3.2207,0.456 -5.8387,0.064 -7.6968,-1.154 -2.531,-1.6585 -2.9,-1.6286 -3.646,0.2954 -0.774,1.9963 -0.9422,1.988 -2.4956,-0.1212 -0.9161,-1.2444 -1.9941,-1.731 -2.3955,-1.0817 -1.1191,1.8108 -8.5098,2.5425 -12.0103,1.189 -4.7626,-1.8414 -25.0501,-1.6615 -26.2207,0.2325 -0.5986,0.9687 -1.2589,1.0917 -1.734,0.3229 -0.6881,-1.1135 -7.8138,-1.2949 -56.8153,-1.4466 -6.305,-0.02 -10.0898,0.5907 -12.1875,1.9651 -1.6733,1.0965 -3.0425,1.4328 -3.0425,0.7474 0,-0.7166 -4.3816,-1.3029 -10.3125,-1.3798 -5.6718,-0.074 -11.8791,-0.4905 -13.7937,-0.9267 -2.3761,-0.5413 -4.2078,-0.1356 -5.7695,1.2776 -1.7334,1.5688 -3.541,1.8705 -7.4563,1.2444 -2.8423,-0.4545 -5.168,-0.328 -5.168,0.281 0,1.613 -15.0226,0.8725 -18.3422,-0.9041 -2.1531,-1.1524 -3.239,-1.165 -4.5785,-0.054 -2.0806,1.7269 -13.564,2.2044 -16.002,0.6654 -2.4749,-1.5623 -16.2744,-1.6094 -19.2023,-0.066 -2.9212,1.5403 -8.3988,1.1283 -9.5477,-0.7182 -0.4388,-0.7053 -1.4323,-0.89 -2.2079,-0.4106 -0.7756,0.4793 -1.0355,1.4777 -0.5775,2.2187 0.5803,0.9389 -1.0241,1.067 -5.2921,0.4228 -3.3686,-0.5085 -7.8123,-0.8522 -9.8748,-0.7637 -6.3085,0.2708 -30.8228,0.056 -38.4375,-0.3363 -3.9531,-0.2039 -7.1875,0.09 -7.1875,0.6538 0,0.5635 -1.1023,0.3362 -2.4497,-0.5053 -1.9435,-1.2138 -3.383,-1.1924 -6.9664,0.1037 -4.0522,1.4654 -4.6975,1.3966 -6.2765,-0.6681 -1.4696,-1.922 -1.9514,-2.0103 -2.9209,-0.5353 -0.8462,1.2875 -4.4327,1.8349 -13.2302,2.0192 -6.6381,0.139 -12.652,0.8353 -13.3643,1.5476 -0.8213,0.8214 -2.6785,0.8981 -5.0781,0.21 -2.1822,-0.6259 -4.6697,-0.6106 -5.8784,0.036 -1.2441,0.6659 -2.8295,0.6568 -3.9028,-0.023 -2.1882,-1.3843 -9.15095,-1.5471 -10.45305,-0.2443 -0.5154,0.5156 -2.156,0.9971 -3.6459,1.07 -1.4898,0.073 -6.1261,0.3073 -10.3029,0.5212 -4.1767,0.2138 -8.1546,0.043 -8.8399,-0.3812 -2.002,-1.2373 -10.5267,-1.1957 -17.7686,0.086 -4.8786,0.8639 -8.1644,0.747 -12.0734,-0.4295 -2.9538,-0.889 -5.6103,-1.3765 -5.9035,-1.0835 -1.0572,1.0573 -15.5086,2.3111 -24.0705,2.0885 -10.9358,-0.2844 -17.969,-1.1716 -19.821,-2.5004 -1.5332,-1.1 -13.6873,-1.0325 -20.7128,0.115 -2.356,0.3849 -4.7567,0.4075 -5.3347,0.05 -0.578,-0.3572 -9.9002,-0.9095 -20.7162,-1.2272 -10.8159,-0.3178 -21.9153,-0.7425 -24.6653,-0.944 -2.75,-0.2014 -6.6437,0.086 -8.6527,0.6397 -2.2884,0.6303 -4.2726,0.4914 -5.3125,-0.3716 -1.2099,-1.0041 -2.1145,-1.0001 -3.3373,0.015 -0.9226,0.7658 -2.0336,1.0361 -2.4687,0.601 -1.2115,-1.2115 -16.1121,-1.4177 -19.2913,-0.267 -1.6491,0.5969 -2.8125,0.53 -2.8125,-0.1619 0,-0.6488 -0.7031,-0.9307 -1.5625,-0.6265 -3.2807,1.1618 -33.792,2.2229 -56.5625,1.9672 -29.95,-0.3363 -28.9851,-0.353 -35.336,0.6095 -3.0305,0.4592 -6.001,0.2633 -6.875,-0.4534 -1.7047,-1.3979 -7.7682,-1.2104 -11.3526,0.3512 -1.471,0.6409 -2.6635,0.442 -3.2742,-0.5461 -0.5283,-0.8549 -2.2997,-1.4624 -3.9364,-1.3501 -1.6366,0.1125 -8.0383,0.323 -14.2258,0.4682 -6.1875,0.1453 -11.9777,0.7193 -12.8672,1.2755 -0.9224,0.5769 -2.418,0.3469 -3.481,-0.5352 -1.4794,-1.2279 -3.2838,-1.2291 -8.7489,0 -4.6201,1.0339 -10.0541,1.2225 -16.5189,0.5731 -5.2987,-0.5322 -10.1965,-0.7876 -10.884,-0.5676 -0.6875,0.22 -2.0937,0.3191 -3.125,0.2202 -1.0312,-0.099 -5.9531,-0.1923 -10.9375,-0.2076 -6.2353,-0.019 -9.0685,-0.5001 -9.0816,-1.5417 -0.013,-1.0228 -0.3756,-0.9509 -1.118,0.2213 -0.6044,0.9544 -2.7051,1.6599 -4.6684,1.5678 -14.4885,-0.6794 -17.498,-0.9705 -18.8531,-1.824 -0.8435,-0.5313 -3.9191,-0.3236 -6.8345,0.4615 -4.0025,1.0777 -5.4191,1.0727 -5.7835,-0.02 -0.3247,-0.9741 -1.2505,-0.753 -2.8296,0.6761 -1.8114,1.6393 -2.7433,1.7949 -4.0841,0.6821 -1.1364,-0.9431 -2.766,-1.0613 -4.711,-0.3418 -1.8312,0.6775 -4.0673,0.6018 -5.82,-0.1968 -2.0452,-0.9317 -3.2592,-0.8841 -4.3125,0.1693 -1.9337,1.9336 -4.7997,1.8797 -4.4037,-0.082 0.3867,-1.9163 -5.7936,-1.4293 -10.4073,0.8202 -1.8155,0.8851 -4.3083,1.1673 -5.7153,0.6468 -3.6614,-1.3545 -19.5489,-1.8798 -21.4321,-0.7087 -0.8895,0.5532 -2.3331,0.4117 -3.208,-0.3145 -1.0771,-0.8938 -3.0114,-0.928 -5.9899,-0.105 -3.2296,0.8918 -6.0137,0.7288 -10.473,-0.6132 -3.3406,-1.0054 -6.6675,-1.3813 -7.3929,-0.835 -1.5987,1.2036 -14.5132,1.0924 -16.4571,-0.1419 -0.7635,-0.4847 -1.763,-0.5065 -2.221,-0.049 -0.4581,0.458 -4.0521,0.9935 -7.9869,1.1897 -3.9347,0.1964 -7.7165,0.4019 -8.404,0.4568 -0.6875,0.055 -5.4687,-0.2359 -10.625,-0.646 -5.1562,-0.4102 -10.2187,-0.717 -11.25,-0.6822 -1.0312,0.035 -3,0.012 -4.375,-0.06 -1.375,-0.068 -3.3437,-0.071 -4.375,-0.013 -13.1028,0.8093 -25.7851,0.6152 -26.4812,-0.4052 -0.5563,-0.8158 -1.9345,-0.6783 -3.9351,0.3925 -2.0332,1.0881 -6.2469,1.4877 -12.4065,1.1767 -6.4012,-0.3232 -9.787,0.021 -10.7918,1.0964 -0.8054,0.8621 -3.6205,1.4829 -6.2559,1.3796 -2.8391,-0.3656 -8.261,-5.523 -6.067,-6.562 0,0 -0.4142,-0.5523 -0.4142,-2.0105 0,-2.1006 -1.6626,-4.5888 0.1797,-5.203 0.9337,-0.3111 0.9257,-1.5008 -0.026,-4.0061 -0.988,-2.5985 -0.972,-4.025 0.059,-5.2672 1.8229,-2.1965 1.6084,-17.7967 -0.276,-20.0672 -0.7922,-0.9545 -1.0838,-2.0921 -0.6481,-2.5278 0.4358,-0.4358 0.1681,-1.5443 -0.5947,-2.4635 -1.0304,-1.2417 -0.9217,-2.3958 0.4232,-4.49 2.0143,-3.1364 1.9654,-23.1828 -0.07,-28.5819 -0.6562,-1.7411 -0.6655,-4.2201 -0.023,-5.944 0.607,-1.6264 1.0813,-5.8451 1.054,-9.375 -0.028,-3.5299 0.1306,-8.9491 0.351,-12.0429 0.2204,-3.0937 0.11,-6.1875 -0.2454,-6.875 -0.3552,-0.6875 -0.7311,-3.5414 -0.835,-6.342 -0.1037,-2.8006 -0.5586,-6.2569 -1.0106,-7.6807 -0.4809,-1.5155 -0.1287,-3.2913 0.8496,-4.283 1.1388,-1.1545 1.526,-4.0837 1.2154,-9.1943 -0.2507,-4.125 -0.6325,-10.875 -0.8485,-15 -0.2159,-4.125 -0.7999,-9.5747 -1.2976,-12.1106 -0.6449,-3.2851 -0.3643,-5.3829 0.9761,-7.2965 1.3081,-1.8675 1.5783,-3.7425 0.8865,-6.1541 -0.547,-1.9075 -1.0631,-6.7804 -1.1469,-10.8285 -0.084,-4.0482 -0.5068,-10.1728 -0.9403,-13.6103 -0.4337,-3.4375 -0.8485,-9.7717 -0.9222,-14.076 -0.1075,-6.31 0.2734,-7.9556 1.9687,-8.4947 1.7783,-0.5657 1.8942,-1.2664 0.7513,-4.5449 -0.9755,-2.7983 -0.9676,-4.4904 0.029,-6.0854 0.9174,-1.469 0.9972,-3.543 0.2381,-6.1899 -0.8445,-2.9442 -0.6651,-4.7078 0.6889,-6.7743 1.4646,-2.2353 1.5486,-3.6024 0.4204,-6.8392 -0.7757,-2.2248 -1.1294,-6.5372 -0.786,-9.583 0.4702,-4.1716 -0.6305,-4.3277 -1.0973,-5.5376 -0.5327,-1.3806 -0.2028,-1.6773 -0.2028,-3.0523 0,-1.375 -0.7947,-1.9477 0.09,-1.9477 0.885,0 1.6938,-1.125 1.7973,-2.5 0.1037,-1.375 -0.3392,-2.5 -0.9839,-2.5 -0.4519,-9.1378 0.8767,-14.1398 1.1115,-16.5304 -1.0184,-0.3395 -1.0111,-1.1765 0.026,-3.116 1.0763,-2.011 1.0573,-2.7726 -0.079,-3.1512 -0.9474,-0.3158 -1.353,-2.5345 -1.1038,-6.0383 0.5174,-7.2717 0.3638,-13.0268 -0.5315,-19.9141 -0.4021,-3.0937 -0.8906,-8.4375 -1.0855,-11.875 -0.1948,-3.4375 -0.7705,-7.1904 -1.2791,-8.3399 -0.5087,-1.1493 -0.3384,-3.1857 0.3786,-4.5252 0.7169,-1.3397 1.273,-6.0242 1.2358,-10.4103 -0.1301,-15.345 0.2281,-21.4038 1.3945,-23.5834 0.7225,-1.3497 0.7342,-3.7365 0.031,-6.1896 -1.3275,-4.6285 -1.5411,-17.3015 -0.5545,-32.8891 0.3878,-6.1273 0.1997,-10.9375 -0.4277,-10.9375 -0.6161,0 -1.23,-2.3906 -1.3644,-5.3125 -0.628,-13.6546 -0.753,-25.4178 -0.2812,-26.4649 1.1823,-2.6252 1.015,-24.1179 -0.2135,-27.4006 -1.0429,-2.7869 -0.9497,-3.7934 0.4323,-4.6683 1.4474,-0.9162 1.4573,-1.1188 0.055,-1.1346 -1.3522,-0.015 -1.5115,-1.5112 -0.767,-7.2066 0.5168,-3.9531 1.0644,-8.9405 1.2172,-11.0831 0.1526,-2.1425 0.6947,-4.5705 1.2046,-5.3956 0.5237,-0.8476 0.028,-2.1583 -1.142,-3.0132 -1.742,-1.2736 -1.872,-2.3905 -0.8221,-7.0628 0.8141,-3.6236 0.8221,-6.0619 0.024,-7.0247 -0.6731,-0.811 -1.2187,-5.0484 -1.2125,-9.4164 0.013,-7.4668 -0.044,-15.0391 -0.1931,-26.6917 -0.035,-2.75 -0.012,-6.125 0.051,-7.5 0.064,-1.375 0.1857,-5.4485 0.2714,-9.0523 0.086,-3.6037 0.6736,-6.8722 1.3065,-7.2633 0.6826,-0.4219 0.6048,-1.7313 -0.1915,-3.2189 -0.7381,-1.3794 -1.2827,-6.5483 -1.2101,-11.4866 0.073,-4.9384 -0.1274,-13.3307 -0.4443,-18.6495 -0.317,-5.3188 -0.133,-9.9445 0.4088,-10.2793 0.5417,-0.3349 0.7144,-3.0144 0.3836,-5.9545 -0.3307,-2.9401 -0.7102,-7.8769 -0.8434,-10.9706 -0.1331,-3.0938 -0.5855,-6.75 -1.0053,-8.125 -0.4199,-1.375 0.025,-5.0313 0.989,-8.125 z m 50.3877,-1275.50993 c -0.5824,0.7507 -0.6741,1.7498 -0.2037,2.2202 1.5169,1.5169 1.7275,14.3278 0.2503,15.2406 -1.0017,0.6191 -0.9616,1.129 0.1423,1.8113 1.6427,1.0152 1.9731,18.3198 0.7981,41.8146 -0.3425,6.8485 -0.1025,13.4237 0.5333,14.6117 0.7565,1.4137 0.6763,2.4562 -0.2322,3.0177 -0.8949,0.5531 -1.0786,2.6892 -0.5168,6.0134 1.5365,9.0933 1.936,39.7477 0.5835,44.7706 -0.7135,2.6496 -0.854,5.5077 -0.3122,6.3512 1.5589,2.427 1.8189,10.6318 1.0386,32.78363 -0.1213,3.4466 0.473,7.091 1.3252,8.125 0.9899,1.2008 1.3904,4.7966 1.1141,10 -2.356,44.3642 -2.4075,48.4484 -0.6385,50.58 0.6003,0.7232 0.6114,3.8109 0.025,6.9494 -0.866,4.6357 -1.6232,49.5755 -1.1158,66.2206 0.1378,4.5213 0.09,51.4811 -0.06,58.125 -0.046,2.0625 0.097,11.7969 0.32,21.632 0.2222,9.8351 -0.03,18.15 -0.5594,18.4775 -0.53,0.3276 -0.6689,1.3635 -0.3088,2.302 0.3602,0.9385 0.049,6.0599 -0.6907,11.3809 -0.9903,7.1195 -0.9724,10.1242 0.068,11.3774 1.0545,1.2706 1.0267,2.6362 -0.1088,5.3786 -0.8373,2.0216 -1.1567,4.2677 -0.7095,4.9912 1.1579,1.8735 1.3357,19.2598 0.2154,21.0723 -0.5144,0.8322 -0.4801,2.2162 0.076,3.0756 0.5561,0.8594 1.0686,5.7812 1.1387,10.9375 0.1508,11.0755 1.5823,29.9714 2.3669,31.2409 0.303,0.4902 -0.041,4.4897 -0.7659,8.8877 -1.1687,7.0968 -1.2909,11.3008 -0.8315,28.6214 0.064,2.4062 0.02,5.7812 -0.096,7.5 -0.1163,1.7187 -0.1473,3.9687 -0.068,5 0.1695,2.1919 -1.0642,17.152 -2.0102,24.375 -0.3601,2.75 -0.1237,7.8125 0.5263,11.25 0.728,3.8527 0.7399,8.5994 0.031,12.3751 -0.6352,3.3834 -0.6738,6.7406 -0.086,7.5 0.585,0.7563 0.8971,10.2343 0.6937,21.0624 -0.2491,13.2614 0.062,19.6875 0.9547,19.6875 0.7283,0 1.034,1.1104 0.6791,2.4674 -0.3549,1.3571 -0.1709,4.5915 0.409,7.1875 1.2116,5.424 1.4364,13.7167 0.6871,25.3451 -0.9296,14.4271 -0.9672,37.8762 -0.076,47.5 0.4773,5.1562 0.7587,10.2187 0.6251,11.25 -0.1336,1.0312 -0.1254,7.7812 0.019,15 0.1438,7.2187 0.1998,15.9375 0.125,19.375 -0.075,3.4375 -0.3858,22.2812 -0.6903,41.875 -0.3045,19.5937 -0.8658,41.7436 -1.247,49.222 -0.3814,7.4785 -0.105,18.7285 0.6151,25 0.7196,6.2716 1.5655,15.6217 1.8797,20.778 0.3141,5.1562 1.1097,10.9774 1.7677,12.9359 0.7707,2.2936 0.7596,4.3772 -0.031,5.8552 -0.6754,1.262 -1.228,3.9065 -1.228,5.8768 0,1.9701 -0.5421,4.1242 -1.2046,4.7867 -0.7729,0.7729 -0.7555,5.4548 0.049,13.0625 1.529,14.4646 1.2623,38.7715 -0.4492,40.9506 -0.6881,0.8761 -0.9094,1.9343 -0.4919,2.3518 0.4175,0.4176 0.2149,1.7761 -0.4502,3.019 -0.7509,1.403 -0.764,2.535 -0.035,2.9859 0.7001,0.4326 0.9831,12.2057 0.7005,29.1382 -0.2608,15.6269 -0.023,32.3499 0.5288,37.1624 0.6345,5.5347 0.5329,9.664 -0.2766,11.2372 -0.7037,1.368 -1.2775,9.9462 -1.2749,19.0625 0,9.1164 -0.4077,16.5753 -0.9118,16.5753 -1.9133,0 -2.3628,4.1101 -1.0675,9.7608 0.7392,3.2253 1.5766,21.8954 1.8607,41.4892 0.2841,19.5937 0.6163,38.4375 0.7383,41.875 0.1212,3.4375 0.091,9.0625 -0.069,12.5 -0.1595,3.4375 0.064,13 0.4965,21.25 0.8228,15.6899 1.0328,29.0427 0.5899,37.5 -0.144,2.75 -0.012,8.7445 0.3047,13.3212 0.3115,4.5767 0.074,13.8579 -0.5296,20.625 -1.0689,11.9989 -1.159,13.7633 -0.8674,16.9913 0.077,0.8594 0.06,4.0938 -0.037,7.1875 -0.099,3.0937 0.052,9.5625 0.3363,14.375 0.2834,4.8125 -0.037,9.4379 -0.7123,10.2787 -0.6751,0.8408 -1.1188,3.6533 -0.986,6.25 0.2599,5.0812 0.1584,18.0075 -0.7333,93.4713 -0.6874,58.1631 -1.0518,144.8705 -0.6698,159.375 0.1791,6.8035 1.5229,116.2764 1.6383,133.4655 0.056,8.4374 0.6186,15.6594 1.2488,16.0489 0.6813,0.421 0.6433,1.3139 -0.094,2.2021 -0.7939,0.9566 -0.8261,3.2774 -0.09,6.4513 1.1545,4.9762 0.6984,22.0363 -0.9013,33.7072 -0.4712,3.4375 -0.7342,6.7246 -0.5845,7.3049 0.1498,0.5801 0.5319,16.3301 0.8493,35 0.3172,18.6697 0.8191,35.0701 1.1152,36.4451 0.296,1.375 0.5813,3.4076 0.6339,4.517 0.099,2.0811 5.9195,8.608 7.6768,8.608 0.5446,0 1.9103,-0.9201 3.035,-2.0446 1.2591,-1.2591 2.4907,-1.5985 3.206,-0.8833 0.7152,0.7153 5.8466,0.5975 13.3571,-0.3066 7.0524,-0.849 12.6966,-1.0037 13.3832,-0.3669 1.6339,1.5154 4.7655,1.3933 3.8125,-0.1486 -0.4755,-0.7694 1.619,-1.25 5.447,-1.25 3.8331,0 6.4177,0.5939 6.7357,1.5477 0.4068,1.2208 1.2183,1.2278 3.8393,0.034 1.8279,-0.8329 4.181,-1.1853 5.2292,-0.783 1.0481,0.4023 2.7598,0.023 3.8038,-0.844 1.5477,-1.2844 2.1795,-1.2115 3.4216,0.3944 1.7016,2.2 5.5383,2.9711 8.4269,1.6936 1.0469,-0.463 7.7969,-0.9791 15,-1.1468 7.203,-0.1677 13.6605,-0.6662 14.3498,-1.1078 0.6894,-0.4418 3.3184,-0.092 5.8425,0.7746 2.6361,0.9062 5.2945,1.1305 6.2467,0.5268 2.4542,-1.5559 3.5325,-1.316 3.5325,0.7858 0,2.2837 1.462,2.4118 3.5663,0.3125 1.7695,-1.7653 30.1752,-2.2841 30.1806,-0.5512 0,0.5562 0.6335,0.6216 1.404,0.1455 0.7705,-0.4763 22.2345,-1.0633 47.6976,-1.3046 25.4633,-0.2414 49.5934,-1.0367 53.6227,-1.7673 4.0292,-0.7306 7.9768,-0.926 8.7726,-0.4342 1.6098,0.995 16.759,1.6472 38.412,1.6538 9.4424,0 14.583,0.4934 15.1727,1.4477 0.5303,0.8578 1.575,1.021 2.5763,0.4022 2.1567,-1.333 9.9945,-0.688 12.0327,0.9903 1.0753,0.8852 1.5625,0.8761 1.5625,-0.029 0,-0.8659 1.2743,-0.9504 3.7258,-0.2474 3.9171,1.1235 12.1545,0.8684 36.8992,-1.1426 8.25,-0.6705 28.2188,-1.2426 44.375,-1.2714 16.1563,-0.029 30.2188,-0.091 31.25,-0.138 1.0313,-0.048 4.0724,0.1804 6.758,0.5055 2.6857,0.3252 7.7482,0.1329 11.25,-0.4271 3.8503,-0.6157 6.9509,-0.5412 7.8443,0.1885 0.9528,0.7784 3.1485,0.7452 6.1856,-0.094 3.5879,-0.9907 5.5174,-0.8966 8.1074,0.3956 2.0675,1.0314 3.8492,1.2453 4.5484,0.5462 0.699,-0.699 2.4531,-0.6535 4.4778,0.1163 2.3149,0.8801 3.3285,0.8596 3.3285,-0.068 0,-0.8437 2.868,-1.1887 7.8125,-0.94 4.2969,0.2161 8.5294,-0.055 9.4055,-0.6038 0.8762,-0.5482 3.1262,-0.6874 5,-0.3092 1.8739,0.3782 16.532,0.8307 32.5737,1.0056 16.0417,0.1749 29.4512,0.7782 29.7988,1.3407 0.3477,0.5625 1.4019,0.3839 2.3429,-0.397 1.1115,-0.9225 7.3115,-1.3473 17.7011,-1.213 31.73075,0.4105 56.64475,-0.1493 59.11555,-1.3285 0.3438,-0.1641 5.9688,-0.4405 12.5,-0.6143 6.5313,-0.1738 12.7188,-0.3614 13.75,-0.417 1.0313,-0.055 11.7188,0.069 23.75,0.2776 12.0313,0.2082 27.0219,-0.2531 33.3126,-1.0251 6.2908,-0.7722 12.4783,-1.0269 13.75,-0.5663 1.2718,0.4608 12.7187,0.6534 25.4374,0.4281 20.6645,-0.3658 26.9419,-0.4152 35.625,-0.2802 3.7083,0.057 6.3838,-0.7491 8.6091,-2.596 1.6659,-1.3825 2.1088,-1.3294 2.7454,0.3296 0.6766,1.7633 4.5141,1.8975 35.3273,1.2363 19.0125,-0.408 36.9827,-0.6653 39.9336,-0.5717 2.951,0.094 6.4783,-0.4253 7.8384,-1.1532 1.3601,-0.7279 3.0921,-0.9408 3.8488,-0.4731 1.1678,0.7217 35.2433,2.3009 44.8224,2.0772 4.3548,-0.1012 11.7776,-0.1225 30.625,-0.088 19.1573,0.036 27.1218,-0.274 28.5168,-1.1105 0.5591,-0.3352 5.2032,-0.7454 10.3202,-0.9113 5.117,-0.166 9.6703,-0.6684 10.1184,-1.1164 0.448,-0.4481 1.5064,-0.2405 2.3519,0.4611 0.9823,0.8154 3.5057,0.8851 6.9901,0.1933 2.9989,-0.5954 8.5464,-0.9279 12.3276,-0.7389 12.7583,0.6378 43.1153,1.9094 44.375,1.8586 0.6875,-0.027 6.0313,-0.4858 11.875,-1.0179 5.8438,-0.5322 14.5625,-0.5385 19.3749,-0.014 4.8125,0.5245 10.1563,0.9305 11.875,0.9023 1.7188,-0.029 6.5893,0 10.8234,0.049 4.2341,0.055 8.0465,-0.4629 8.4719,-1.1511 0.4255,-0.6884 2.5861,-0.9747 4.8016,-0.6362 2.2155,0.3385 8.3837,0.5693 13.7072,0.5128 5.3234,-0.056 10.7737,0.4832 12.1117,1.1992 1.7015,0.9107 2.6812,0.8994 3.2602,-0.037 0.4553,-0.7366 3.4724,-1.199 6.7046,-1.0275 3.2323,0.1717 6.5502,-0.1037 7.3732,-0.6127 0.8228,-0.5086 2.0493,-0.583 2.7253,-0.1651 2.0642,1.2756 20.0247,1.6431 20.7774,0.425 0.388,-0.6277 4.7359,-1.0433 9.662,-0.9235 4.926,0.12 10.5729,-0.4318 12.5484,-1.2257 3.0467,-1.2243 3.847,-1.1072 5.2727,0.7718 1.1869,1.5641 1.6925,1.7131 1.7207,0.507 0.025,-1.0591 0.9463,-1.4713 2.4253,-1.0845 1.3122,0.3431 4.8193,0.1789 7.7935,-0.365 3.068,-0.561 8.5502,-0.4354 12.67,0.2902 6.1159,1.0774 7.609,0.9654 9.4597,-0.7095 1.8555,-1.6791 3.414,-1.7927 10.0135,-0.7298 12.9718,2.089 114.3285,1.3769 117.8966,-0.8284 2.0075,-1.2408 8.1082,-0.804 11.0944,0.7941 1.2567,0.6727 2.5606,0.7769 2.8975,0.2318 0.337,-0.545 19.2413,-0.9517 42.0098,-0.9035 22.7684,0.049 41.9898,-0.2787 42.7139,-0.7262 0.7243,-0.4476 3.3696,-0.3648 5.8786,0.1838 8.2538,1.805 25.5593,2.4272 27.301,0.9819 1.1909,-0.9884 2.1665,-0.9174 3.5862,0.2609 2.7685,2.2976 26.4735,2.9526 85.6998,2.3682 15.5514,-0.1535 28.8367,0.068 29.5229,0.4921 0.6863,0.4242 3.9938,0.06 7.3499,-0.8094 3.3561,-0.8693 11.7271,-1.5055 18.6021,-1.4137 6.875,0.091 13.1603,-0.3426 13.9671,-0.9654 0.8797,-0.6787 4.1337,-0.6465 8.125,0.081 3.6619,0.6671 7.2204,0.78 7.9079,0.251 1.3375,-1.0293 8.4575,-0.7806 10.3028,0.3596 1.0618,0.6564 8.2936,-1.4141 10.9628,-3.1388 0.6963,-0.4497 2.6032,-0.1024 4.2378,0.773 2.9075,1.556 4.9614,1.2639 13.2466,-1.8836 5.4421,-2.0673 6.8246,-2.2691 7.5464,-1.1014 0.4132,0.6687 1.2996,0.8769 1.9697,0.4628 0.6702,-0.4141 1.8969,-0.2233 2.7262,0.4241 2.1281,1.6614 7.0247,2.7243 7.6783,1.6666 0.3014,-0.4877 4.9427,-0.4533 10.3138,0.076 8.8097,0.869 17.7939,0.6211 32.2656,-0.8901 2.75,-0.2872 11.1875,-0.4582 18.75,-0.3802 7.5625,0.078 16.0576,0.051 18.8781,-0.059 3.2984,-0.1294 5.6992,0.4869 6.7284,1.727 1.0031,1.2086 2.1214,1.5098 2.9969,0.807 1.7439,-1.3998 13.4909,-3.9218 14.7222,-3.1608 0.4998,0.3089 7.2685,0.8643 15.0415,1.2342 19.7075,0.9377 24.3068,1.3405 25.7925,2.2587 0.711,0.4394 1.6407,0.2359 2.066,-0.4524 0.4253,-0.6881 2.011,-1.2157 3.5239,-1.1723 1.5128,0.044 13.2974,-0.3297 26.188,-0.8292 15.011,-0.5816 23.4375,-0.4698 23.4375,0.3107 0,0.6971 2.541,0.9851 5.9375,0.6728 10.8028,-0.9932 22.323,-0.012 24.4158,2.0818 1.8583,1.8584 4.5805,1.7737 5.3248,-0.1658 0.4428,-1.1537 5.2554,-1.5428 18.3983,-1.4875 12.2515,0.051 18.6367,-0.4192 20.4879,-1.5106 1.9041,-1.1226 3.872,-1.2464 6.7405,-0.4236 2.2281,0.639 4.5605,0.847 5.1831,0.4622 0.6225,-0.3847 2.0892,-0.2877 3.2595,0.2157 1.1701,0.5033 3.6187,0.7978 5.4411,0.6545 1.8225,-0.1433 3.6895,0.3476 4.1489,1.091 0.4595,0.7433 1.3726,1.0196 2.0291,0.6138 0.6566,-0.4058 6.3834,-0.991 12.7261,-1.3002 6.3429,-0.3094 16.4494,-1.1225 22.459,-1.8069 10.3122,-1.1744 14.7583,-1.0539 32.8234,0.8898 6.5831,0.7082 19.3729,0.865 43.125,0.5285 3.7813,-0.054 13.3438,0.3206 21.25,0.8317 7.9063,0.511 23.2344,0.8989 34.0625,0.862 11.2036,-0.038 19.6875,0.4286 19.6875,1.0834 0,0.6326 1.2656,0.755 2.8125,0.2717 1.5469,-0.4832 3.9201,-0.8557 5.274,-0.8278 1.3538,0.028 2.8565,-0.5884 3.3393,-1.3695 0.6416,-1.0383 2.1648,-1.0629 5.6635,-0.091 2.6321,0.7306 9.2857,1.1097 14.7857,0.8421 22.4128,-1.0898 47.0878,-1.1331 47.7364,-0.084 0.38,0.6147 3.576,0.7901 7.1022,0.3897 9.0145,-1.0236 23.5666,-1.0422 64.5364,-0.082 46.993,1.1009 88.3397,1.1397 100.2199,0.094 5.6496,-0.4974 9.8945,-0.3599 10.3236,0.3345 0.4313,0.6979 2.1856,0.4524 4.2982,-0.6015 3.1263,-1.5596 4.1562,-1.5355 8.2954,0.194 3.5266,1.4735 4.9558,1.6026 5.6318,0.5089 0.6241,-1.0098 5.1373,-1.3643 14.506,-1.1394 7.4801,0.1796 16.5788,-0.1276 20.2194,-0.6826 4.8066,-0.7329 7.4818,-0.5477 9.7688,0.6763 2.2818,1.2213 3.3886,1.2989 4.0172,0.2818 0.8677,-1.4041 14.7967,-1.279 34.7932,0.3125 5.8915,0.469 9.2389,0.2422 9.7988,-0.6636 0.6132,-0.9923 1.3377,-0.9714 2.5981,0.075 0.9613,0.7978 2.5807,1.131 3.5987,0.7402 1.018,-0.3906 2.1421,-0.2389 2.4981,0.3371 0.6041,0.9774 7.3703,1.2492 28.8078,1.1572 4.8125,-0.02 9.5938,-0.029 10.625,-0.018 39.7666,0.4287 51.7714,0.1557 70.8732,-1.6115 5.2545,-0.4862 9.4654,-0.1252 13.0838,1.1215 2.9346,1.011 5.6354,1.3823 6.0018,0.8251 0.3664,-0.5571 2.9162,-0.8394 5.6662,-0.6271 4.5618,0.3521 15.1478,0.4665 22.1875,0.2396 1.5469,-0.05 5.625,-0.045 9.0625,0.013 3.4375,0.056 10.1875,0.084 15,0.06 19.4145,-0.093 46.4593,1.316 49.7924,2.5937 1.9483,0.7469 4.0086,1.0699 4.5783,0.7178 0.7834,-0.4841 23.7048,-1.7465 34.3793,-1.8934 0.6875,-0.012 4.0343,0.3188 7.4373,0.7295 3.4031,0.4106 12.6843,0.078 20.625,-0.7404 7.9408,-0.8178 15.2815,-1.3815 16.3127,-1.2525 1.0313,0.129 14.25,0.4557 29.375,0.7258 15.125,0.2701 28.625,0.5184 30,0.5516 1.375,0.034 9.8125,-0.2589 18.75,-0.6494 31.9785,-1.3968 43.7915,-1.5215 46.5183,-0.4908 1.6031,0.606 3.0723,0.5543 3.4908,-0.1225 0.3974,-0.643 8.1517,-1.1782 17.2318,-1.1892 9.08,-0.012 30.7042,-0.3321 48.0537,-0.7136 27.9241,-0.6139 31.4607,-0.475 30.8139,1.2105 -0.6412,1.6711 1.6162,1.8256 18.4555,1.2628 10.5523,-0.3528 22.561,-0.9385 26.686,-1.3019 4.125,-0.3633 10.1358,-0.8945 13.3572,-1.1806 3.2215,-0.286 7.5127,0.176 9.5361,1.0267 2.6455,1.1124 7.6713,1.3021 17.8928,0.6755 7.8177,-0.4792 15.1983,-0.5869 16.4014,-0.2391 2.3932,0.6915 2.6015,-0.5204 2.2837,-13.2864 -0.2483,-9.9791 -0.2472,-10.0466 0.2965,-16.875 0.3113,-3.911 -0.1235,-7.1537 -1.162,-8.6647 -1.0754,-1.565 -1.2408,-2.9193 -0.4699,-3.8482 0.6542,-0.7883 1.3737,-2.6403 1.5988,-4.1155 0.2251,-1.4752 0.7136,-2.9865 1.0856,-3.3583 1.3239,-1.324 -0.2412,-31.0052 -2.0525,-38.9242 -0.5432,-2.375 -0.3729,-4.2332 0.4336,-4.7317 0.9336,-0.577 0.9179,-1.829 -0.053,-4.2141 -1.9331,-4.7497 -2.4897,-31.7537 -0.8557,-41.5183 1.6856,-10.0732 2.3611,-32.6851 1.027,-34.3782 -0.5431,-0.6893 -0.4766,-3.9877 0.1477,-7.3297 1.4794,-7.9186 1.6952,-19.3968 0.5556,-29.5421 -0.502,-4.4687 -0.8581,-8.6875 -0.7913,-9.375 0.8542,-8.7957 0.9064,-24.4252 0.1066,-31.8714 -0.5537,-5.1542 -0.523,-9.9541 0.068,-10.6663 0.6001,-0.723 0.5935,-3.485 -0.015,-6.2537 -0.8364,-3.8062 -1.5674,-46.7485 -1.0846,-63.7086 0.4371,-15.3532 0.2878,-22.2036 -0.4944,-22.6899 -1.7256,-1.0725 -0.988,-7.9942 0.9303,-8.7303 1.0273,-0.3942 1.5228,-1.275 1.101,-1.9575 -0.6367,-1.0302 -1.6139,-9.3493 -1.659,-14.1223 -0.026,-2.7179 0.941,-17.5 1.1443,-17.5 0.1192,0 0.436,-5.0625 0.7041,-11.25 0.2681,-6.1875 0.9736,-15.75 1.5679,-21.25 0.819,-7.5796 0.7051,-10.2281 -0.4707,-10.9425 -1.1522,-0.7 -1.2348,-2.0882 -0.321,-5.3977 0.8844,-3.203 0.813,-4.958 -0.2541,-6.2438 -1.0692,-1.2882 -1.2521,-5.8967 -0.6539,-16.4772 1.0401,-18.3984 0.9688,-21.2699 -0.6008,-24.2029 -0.9357,-1.7483 -0.8445,-2.3609 0.3512,-2.3609 1.2287,0 1.5898,-3.3026 1.51,-13.8097 -0.058,-7.5953 0.3696,-14.1029 0.9495,-14.4614 0.58,-0.3584 0.7243,-1.1859 0.3208,-1.8388 -1.4287,-2.3116 -2.9049,-87.3455 -1.6078,-92.6122 0.5827,-2.3661 0.2847,-3.5544 -1.0167,-4.0538 -1.0126,-0.3885 -1.4582,-1.326 -0.9902,-2.0832 1.1183,-1.8094 2.5787,-100.7736 1.6956,-114.8909 -0.1936,-3.0937 -0.2338,-7.3125 -0.089,-9.375 0.3137,-4.4792 -0.8514,-47.4077 -1.4079,-51.875 -0.2141,-1.7187 0.1364,-4.7322 0.779,-6.6967 0.818,-2.5007 0.7301,-3.8427 -0.2931,-4.4749 -1.7567,-1.0858 -2.9899,-23.4564 -1.3489,-24.4706 0.6121,-0.3783 0.7842,-1.5445 0.3824,-2.5917 -0.8191,-2.1346 -1.35,-21.7331 -1.9073,-70.412 -0.2915,-25.466 -0.023,-33.1392 1.1746,-33.5383 1.036,-0.3453 1.1836,-1.2117 0.4435,-2.6042 -0.6471,-1.2176 -0.6377,-4.9497 0.023,-8.9616 0.6224,-3.7812 0.7643,-9.9525 0.3154,-13.714 -0.4489,-3.7614 -0.6936,-9.1051 -0.5438,-11.875 0.1499,-2.7697 0.5388,-17.411 0.8644,-32.536 0.3255,-15.125 0.8549,-31.7187 1.1765,-36.875 0.5352,-8.5809 0.516,-28.6114 -0.067,-70 -0.121,-8.5937 0.211,-19.2812 0.7379,-23.75 0.5269,-4.4687 1.2735,-11.5 1.6591,-15.625 0.3856,-4.125 1.1899,-10.8642 1.7874,-14.9761 0.6629,-4.5626 0.617,-8.9469 -0.1178,-11.25 -0.6622,-2.0756 -1.3713,-10.0615 -1.5756,-17.7465 -0.2044,-7.685 -0.6872,-14.4833 -1.0729,-15.1075 -1.1968,-1.9364 -1.0826,-9.3365 0.2649,-17.1699 1.6596,-9.6472 1.997,-18.165 0.8296,-20.9402 -0.5068,-1.2048 -0.5774,-3.5609 -0.157,-5.236 0.4204,-1.675 0.1725,-3.4114 -0.5509,-3.8584 -0.8042,-0.4971 -0.8762,-1.3768 -0.1851,-2.2641 1.9863,-2.5505 2.6807,-7.5182 1.2859,-9.1988 -0.7429,-0.8951 -0.9318,-1.6275 -0.4197,-1.6275 0.5121,0 0.3789,-0.7031 -0.296,-1.5625 -1.9218,-2.4469 -2.9015,-9.4951 -1.445,-10.3952 0.8761,-0.5415 1.0728,-10.5779 0.6012,-30.6735 -0.4785,-20.3897 -0.2863,-29.8688 0.6057,-29.8688 0.7514,0 0.8769,-0.664 0.2954,-1.5625 -0.5562,-0.8594 -1.1345,-10.8437 -1.2852,-22.1875 -0.1506,-11.3437 -0.386,-23.4375 -0.523,-26.875 -0.2484,-6.232 -0.2063,-35.4275 0.096,-66.25 0.087,-8.9375 0.048,-19.0625 -0.088,-22.5 -0.2901,-7.3511 -0.098,-13.3681 0.6155,-19.2564 0.2836,-2.341 0.024,-8.1721 -0.5769,-12.9578 -0.6009,-4.7858 -0.7072,-9.325 -0.2361,-10.0871 0.471,-0.7622 0.9025,-5.448 0.9588,-10.4129 0.056,-4.9649 0.4414,-9.3662 0.8558,-9.7806 0.4144,-0.4144 0.2838,-2.8434 -0.2901,-5.3978 -0.5739,-2.5544 -0.8016,-10.5423 -0.5059,-17.7509 0.6316,-15.3992 0.6052,-36.4502 -0.047,-37.5055 -0.2512,-0.4064 0.1,-2.9579 0.7802,-5.67 1.7108,-6.8197 2.3659,-22.9046 0.9681,-23.7685 -0.6321,-0.3906 -0.8357,-1.2176 -0.4525,-1.8377 0.3833,-0.6201 0.6217,-9.7218 0.5299,-20.2261 -0.1291,-14.7718 -0.073,-77.611 0.079,-88.47363 0.014,-1.0312 -0.014,-5.8125 -0.064,-10.625 -0.05,-4.8125 0.082,-17.6093 0.2921,-28.4373 0.2104,-10.828 0.084,-19.6874 -0.2814,-19.6875 -0.3651,-10e-5 -0.7194,-6.6096 -0.7874,-14.6877 -0.2136,-25.4097 -1.3935,-45.3437 -2.7831,-47.0181 -0.858,-1.0338 -0.9518,-2.966 -0.2608,-5.3752 0.5933,-2.0687 1.1515,-9.0562 1.2404,-15.5277 0.089,-6.4716 0.5991,-13.7352 1.1336,-16.1415 1.4962,-6.7351 0.6678,-53.6109 -0.9826,-55.5995 -1.0005,-1.2055 -1.0092,-1.9149 -0.031,-2.5194 0.7488,-0.4628 1.0749,-1.7785 0.7246,-2.9238 -1.4592,-4.7704 -0.4718,-58.1563 1.3216,-71.4573 0.8345,-6.1898 0.7964,-17.7696 -0.1214,-36.875 -0.3303,-6.875 -0.7344,-32.75 -0.898,-57.5 -0.1683,-25.4547 -0.7948,-45.3465 -1.4424,-45.7977 -0.6297,-0.4388 -0.7272,-1.4736 -0.2167,-2.2996 0.7232,-1.1701 1.1639,-34.2872 0.5827,-43.7777 -0.063,-1.0312 -0.082,-19.0312 -0.041,-40 0.06,-31.02883 -0.2993,-53.79885 -1.061,-67.1875 -0.049,-0.85937 -0.054,-2.26562 -0.011,-3.125 0.043,-0.85937 0.077,-2.6875 0.076,-4.0625 -5e-4,-1.375 0.018,-6.4375 0.041,-11.25 0.023,-4.8125 -0.013,-11.28125 -0.081,-14.375 -0.1616,-7.38972 0.4703,-12.91182 1.7065,-14.91205 0.5734,-0.92772 0.3722,-2.00522 -0.4717,-2.5268 -0.8498,-0.52518 -1.5406,-4.29461 -1.6353,-8.92275 -0.095,-4.64152 -0.8384,-8.68865 -1.7668,-9.61817 -1.1511,-1.15253 -1.2638,-2.49645 -0.3998,-4.76888 0.6603,-1.74137 1.2016,-8.48627 1.2016,-14.98978 0,-11.74657 -0.023,-11.83327 -3.4375,-13.14307 -1.8906,-0.72516 -5.581,-0.98038 -8.2008,-0.56716 -2.6198,0.41324 -5.4323,0.33765 -6.25,-0.16796 -1.3247,-0.81911 -12.31,-1.80646 -18.9867,-1.70649 -1.375,0.0206 -4.4687,-0.0539 -6.875,-0.16554 -2.4062,-0.11162 -7.1875,-0.11662 -10.625,-0.0113 -3.4375,0.1055 -20.1212,0.48057 -37.0749,0.83337 -16.9536,0.35278 -32.3289,1.21331 -34.1673,1.91227 -1.8384,0.69895 -3.9356,0.90431 -4.6604,0.45636 -0.7248,-0.44795 -3.6307,-0.99973 -6.4576,-1.22618 -2.8269,-0.22645 -8.0929,-0.71557 -11.7023,-1.08693 -3.7782,-0.38874 -6.5625,-0.17224 -6.5625,0.51029 0,1.2124 -19.9783,1.98125 -33.75,1.29885 -1.0312,-0.0511 -10.3125,-0.0429 -20.625,0.0184 -10.3125,0.0612 -25.5,0.0364 -33.75,-0.0553 -8.25,-0.0916 -20.625,0.53285 -27.5,1.38767 -14.1518,1.75957 -13.9682,1.75462 -27.3479,0.73791 -5.4163,-0.41159 -10.5216,-1.30747 -11.345,-1.99086 -1.9528,-1.6207 -31.1047,-0.49978 -36.9321,1.42008 -2.4062,0.79275 -7.8906,1.33599 -12.1875,1.20719 -4.2968,-0.12879 -9.0781,-0.19944 -10.625,-0.15697 -20.1375,0.55277 -111.7509,-0.85032 -113.1797,-1.73339 -0.7343,-0.45379 -1.6244,-0.35683 -1.9781,0.21546 -0.3537,0.5723 -6.7207,0.84159 -14.1489,0.59844 -20.0328,-0.65576 -23.1766,-0.68111 -57.8808,-0.46654 -43.4731,0.2688 -45.2498,0.23069 -49.7766,-1.0676 -2.4472,-0.70184 -5.5338,-0.67767 -8.0359,0.0629 -2.2343,0.66132 -10.5312,1.48638 -18.4375,1.83347 -7.9062,0.3471 -17.0825,1.16265 -20.3916,1.81235 -4.8772,0.95758 -6.6041,0.7963 -9.1191,-0.85162 -2.6579,-1.7415 -3.5494,-1.79383 -6.2191,-0.36503 -2.4491,1.31071 -4.5115,1.37551 -9.6308,0.30259 -3.8821,-0.8136 -6.9943,-0.90936 -7.7019,-0.23699 -1.484,1.41004 -10.6875,1.49766 -10.6875,0.10175 0,-0.5646 -3.6719,-0.58449 -8.1599,-0.0443 -5.0959,0.61349 -9.4375,0.49333 -11.5625,-0.32002 -1.8714,-0.71632 -5.7932,-1.3058 -8.7151,-1.30998 -2.9219,-0.004 -5.3125,-0.55641 -5.3125,-1.2272 0,-0.67079 -0.6942,-0.79057 -1.5426,-0.2662 -0.8485,0.52436 -6.4735,0.82139 -12.5,0.66006 -6.9853,-0.18701 -10.9574,0.18102 -10.9574,1.01523 0,0.71971 -1.5469,1.32882 -3.4375,1.35359 -1.8906,0.0248 -22.5625,0.27076 -45.9375,0.54666 -23.375,0.2759 -44.75,0.61871 -47.5,0.76181 -2.75,0.14309 -8.5985,-0.0451 -12.9966,-0.41827 -4.6428,-0.3939 -11.3513,0.0235 -15.9957,0.99522 -5.3301,1.11518 -9.0226,1.28459 -11.066,0.50769 -1.6867,-0.64129 -3.0667,-0.73291 -3.0667,-0.20361 0,0.5293 -9.9844,0.99427 -22.1875,1.03328 -12.2031,0.039 -24.8324,0.71337 -28.065,1.49857 -4.08,0.99101 -6.8981,1.03961 -9.2146,0.1589 -2.3354,-0.88792 -3.8377,-0.85318 -5.0052,0.11575 -0.9175,0.76147 -2.2366,1.03317 -2.9315,0.60378 -0.6947,-0.42938 -6.0707,0.12013 -11.9467,1.22122 -5.9,1.10556 -11.9352,1.58581 -13.479,1.07258 -2.9584,-0.98351 -12.8194,-0.99736 -14.4005,-0.0203 -0.5146,0.31807 -3.739,0.0113 -7.1654,-0.68098 -3.4262,-0.69262 -7.0734,-1.19112 -8.1046,-1.10778 -1.0313,0.0834 -4.4063,0.38386 -7.5,0.66784 -25.8279,2.37071 -23.9804,2.31782 -34.375,0.98399 -8.733,-1.12063 -53.7879,-0.9646 -73.75,0.25538 -11.1039,0.67862 -32.0221,1.5168 -48.75,1.95339 -8.8805,0.23178 -43.4124,-1.15064 -44.0241,-1.76241 -0.4103,-0.41021 -1.5008,-0.11938 -2.4234,0.64637 -1.2415,1.03042 -2.1648,0.98783 -3.5525,-0.1639 -1.4976,-1.24292 -2.2602,-1.2364 -3.7891,0.0324 -1.5655,1.29929 -2.1914,1.23974 -3.4375,-0.32708 -1.7382,-2.18558 -8.1334,-3.64532 -9.1024,-2.07762 -0.3543,0.57335 -2.4503,1.07675 -4.6576,1.11865 -19.9827,0.3794 -35.1638,0.23312 -40.9825,-0.39485 -3.833,-0.41368 -8.6143,-0.29296 -10.625,0.26824 -2.4343,0.67942 -4.777,0.45743 -7.0113,-0.66434 -3.2969,-1.6553 -11.864,-1.53738 -16.3786,0.22545 -1.3899,0.5427 -3.1449,0.0481 -4.6443,-1.30879 -3.1222,-2.82565 -26.2467,-3.85327 -26.2467,-1.16637 0,1.2611 -2.7284,1.5324 -11.9806,1.19131 -6.5894,-0.24291 -12.3033,-0.76424 -12.6975,-1.1585 -0.3943,-0.39426 -1.5327,-0.0399 -2.5297,0.78764 -1.4486,1.20225 -2.1455,1.04938 -3.4693,-0.76102 -1.0188,-1.39325 -2.272,-1.88511 -3.2552,-1.27752 -1.9262,1.19046 -5.8241,1.42611 -37.4626,2.26476 -13.4859,0.35749 -27.4247,0.19075 -30.9754,-0.37052 -3.5505,-0.56127 -6.6659,-0.67993 -6.9231,-0.26368 -0.2572,0.41625 -9.8097,0.67913 -21.228,0.58418 -15.4676,-0.12862 -21.2862,-0.60664 -22.8227,-1.875 -1.5907,-1.31294 -2.1813,-1.34955 -2.5817,-0.16007 -0.3786,1.12487 -5.483,1.56192 -18.8591,1.61478 -10.0871,0.0399 -20.8714,0.30172 -23.9651,0.58192 -3.0938,0.2802 -7.5938,0.53433 -10,0.56474 -5.5615,0.0702 -6.1183,0.0861 -18.125,0.5161 -5.5,0.19695 -11.4489,-0.0365 -13.2198,-0.51866 -1.7708,-0.48223 -7.3958,-0.14513 -12.5,0.74909 -6.7778,1.18745 -10.797,1.27936 -14.9052,0.34086 -3.0938,-0.70674 -7.4531,-1.24163 -9.6875,-1.18863 -2.2344,0.053 -4.0625,-0.46878 -4.0625,-1.15955 0,-0.83066 -0.7763,-0.84048 -2.2925,-0.029 -1.2608,0.67479 -7.1664,1.3977 -13.1235,1.60648 -5.9571,0.20877 -10.8318,0.69485 -10.8325,1.08015 -9e-4,0.3853 -4.0796,0.74127 -9.064,0.79106 -4.9844,0.0497 -10.0469,0.49784 -11.25,0.99569 -1.2031,0.49784 -3.1719,0.4947 -4.375,-0.007 -3.1004,-1.29284 -15.2437,-1.43814 -15.6604,-0.18738 -0.3494,1.04867 -7.3233,1.17304 -49.3396,0.87993 -19.0615,-0.13298 -22.8125,-0.4583 -22.8125,-1.9785 0,-1.90768 -1.9378,-2.49054 -2.9317,-0.88185 -0.7434,1.20299 -17.4209,1.01466 -19.4174,-0.21928 -0.8308,-0.5134 -2.2314,-0.33513 -3.1125,0.39615 -0.8811,0.73128 -5.2159,1.33024 -9.6328,1.33104 -4.4169,7.9e-4 -16.4681,0.31164 -26.7806,0.69076 -10.3125,0.37913 -19.8491,0.69867 -21.1924,0.71007 -1.3434,0.0112 -3.2144,0.66137 -4.1577,1.44437 -1.3059,1.08378 -1.9787,0.9977 -2.8181,-0.36054 -0.8782,-1.42093 -1.4187,-1.4682 -2.6548,-0.23212 -1.8253,1.82535 -24.2561,2.1965 -25.3544,0.41952 -0.385,-0.62288 -7.4391,-0.94118 -15.6759,-0.70733 -8.2367,0.23385 -15.2445,-0.009 -15.5726,-0.54022 -0.3281,-0.53096 -3.8541,-0.52096 -7.8354,0.0223 -3.9813,0.54318 -8.3637,0.74348 -9.7387,0.44511 -2.1478,-0.46607 -12.0763,-1.36165 -26.3254,-2.37466 -2.104,-0.14957 -4.3589,-0.60163 -5.0109,-1.00458 -0.652,-0.40297 -3.6097,-0.28933 -6.5728,0.25252 -2.9632,0.54185 -7.6884,0.46819 -10.5007,-0.16369 -2.9298,-0.65828 -5.5812,-0.68084 -6.2092,-0.0529 -0.6028,0.60281 -3.4664,0.74679 -6.3635,0.31996 -2.8971,-0.42684 -10.8925,-0.62882 -17.7675,-0.44889 -14.0468,0.36767 -14.7598,0.37562 -17.8125,0.19851 -5.9624,-0.34591 -17.8125,0.84086 -17.8125,1.7839 0,0.58905 -1.0776,0.72897 -2.3948,0.31092 -1.3172,-0.41805 -2.7623,-0.16553 -3.2113,0.56115 -0.4491,0.72669 -1.438,0.93721 -2.1975,0.46785 -2.2705,-1.40326 -23.5498,-1.19401 -24.7426,0.2433 -1.4604,1.75964 -27.3747,0.94105 -29.6367,-0.93618 -0.957,-0.79422 -7.3174,-1.57315 -14.4507,-1.76966 -7.0078,-0.19305 -18.0852,-0.6767 -24.6164,-1.07475 -22.4157,-1.36616 -38.7659,-1.6354 -39.3759,-0.6484 -0.3359,0.54341 -2.723,0.49751 -5.3049,-0.102 -6.3056,-1.46425 -6.5691,-1.43515 -6.5691,0.72531 0,2.20705 -0.6064,2.3074 -3.7564,0.62163 -1.5722,-0.84146 -2.5997,-0.83628 -3.1262,0.0158 -1.1452,1.85277 -14.6319,1.11581 -17.0558,-0.93198 -1.3951,-1.1786 -2.33,-1.312 -2.8862,-0.41182 -0.491,0.79446 -5.7337,1.33142 -12.9992,1.33142 -7.1391,0 -12.7412,0.56502 -13.542,1.3658 -0.9877,0.98774 -2.1661,0.93754 -4.2567,-0.18136 -1.6126,-0.86302 -8.7192,-1.71001 -16.0717,-1.91545 -21.0982,-0.58951 -37.496,-1.58449 -38.7352,-2.35036 -0.6313,-0.39018 -1.465,-0.19629 -1.8526,0.43085 -0.4168,0.67439 -2.6225,0.6949 -5.3989,0.0503 -2.5817,-0.59953 -6.7566,-1.10346 -9.2775,-1.11986 -2.5291,-0.0165 -4.819,-0.73013 -5.1091,-1.59233 -0.4149,-1.23262 -0.9461,-1.21575 -2.5161,0.0799 -1.0947,0.90333 -4.8899,1.85831 -8.434,2.12217 -3.5442,0.26386 -7.2339,1.13548 -8.1995,1.9369 -1.2169,1.00983 -4.542,1.17919 -10.8319,0.5517 -12.7466,-1.27165 -26.3906,-1.18446 -26.8426,0.17153 -0.2097,0.6292 -6.09,0.99402 -13.0672,0.81073 -6.9772,-0.18328 -15.5643,0.11813 -19.0823,0.6698 -3.6573,0.57352 -13.0742,0.41157 -21.9902,-0.37818 -12.8067,-1.13438 -15.9018,-1.07983 -17.3173,0.30522 -0.9482,0.92756 -2.6357,1.30606 -3.75,0.84113 -1.1145,-0.46495 -6.2452,-1.13644 -11.4014,-1.49219 -5.1563,-0.35576 -9.7254,-1.19079 -10.1535,-1.8556 -0.4918,-0.7635 -1.73,-0.69953 -3.3616,0.17369 -1.7339,0.9279 -2.842,0.96362 -3.3704,0.10862 -0.433,-0.70057 -1.3355,-0.93491 -2.0056,-0.52076 -0.6701,0.41415 -1.9593,0.1381 -2.8649,-0.61344 -1.2058,-1.0007 -2.8215,-0.87547 -6.0365,0.46783 -2.4145,1.00883 -4.6929,1.53131 -5.0631,1.16105 -1.5205,-1.52043 -31.5033,-1.61733 -34.0008,-0.10988 -1.3852,0.83608 -4.2061,1.37269 -6.2686,1.19248 -9.5556,-0.83494 -42.1766,-0.83323 -42.6931,0.002 -0.9722,1.57286 -9.1819,1.06992 -9.1819,-0.5625 0,-1.16666 -0.3334,-1.16666 -1.5,0 -1.7003,1.70029 -6.7813,2.01969 -7.7293,0.48587 -0.3447,-0.55776 -2.206,-0.8746 -4.1362,-0.70407 -4.6521,0.411 -8.3665,0.43239 -16.6345,0.0958 -4.8395,-0.19701 -7.2976,0.26534 -8.3023,1.56159 -1.0466,1.35035 -1.88,1.48431 -3.125,0.5023 -0.9383,-0.74017 -5.8911,-1.22668 -11.0727,-1.08768 -6.7473,0.181 -10.2241,-0.29891 -12.4046,-1.7122 -1.9802,-1.28344 -3.1868,-1.4926 -3.483,-0.6038 -0.2929,0.87869 -2.17525,1.04503 -5.31945,0.47008 -2.6763,-0.4894 -5.4793,-0.51083 -6.2288,-0.0476 -0.7493,0.4632 -6.5548,0.97154 -12.901,1.12961 -6.346,0.15809 -12.8038,0.60102 -14.3507,0.98429 -1.5469,0.38328 -2.8125,0.1664 -2.8125,-0.48194 0,-0.6884 -4.1601,-0.93796 -10,-0.5999 -6.9344,0.40143 -10,0.14645 -10,-0.83171 0,-0.77584 -1.125,-1.41061 -2.5,-1.41061 -1.375,0 -2.5011,0.42187 -2.5024,0.9375 0,1.11921 -13.247,2.01931 -30.9865,2.10591 -10.0872,0.0492 -13.1226,-0.3399 -14.0625,-1.80281 -1.006,-1.56588 -1.377,-1.58884 -2.3089,-0.14295 -0.6106,0.94745 -1.6967,1.36015 -2.4136,0.9171 -0.7169,-0.44304 -1.6736,-0.20654 -2.126,0.52556 -0.5721,0.92563 -1.36,0.88521 -2.5864,-0.13267 -0.9701,-0.80507 -1.7666,-0.973 -1.7702,-0.37319 -0.012,1.5862 -9.8159,1.8986 -12.6126,0.40179 -1.3095,-0.70082 -2.3809,-0.83253 -2.3808,-0.29272 0,0.53982 -5.4844,0.9257 -12.1875,0.85753 -6.7032,-0.0681 -15.5626,0.36687 -19.6876,0.96677 -10.0204,1.45727 -45.4983,1.85534 -62.1085,0.6969 -8.651,-0.60335 -13.6333,-0.487 -14.1384,0.33019 -0.4722,0.76414 -1.6127,0.83334 -2.8915,0.17544 -2.8711,-1.47719 -31.9759,-0.66543 -35.0456,0.97745 -2.5558,1.3678 -14.1111,0.91712 -16.6455,-0.6492 -1.3696,-0.84648 -44.4735,-0.73109 -71.6705,0.19185 -38.6048,1.31007 -56.2465,1.57301 -57.4073,0.85561 -1.3595,-0.84026 -14.8462,-1.85307 -21.3427,-1.6028 -2.0625,0.0795 -9.9875,0.31676 -17.611,0.52734 -7.6236,0.21056 -14.3736,0.68935 -15,1.06395 -1.0035,0.60005 -23.2683,1.0012 -43.014,0.775 -3.7813,-0.0434 -8,-0.03 -9.375,0.0296 -1.375,0.0596 -11.5,0.1857 -22.5,0.28014 -11,0.0944 -20.6024,0.65396 -21.3386,1.24341 -0.7363,0.58944 -2.9863,1.00407 -5,0.92139 -2.0138,-0.0826 -12.0989,0.18733 -22.4114,0.60003 -10.3125,0.4127 -21.7031,0.77633 -25.3125,0.80808 l -6.5625,0.0585 0,4.30123 c 0,2.36567 -0.4919,4.60523 -1.0931,4.97681 -1.5919,0.98384 -2.1985,60.39536 -0.7255,71.05145 0.4526,3.27496 0.3952,6.93121 -0.1277,8.125 -0.5228,1.19377 -0.7826,2.73301 -0.5772,3.42051 0.2053,0.6875 0.5206,10.53125 0.7007,21.875 0.1802,11.34375 0.8897,22.06246 1.5768,23.81936 0.7466,1.9091 0.8412,5.42533 0.2352,8.73918 -0.5576,3.04965 -0.7741,5.9327 -0.4811,6.40677 0.2929,0.47407 0.012,1.18648 -0.6342,1.58314 -0.7155,0.44219 -0.6685,2.52628 0.1212,5.38719 0.7433,2.6915 0.9187,8.109 0.4145,12.8026 -1.9496,18.1551 -2.3102,61.2625 -0.6275,75.0118 0.1263,1.0312 -0.2076,24.375 -0.7417,51.875 -0.9894,50.9295 -1.077,62.1331 -0.8315,106.25 0.076,13.75 0.1325,26.125 0.125,27.5 -0.013,1.375 0.2249,9.9418 0.5177,19.0373 0.2929,9.0955 0.24,16.8299 -0.1175,17.1876 -0.3577,0.3576 -0.5197,4.2505 -0.3602,8.6509 0.1595,4.4004 -0.1687,8.2835 -0.7291,8.6292 -0.5606,0.3457 -0.6784,7.2922 -0.2618,15.4367 0.4165,8.1446 0.2808,15.4225 -0.3017,16.1733 z M 317.47895,1.0844817 c 0.3611,0.90234 0.3167,1.98047 -0.099,2.39583 -0.4154,0.41537 -0.7108,-0.32292 -0.6566,-1.64062 0.06,-1.45617997 0.3562,-1.75237997 0.7553,-0.75521 z M 3733.9775,2968.8188 c 0.6875,0 1.5976,0.5625 2.0225,1.25 0.4249,0.6875 0.21,1.25 -0.4775,1.25 -0.6875,0 -1.5976,-0.5625 -2.0225,-1.25 -0.4249,-0.6875 -0.21,-1.25 0.4775,-1.25 z m 250.7423,-979.9749 c 1.188,-0.986 1.9052,-1.0808 1.9052,-0.252 0,1.5108 -2.3715,3.272 -3.2384,2.4052 -0.3146,-0.3147 0.2853,-1.2835 1.3332,-2.1532 z"
     style="fill:#97aa89;fill-opacity:1" />
</svg>
