<?xml version="1.0" encoding="UTF-8" standalone="no"?>
<svg
   xmlns:dc="http://purl.org/dc/elements/1.1/"
   xmlns:cc="http://creativecommons.org/ns#"
   xmlns:rdf="http://www.w3.org/1999/02/22-rdf-syntax-ns#"
   xmlns:svg="http://www.w3.org/2000/svg"
   xmlns="http://www.w3.org/2000/svg"
   id="svg4699"
   version="1.1"
   viewBox="0 0 172.16458 132.42917"
   height="500.51968"
   width="650.70081">
  <defs
     id="defs4693" />
  <metadata
     id="metadata4696">
    <rdf:RDF>
      <cc:Work
         rdf:about="">
        <dc:format>image/svg+xml</dc:format>
        <dc:type
           rdf:resource="http://purl.org/dc/dcmitype/StillImage" />
        <dc:title></dc:title>
      </cc:Work>
    </rdf:RDF>
  </metadata>
  <g
     transform="translate(0,-164.57082)"
     id="layer1">
    <path
       style="stroke-width:0.07150977;stroke:none;stroke-opacity:1;fill:#667beb;fill-opacity:1"
       id="path946"
       d="m 101.25374,197.75293 c -0.005,0.009 -0.0112,0.0184 -0.0161,0.0281 -0.004,0.008 -0.007,0.0151 -0.0105,0.0226 -0.004,0.008 -0.008,0.016 -0.011,0.0244 -0.007,0.0163 -0.0122,0.0328 -0.0171,0.0496 l -7.295935,25.28399 c -0.169471,0.5873 0.170396,1.20287 0.75763,1.37233 l 5.496525,1.58606 c 0.58723,0.16945 1.2028,-0.17042 1.37225,-0.75765 l 7.29593,-25.28399 c 0.005,-0.0169 0.009,-0.034 0.012,-0.0511 0.002,-0.009 0.003,-0.0177 0.004,-0.0265 10e-4,-0.008 0.002,-0.0164 0.003,-0.0247 9.4e-4,-0.0108 10e-4,-0.0216 10e-4,-0.0324 1.9e-4,-0.006 6.5e-4,-0.0128 5.8e-4,-0.0191 -8e-5,-0.0114 -9.4e-4,-0.0226 -0.002,-0.0337 -2.8e-4,-0.005 -2.5e-4,-0.01 -7.6e-4,-0.0145 l -8.6e-4,-0.009 c -1.4e-4,-5.9e-4 -1.7e-4,-7.8e-4 -2.4e-4,-0.002 l -1.51246,-7.12442 c -0.0218,-0.21819 -0.17422,-0.40113 -0.38494,-0.46193 -0.21072,-0.0608 -0.43723,0.0128 -0.57186,0.18583 l -5.07552,5.22331 c -4.3e-4,4.5e-4 -8.5e-4,7.8e-4 -0.001,0.002 l -0.005,0.007 c -0.003,0.004 -0.005,0.008 -0.008,0.0118 -0.007,0.009 -0.0133,0.018 -0.0194,0.0275 -0.004,0.005 -0.007,0.0108 -0.01,0.0163 z m -6.319984,25.70627 6.861684,-23.77911 c 0.16089,0.12286 0.34643,0.21882 0.55235,0.27824 0.20591,0.0594 0.41405,0.0771 0.61566,0.0588 l -6.871597,23.81346 -1.133657,-0.32713 c -0.01896,-0.005 -0.0299,-0.0254 -0.02443,-0.0443 z m 9.013734,-26.90948 3.25978,0.94064 0.55723,2.37166 c -0.12209,0.27119 -0.42825,0.41937 -0.72204,0.3346 -0.32203,-0.0929 -0.50841,-0.43051 -0.41549,-0.75253 0.0821,-0.28458 -0.082,-0.58187 -0.3666,-0.66399 -0.28458,-0.0821 -0.58187,0.082 -0.66399,0.36661 -0.0929,0.32202 -0.4305,0.5084 -0.75253,0.41548 -0.32203,-0.0929 -0.50841,-0.43051 -0.41548,-0.75253 0.0821,-0.28457 -0.082,-0.58187 -0.36661,-0.66399 -0.28458,-0.0821 -0.58187,0.082 -0.66399,0.3666 -0.0929,0.32203 -0.4305,0.50841 -0.75253,0.41549 -0.29385,-0.0848 -0.474,-0.37331 -0.43277,-0.66783 z m 1.21457,4.10184 -6.871599,23.81347 -1.168011,-0.33704 6.8716,-23.81347 c 0.16089,0.12286 0.34643,0.21882 0.55235,0.27824 0.20591,0.0594 0.41405,0.0771 0.61566,0.0588 z m -4.70735,24.43798 -1.133652,-0.32712 6.871602,-23.81347 c 0.16089,0.12286 0.34643,0.21883 0.55234,0.27824 0.20592,0.0594 0.41406,0.0771 0.61567,0.0588 l -6.86169,23.77911 c -0.005,0.019 -0.0253,0.03 -0.0443,0.0244 z" />
    <path
       id="path5320"
       transform="matrix(0.26458333,0,0,0.26458333,0,164.57082)"
       d="M 346.70508 -223.0332 L -88.867188 -171.25977 C -90.086939 -171.11463 -90.957743 -170.00875 -90.8125 -168.78906 L -90.814453 -168.78711 L -58.150391 105.52344 C -58.005143 106.74313 -56.897467 107.61373 -55.677734 107.46875 L 305.74609 64.503906 L 308.52734 59.695312 L -53.998047 102.79102 L -86.134766 -167.10352 L 345.02148 -218.35156 L 347.38867 -198.47852 C 347.53369 -197.25981 349.01031 -195.64494 349.85742 -196.5332 L 369.73242 -198.90039 L 399.24023 48.912109 L 324.27734 57.824219 C 325.00953 59.294105 325.69855 60.712863 326.32812 62.056641 L 401.97461 53.064453 C 403.19343 52.919319 404.06517 51.813441 403.91992 50.59375 L 373.88477 -201.63281 C 373.87721 -201.68195 373.85049 -201.72153 373.8418 -201.76953 C 373.80778 -201.96191 373.74753 -202.14892 373.66211 -202.32422 C 373.62809 -202.39149 373.60338 -202.45767 373.56445 -202.52344 C 373.42877 -202.75097 373.25291 -202.95191 373.04492 -203.11719 L 348.33398 -222.57031 C 348.12426 -222.73434 347.8874 -222.85611 347.63281 -222.93359 C 347.56327 -222.95249 347.49342 -222.97146 347.42188 -222.98242 C 347.22965 -223.02437 347.03299 -223.04026 346.83594 -223.0293 C 346.79928 -223.01796 346.7516 -223.03713 346.70508 -223.0332 z M 349.81055 -215.75586 L 366.08398 -202.94336 L 351.54102 -201.21289 L 349.81055 -215.75586 z "
       style="stroke-width:0.23448949;stroke:none;stroke-opacity:1;fill:#667beb;fill-opacity:1" />
    <path
       style="stroke-width:0.07993423;stroke:none;stroke-opacity:1;fill:#667beb;fill-opacity:1"
       id="path5340"
       d="m 99.221179,167.02775 2.140491,-0.25464 0.25191,2.1175 -2.140491,0.25464 z m 0,0" />
    <path
       style="stroke-width:0.07993423;stroke:none;stroke-opacity:1;fill:#667beb;fill-opacity:1"
       id="path5340-2"
       d="m 98.701949,162.99889 2.140501,-0.25464 0.25191,2.1175 -2.140501,0.25463 z m 0,0" />
    <path
       style="stroke-width:0.07993423;stroke:none;stroke-opacity:1;fill:#667beb;fill-opacity:1"
       id="path5340-3"
       d="m 98.189029,158.76527 2.140501,-0.25464 0.25191,2.11749 -2.140501,0.25464 z m 0,0" />
    <path
       style="stroke-width:0.07993423;stroke:none;stroke-opacity:1;fill:#667beb;fill-opacity:1"
       id="path5340-2-9"
       d="m 97.669819,154.7364 2.14049,-0.25464 0.251911,2.11749 -2.140491,0.25463 z m 0,0" />
    <path
       style="stroke-width:0.07993423;stroke:none;stroke-opacity:1;fill:#667beb;fill-opacity:1"
       id="path5340-0"
       d="m 97.215399,150.46016 2.1405,-0.25464 0.25191,2.11749 -2.1405,0.25464 z m 0,0" />
    <path
       style="stroke-width:0.07993423;stroke:none;stroke-opacity:1;fill:#667beb;fill-opacity:1"
       id="path5340-2-5"
       d="m 96.696189,146.4313 2.14048,-0.25464 0.25191,2.1175 -2.14048,0.25463 z m 0,0" />
    <path
       style="stroke-width:0.07993423;stroke:none;stroke-opacity:1;fill:#667beb;fill-opacity:1"
       id="path5340-3-5"
       d="m 96.183249,142.19767 2.1405,-0.25464 0.25191,2.11749 -2.1405,0.25464 z m 0,0" />
    <path
       style="stroke-width:0.07993423;stroke:none;stroke-opacity:1;fill:#667beb;fill-opacity:1"
       id="path5340-2-9-4"
       d="m 95.664039,138.16881 2.14049,-0.25464 0.25191,2.1175 -2.14049,0.25463 z m 0,0" />
    <path
       style="stroke-width:0.07993423;stroke:none;stroke-opacity:1;fill:#667beb;fill-opacity:1"
       id="path5340-4"
       d="m 95.132826,133.86834 2.140493,-0.25464 0.25191,2.1175 -2.14049,0.25464 z m 0,0" />
    <path
       style="stroke-width:0.07993423;stroke:none;stroke-opacity:1;fill:#667beb;fill-opacity:1"
       id="path5340-2-3"
       d="m 94.613602,129.83947 2.140497,-0.25464 0.25191,2.1175 -2.140497,0.25463 z m 0,0" />
    <path
       style="stroke-width:0.07993423;stroke:none;stroke-opacity:1;fill:#667beb;fill-opacity:1"
       id="path5340-3-8"
       d="m 94.100682,125.60586 2.140497,-0.25464 0.25191,2.11748 -2.140499,0.25464 z m 0,0" />
    <path
       style="stroke-width:0.07993423;stroke:none;stroke-opacity:1;fill:#667beb;fill-opacity:1"
       id="path5340-2-9-2"
       d="m 93.581468,121.57698 2.140491,-0.25463 0.2519,2.11748 -2.140483,0.25463 z m 0,0" />
    <path
       style="stroke-width:0.07993423;stroke:none;stroke-opacity:1;fill:#667beb;fill-opacity:1"
       id="path5340-0-2"
       d="m 93.127048,117.30075 2.140501,-0.25464 0.25191,2.11749 -2.140502,0.25464 z m 0,0" />
    <path
       style="stroke-width:0.07993423;stroke:none;stroke-opacity:1;fill:#667beb;fill-opacity:1"
       id="path5340-00"
       d="m 99.738229,171.06123 2.140501,-0.25464 0.45914,3.85799 -2.14049,0.25463 z" />
    <path
       style="stroke-width:0.07150977;stroke:none;stroke-opacity:1;fill:#667beb;fill-opacity:1"
       id="path946-8"
       d="m 79.822013,181.63495 c -0.0028,0.01 -0.0066,0.0205 -0.0091,0.0311 -0.002,0.009 -0.0033,0.0163 -0.0049,0.0244 -0.002,0.009 -0.004,0.0174 -0.005,0.0263 -0.003,0.0175 -0.0042,0.0347 -0.005,0.0522 l -1.190624,26.28865 c -0.02766,0.61063 0.446547,1.12983 1.057117,1.15749 l 5.714913,0.25883 c 0.61056,0.0276 1.129755,-0.44656 1.157407,-1.05712 l 1.190607,-26.28864 c 9.15e-4,-0.0176 8.12e-4,-0.0352 -2.63e-4,-0.0525 -1.57e-4,-0.009 -0.0012,-0.0179 -0.0023,-0.0267 -8.95e-4,-0.008 -0.0019,-0.0164 -0.0028,-0.0247 -0.0016,-0.0107 -0.0041,-0.0212 -0.0066,-0.0317 -0.0012,-0.006 -0.0023,-0.0126 -0.0039,-0.0187 -0.0027,-0.0111 -0.0062,-0.0217 -0.0098,-0.0323 -0.0014,-0.005 -0.0026,-0.01 -0.0041,-0.0139 l -0.0029,-0.009 c -2.72e-4,-5.3e-4 -3.43e-4,-6.9e-4 -7.01e-4,-0.002 l -3.134112,-6.57435 c -0.07214,-0.20707 -0.263065,-0.34936 -0.482157,-0.35928 -0.219088,-0.01 -0.422152,0.11454 -0.512657,0.31422 l -3.715604,6.26402 c -3.13e-4,5.4e-4 -6.47e-4,9.5e-4 -5.06e-4,0.002 l -0.0032,0.008 c -0.002,0.005 -0.003,0.009 -0.005,0.0134 -0.0047,0.0104 -0.0087,0.0206 -0.01244,0.0313 -0.0027,0.006 -0.0043,0.0121 -0.0059,0.0182 z m -0.14305,26.47138 1.119754,-24.72397 c 0.18513,0.0819 0.387947,0.13188 0.602053,0.14158 0.214087,0.01 0.420604,-0.0217 0.612368,-0.0866 l -1.121373,24.75969 -1.178703,-0.0534 c -0.0196,-4.3e-4 -0.035,-0.0177 -0.0341,-0.0374 z m 2.481395,-28.2703 3.38929,0.15351 1.095589,2.176 c -0.05539,0.2922 -0.31849,0.50777 -0.623952,0.49394 -0.334817,-0.0151 -0.594875,-0.2999 -0.579712,-0.63472 0.01338,-0.29588 -0.215596,-0.54664 -0.511501,-0.56004 -0.295883,-0.0134 -0.546637,0.2156 -0.560033,0.51152 -0.01514,0.33481 -0.29989,0.59486 -0.634714,0.5797 -0.334818,-0.0151 -0.594875,-0.2999 -0.579703,-0.63472 0.01339,-0.29587 -0.215596,-0.54664 -0.51151,-0.56003 -0.295884,-0.0134 -0.546637,0.21559 -0.560035,0.5115 -0.01514,0.33482 -0.299888,0.59487 -0.63471,0.57971 -0.305527,-0.0138 -0.548063,-0.25231 -0.576741,-0.54832 z m 2.138741,3.70487 -1.121364,24.75969 -1.214419,-0.055 1.121368,-24.75969 c 0.185129,0.0819 0.387944,0.13188 0.602046,0.14158 0.214088,0.01 0.420604,-0.0217 0.612369,-0.0866 z m 1.12887,24.86161 -1.178689,-0.0534 1.121364,-24.7597 c 0.18513,0.0819 0.387946,0.1319 0.602036,0.14159 0.214095,0.01 0.420615,-0.0217 0.612379,-0.0866 l -1.119751,24.72397 c -4.25e-4,0.0196 -0.0176,0.0351 -0.03738,0.0341 z" />
  </g>
</svg>
