<svg version="1" xmlns="http://www.w3.org/2000/svg" width="346.667" height="346.667" viewBox="0 0 260.000000 260.000000"><path d="M19.2 44.2c.3.7 10.5 30 22.8 65L64.4 173h20.2l20.9-58.8c11.4-32.3 21.9-61.5 23.2-65L131 43h-18.5L94.1 98.2c-10.1 30.4-18.6 55.6-19 56-.4.5-9-24.4-19.1-55.2L37.6 43h-9.4c-7.1 0-9.3.3-9 1.2zM173.5 92.9c-19.8 4.9-34.1 19.8-40.7 42.6-2 6.9-2.3 10.2-2.3 23.5.1 17.8 1.3 23.7 7.5 36.8 9.3 19.5 27.4 30.2 51 30.2 24.5 0 43.6-11.8 50.9-31.4 3.7-10.1 4.1-9.2-4.4-11.1-8.6-1.9-10.5-1.6-10.5 1.7 0 3.7-4.4 12-8.6 16.1-14.6 14.5-41.7 13.8-55.9-1.4-9.3-9.9-13.7-23.3-13.7-41.4 0-23.8 7.8-40.2 23-48.3 16.8-9 39.6-4.7 49.1 9.2 1.7 2.4 3.1 4.7 3.1 4.9 0 .3.7 2 1.5 4l1.5 3.5 8-2.1c4.4-1.2 8-2.5 8-3s-1.4-3.9-3.2-7.6c-4-8.4-14-18.5-22.1-22.4-11.8-5.7-28.6-7.2-42.2-3.8z"/></svg>