<?xml version="1.0" standalone="no"?>
<!DOCTYPE svg PUBLIC "-//W3C//DTD SVG 20010904//EN"
 "http://www.w3.org/TR/2001/REC-SVG-20010904/DTD/svg10.dtd">
<svg version="1.0" xmlns="http://www.w3.org/2000/svg"
 width="111.000000pt" height="92.000000pt" viewBox="0 0 111.000000 92.000000"
 preserveAspectRatio="xMidYMid meet">
<metadata>
Created by potrace 1.10, written by Peter Selinger 2001-2011
</metadata>
<g transform="translate(0.000000,92.000000) scale(0.050000,-0.050000)"
fill="#000000" stroke="none">
<path d="M1300 1310 l-509 -510 -196 195 -195 194 -195 -194 -195 -195 390
-390 c389 -389 389 -390 429 -350 40 40 40 40 -115 196 l-156 156 42 38 c41
37 43 36 197 -117 l155 -155 39 43 39 43 -160 146 -160 147 42 43 41 42 153
-156 153 -156 549 548 c545 544 549 549 515 594 l-33 46 -511 -510 -511 -510
-38 42 c-38 42 -37 43 470 550 484 485 507 511 469 539 -21 16 -44 30 -51 30
-6 1 -234 -224 -506 -499 -272 -275 -502 -500 -511 -500 -26 0 -68 60 -53 75
7 8 235 238 507 510 l495 494 -41 40 -40 41 -509 -510z"/>
</g>
</svg>
