<?xml version="1.0" encoding="UTF-8" standalone="no"?>
<!-- Generator: Adobe Illustrator 19.1.0, SVG Export Plug-In . SVG Version: 6.00 Build 0)  -->

<svg
   xmlns:dc="http://purl.org/dc/elements/1.1/"
   xmlns:cc="http://creativecommons.org/ns#"
   xmlns:rdf="http://www.w3.org/1999/02/22-rdf-syntax-ns#"
   xmlns:svg="http://www.w3.org/2000/svg"
   xmlns="http://www.w3.org/2000/svg"
   xmlns:sodipodi="http://sodipodi.sourceforge.net/DTD/sodipodi-0.dtd"
   xmlns:inkscape="http://www.inkscape.org/namespaces/inkscape"
   version="1.1"
   id="Capa_1"
   x="0px"
   y="0px"
   viewBox="0 0 13 9.1390783"
   xml:space="preserve"
   inkscape:version="0.91 r13725"
   sodipodi:docname="left-arrow.svg"
   width="13"
   height="9.1390781"><metadata
     id="metadata4269"><rdf:RDF><cc:Work
         rdf:about=""><dc:format>image/svg+xml</dc:format><dc:type
           rdf:resource="http://purl.org/dc/dcmitype/StillImage" /><dc:title></dc:title></cc:Work></rdf:RDF></metadata><defs
     id="defs4267" /><sodipodi:namedview
     pagecolor="#ffffff"
     bordercolor="#666666"
     borderopacity="1"
     objecttolerance="10"
     gridtolerance="10"
     guidetolerance="10"
     inkscape:pageopacity="0"
     inkscape:pageshadow="2"
     inkscape:window-width="1443"
     inkscape:window-height="778"
     id="namedview4265"
     showgrid="false"
     fit-margin-top="0"
     fit-margin-left="0"
     fit-margin-right="0"
     fit-margin-bottom="0"
     inkscape:showpageshadow="false"
     showborder="true"
     borderlayer="true"
     inkscape:zoom="20.734108"
     inkscape:cx="9.9601847"
     inkscape:cy="1.9085584"
     inkscape:window-x="0"
     inkscape:window-y="0"
     inkscape:window-maximized="0"
     inkscape:current-layer="Capa_1" /><path
     style="fill:#5b524a;fill-opacity:1"
     d="m 4.2406671,0.13745143 c 0.1832686,-0.18326858 0.4717929,-0.18326858 0.6550615,0 0.1770772,0.17707719 0.1770772,0.47179292 0,0.64845728 L 1.574191,4.1074464 l 10.96062,0 C 12.790314,4.1074464 13,4.3105279 13,4.5660309 13,4.8215337 12.790314,5.0312194 12.534811,5.0312194 l -10.96062,0 3.3215376,3.3153467 c 0.1770772,0.1832679 0.1770772,0.4783969 0,0.6550608 -0.1832686,0.1832689 -0.4717929,0.1832689 -0.6550615,0 L 0.13280785,4.893768 c -0.17707713,-0.1770771 -0.17707713,-0.4717929 0,-0.6484573 L 4.2406671,0.13745143 Z"
     id="path4233"
     inkscape:connector-curvature="0" /><g
     id="g4235"
     transform="translate(7.499975e-4,-4.6581029)" /><g
     id="g4237"
     transform="translate(7.499975e-4,-4.6581029)" /><g
     id="g4239"
     transform="translate(7.499975e-4,-4.6581029)" /><g
     id="g4241"
     transform="translate(7.499975e-4,-4.6581029)" /><g
     id="g4243"
     transform="translate(7.499975e-4,-4.6581029)" /><g
     id="g4245"
     transform="translate(7.499975e-4,-4.6581029)" /><g
     id="g4247"
     transform="translate(7.499975e-4,-4.6581029)" /><g
     id="g4249"
     transform="translate(7.499975e-4,-4.6581029)" /><g
     id="g4251"
     transform="translate(7.499975e-4,-4.6581029)" /><g
     id="g4253"
     transform="translate(7.499975e-4,-4.6581029)" /><g
     id="g4255"
     transform="translate(7.499975e-4,-4.6581029)" /><g
     id="g4257"
     transform="translate(7.499975e-4,-4.6581029)" /><g
     id="g4259"
     transform="translate(7.499975e-4,-4.6581029)" /><g
     id="g4261"
     transform="translate(7.499975e-4,-4.6581029)" /><g
     id="g4263"
     transform="translate(7.499975e-4,-4.6581029)" /></svg>