<?xml version="1.0" encoding="UTF-8" standalone="no"?>
<!-- Created with Inkscape (http://www.inkscape.org/) -->

<svg
   xmlns:dc="http://purl.org/dc/elements/1.1/"
   xmlns:cc="http://creativecommons.org/ns#"
   xmlns:rdf="http://www.w3.org/1999/02/22-rdf-syntax-ns#"
   xmlns:svg="http://www.w3.org/2000/svg"
   xmlns="http://www.w3.org/2000/svg"
   xmlns:sodipodi="http://sodipodi.sourceforge.net/DTD/sodipodi-0.dtd"
   xmlns:inkscape="http://www.inkscape.org/namespaces/inkscape"
   id="svg4155"
   version="1.1"
   inkscape:version="0.91 r13725"
   xml:space="preserve"
   width="1002.9999"
   height="7.4304872"
   viewBox="0 0 1002.9999 7.4304872"
   sodipodi:docname="lineTop.svg"><metadata
     id="metadata4161"><rdf:RDF><cc:Work
         rdf:about=""><dc:format>image/svg+xml</dc:format><dc:type
           rdf:resource="http://purl.org/dc/dcmitype/StillImage" /><dc:title></dc:title></cc:Work></rdf:RDF></metadata><defs
     id="defs4159" /><sodipodi:namedview
     pagecolor="#ffffff"
     bordercolor="#666666"
     borderopacity="1"
     objecttolerance="10"
     gridtolerance="10"
     guidetolerance="10"
     inkscape:pageopacity="0"
     inkscape:pageshadow="2"
     inkscape:window-width="1326"
     inkscape:window-height="705"
     id="namedview4157"
     showgrid="false"
     fit-margin-left="1.5"
     fit-margin-right="1.5"
     fit-margin-bottom="1.5"
     fit-margin-top="1.5"
     inkscape:zoom="0.40649709"
     inkscape:cx="294.13371"
     inkscape:cy="-240.68319"
     inkscape:window-x="0"
     inkscape:window-y="0"
     inkscape:window-maximized="0"
     inkscape:current-layer="g4163"><inkscape:grid
       type="xygrid"
       id="grid4190"
       originx="-1116.5424"
       originy="-2108.419" /></sodipodi:namedview><g
     id="g4163"
     inkscape:groupmode="layer"
     inkscape:label="Doc Mar 11, 2019, 15_50"
     transform="matrix(1.25,0,0,-1.25,-558.27116,1061.7349)"><g
       id="g4165" /><path
       style="fill:#5b524a;fill-opacity:1"
       d="m 1243.007,845.30942 c -0.1033,0.10268 -5.2607,0.21965 -11.4611,0.25996 -6.1999,0.0403 -15.653,0.10834 -21.0061,0.15121 -5.3527,0.0429 -11.8482,-0.0269 -14.4336,-0.15514 -2.5854,-0.1282 -4.7008,-0.12085 -4.7013,0.0163 0,0.13717 -17.9272,0.11414 -39.8375,-0.0512 -21.9103,-0.16532 -40.0596,-0.29026 -40.3318,-0.27765 -0.2723,0.0126 -5.6176,0.0731 -11.8776,0.13452 -6.2602,0.0614 -11.9023,-0.21916 -12.5374,-0.19819 -1.4018,0.0463 -39.3957,-0.14017 -47.584,-0.32117 -3.2175,-0.0712 -5.7745,-0.004 -5.6803,0.14883 0.094,0.15304 -13.3321,-0.12359 -29.8357,-0.18954 -16.50355,-0.0659 -30.13281,-0.0424 -30.28728,0.0523 -0.15437,0.0947 -3.24709,0.0956 -6.87365,0.002 -3.62541,-0.0937 -7.48358,-0.14128 -8.57208,-0.1057 -1.93147,0.0631 -12.16828,0.0575 -22.10463,-0.0121 -2.72143,-0.0191 -5.69149,-0.0374 -6.59794,-0.0407 -0.90724,-0.003 -2.02052,-0.035 -2.47363,-0.0703 -0.4535,-0.0353 -3.94236,0.0324 -7.75367,0.15051 -7.15313,0.22172 -11.57598,0.26743 -16.99139,0.17561 -1.72346,-0.0292 -4.98959,-0.0391 -7.25788,-0.0217 -2.26829,0.0172 -10.43364,-0.0299 -18.14535,-0.10465 -7.712,-0.0748 -24.04257,-0.0863 -36.29112,-0.0255 -31.09313,0.15419 -49.41617,0.10982 -49.78627,-0.12055 -0.17324,-0.10783 -0.40963,-0.044 -0.5253,0.14186 -0.1414,0.22718 -10.15479,0.30269 -30.56179,0.23042 -16.69334,-0.0591 -30.5031,-0.0145 -30.68842,0.0992 -0.18528,0.1137 -12.09028,0.13709 -26.45553,0.052 -14.36537,-0.0851 -28.12306,-0.1249 -30.57284,-0.0884 -2.45027,0.0365 -9.27886,0.0853 -15.17671,0.10836 -5.89732,0.0231 -18.07174,0.1133 -27.05415,0.20042 -8.98285,0.0871 -31.02966,0.20097 -48.99398,0.25294 -18.61659,0.0539 -32.7104,0.22091 -32.77403,0.38816 -0.0614,0.16158 -0.24237,0.21237 -0.40221,0.11287 -0.27956,-0.17402 -55.5855,-0.37176 -58.78999,-0.2102 -0.95071,0.0479 -1.56938,-0.061 -1.57084,-0.2768 -0.002,-0.20672 -0.11493,-0.1822 -0.26883,0.0585 -0.20775,0.32493 -4.2708,0.40148 -18.82823,0.35472 -10.2097,-0.0327 -18.67307,-0.12777 -18.80715,-0.21126 -0.38771,-0.24134 -1.40418,1.12617 -1.28987,1.73405 0.0965,0.50963 1.74113,0.54995 21.68142,0.53087 11.86738,-0.0113 21.88687,-0.0846 22.26563,-0.16295 0.37872,-0.0784 13.3824,-0.18764 28.89709,-0.24285 15.51469,-0.0552 30.36144,-0.16058 32.99282,-0.23412 2.63127,-0.0736 11.16818,-0.11578 18.97068,-0.0938 19.26217,0.0541 29.56253,0.0495 34.47665,-0.0155 2.26837,-0.03 16.74387,-0.12378 32.16791,-0.20838 15.42401,-0.0846 33.38863,-0.22756 39.92131,-0.31753 6.53268,-0.0901 12.17452,-0.15249 12.53736,-0.13852 2.81691,0.10844 42.01138,0.0887 57.57116,-0.029 10.61592,-0.0803 23.0864,-0.0596 27.71318,0.046 4.62654,0.10559 9.45157,0.11101 10.72218,0.0121 1.27062,-0.099 17.11914,-0.1099 35.21906,-0.0243 18.09995,0.0856 32.90939,0.0319 32.90988,-0.11935 0,-0.15124 0.15813,-0.27448 0.35028,-0.27386 0.19218,6.6e-4 0.2643,0.1378 0.16031,0.30486 -0.10756,0.17277 0.34377,0.15845 1.04676,-0.0332 0.70728,-0.19287 2.43698,-0.24621 4.04596,-0.12475 2.57768,0.1947 9.61896,0.28362 23.23423,0.29344 2.88616,0.002 5.41024,-0.0483 5.60786,0.10061 0.19762,0.14893 1.77014,0.22938 3.49383,0.17877 1.7237,-0.0506 6.32589,-0.0674 10.22715,-0.0374 8.9716,0.069 11.78108,0.006 12.66164,-0.28214 1.29212,-0.42326 19.28043,-0.48031 20.12974,-0.0223 0.63582,0.34291 0.94647,0.32384 1.79169,-0.11005 0.89836,-0.4608 3.34646,-0.004 20.08932,-0.0142 16.92201,-0.01 39.27293,0.0839 70.69776,0.29627 5.5343,0.0374 47.3265,0.1587 92.8716,0.26955 45.5451,0.11085 87.3652,0.25302 92.9334,0.31594 5.5687,0.0629 10.3078,0.002 10.5311,-0.13558 0.2808,-0.17232 0.3434,-0.0849 0.2014,0.28156 -0.1446,0.37324 -0.063,0.47733 0.2727,0.34962 0.2633,-0.10005 0.4791,-0.28268 0.4794,-0.40584 0,-0.12315 0.3348,-0.24572 0.7432,-0.27236 2.1632,-0.14112 14.9338,-0.008 16.9848,0.17649 2.5335,0.22841 3.387,-0.0716 3.3906,-1.1915 0,-0.96157 -0.9848,-1.13838 -2.8544,-1.16884 -0.9726,-0.0158 -1.8529,0.0553 -1.9565,0.15798 z"
       id="path4173"
       inkscape:connector-curvature="0"
       sodipodi:nodetypes="cssscscscccscsssccsscssccscsssssccscssccscssssscssscssscscscsscccsssscccscssccc" /></g></svg>