<?xml version="1.0" encoding="UTF-8" standalone="no"?>
<!-- Created with Inkscape (http://www.inkscape.org/) -->

<svg
   xmlns:dc="http://purl.org/dc/elements/1.1/"
   xmlns:cc="http://creativecommons.org/ns#"
   xmlns:rdf="http://www.w3.org/1999/02/22-rdf-syntax-ns#"
   xmlns:svg="http://www.w3.org/2000/svg"
   xmlns="http://www.w3.org/2000/svg"
   xmlns:sodipodi="http://sodipodi.sourceforge.net/DTD/sodipodi-0.dtd"
   xmlns:inkscape="http://www.inkscape.org/namespaces/inkscape"
   width="285.22223mm"
   height="4.3851628mm"
   viewBox="0 0 1010.6299 15.537978"
   id="svg4192"
   version="1.1"
   inkscape:version="0.91 r13725"
   sodipodi:docname="lineBottom.svg">
  <defs
     id="defs4194" />
  <sodipodi:namedview
     id="base"
     pagecolor="#ffffff"
     bordercolor="#666666"
     borderopacity="1.0"
     inkscape:pageopacity="0.0"
     inkscape:pageshadow="2"
     inkscape:zoom="3.959798"
     inkscape:cx="12.582127"
     inkscape:cy="-30.263247"
     inkscape:document-units="px"
     inkscape:current-layer="layer1"
     showgrid="false"
     fit-margin-top="1.5"
     fit-margin-left="1.5"
     fit-margin-right="1.5"
     fit-margin-bottom="1.5"
     inkscape:window-width="1440"
     inkscape:window-height="855"
     inkscape:window-x="0"
     inkscape:window-y="1"
     inkscape:window-maximized="1">
    <inkscape:grid
       type="xygrid"
       id="grid4740"
       originx="1088.878"
       originy="-550.39161" />
  </sodipodi:namedview>
  <metadata
     id="metadata4197">
    <rdf:RDF>
      <cc:Work
         rdf:about="">
        <dc:format>image/svg+xml</dc:format>
        <dc:type
           rdf:resource="http://purl.org/dc/dcmitype/StillImage" />
        <dc:title />
      </cc:Work>
    </rdf:RDF>
  </metadata>
  <g
     inkscape:label="Layer 1"
     inkscape:groupmode="layer"
     id="layer1"
     transform="translate(1088.878,-486.43256)">
    <path
       style="fill:#5b524a;fill-opacity:1"
       d="m -1076.5124,496.51382 c -0.1623,-0.16225 -1.5824,-0.30858 -3.1567,-0.3252 -2.3102,-0.0245 -2.9733,-0.18119 -3.4343,-0.81266 -1.2739,-1.74215 -0.9305,-1.78497 14.9621,-1.86508 17.2384,-0.0869 17.2476,-0.0872 17.6464,-0.48617 0.1623,-0.16238 0.618,-0.1225 1.0125,0.0887 0.3946,0.21116 3.9951,0.32285 8.0009,0.24827 4.0058,-0.0746 7.2838,-0.0215 7.2824,0.11787 -10e-5,0.13946 3.2996,0.18949 7.3324,0.11124 8.0723,-0.15667 78.76661,-0.40967 108.12182,-0.38697 10.22347,0.008 22.21291,0 26.6432,-0.0169 12.90164,-0.0499 256.81936,-0.55607 260.23557,-0.54024 7.2717,0.0342 44.71994,0.01 57.83014,-0.0378 7.8378,-0.0284 21.22154,-0.0417 29.74121,-0.0294 8.51983,0.0122 81.88746,-0.003 163.03967,-0.0317 110.67051,-0.0406 147.66828,-0.17289 148.02498,-0.52952 0.3293,-0.32927 0.87555,-0.35693 1.77651,-0.0899 0.71534,0.21209 2.78734,0.39387 4.60562,0.40395 1.81689,0.0102 34.59432,0.0506 72.83725,0.0899 68.020996,0.07 69.545332,0.0888 70.112067,0.86366 0.815868,1.11569 0.14018,1.74062 -1.982681,1.8345 -5.871279,0.25928 -8.577762,0.23172 -8.577762,-0.0874 0,-0.20337 -1.043718,-0.22224 -2.374935,-0.0429 -1.306333,0.17594 -2.746865,0.30389 -3.201149,0.28436 -0.78939,-0.034 -11.40958,-0.0284 -46.47067,0.0238 -8.74623,0.0129 -21.20093,-0.009 -27.67575,-0.0479 -16.75048,-0.10185 -55.865,-0.1299 -79.10333,-0.0567 -21.03411,0.0662 -25.91616,0.0694 -66.91776,0.0436 -14.31305,-0.009 -27.51072,0.0145 -29.32814,0.0525 -2.89114,0.0603 -12.12797,-0.003 -14.4575,-0.0978 -0.45438,-0.0185 -7.16657,-0.095 -14.91521,-0.16966 -7.74885,-0.0747 -14.26987,-0.24754 -14.49091,-0.38416 -0.22108,-0.13661 -1.22336,-0.18591 -2.22667,-0.10954 -1.00403,0.0763 -9.26114,0.12214 -18.34827,0.10178 -9.08723,-0.0205 -25.90992,0 -37.38302,0.0462 -11.4729,0.0458 -26.62258,0.0677 -33.66533,0.0486 -17.2774,-0.0468 -17.0404,-0.0467 -19.62104,-0.007 -1.24953,0.0192 -2.55014,0.0248 -2.89114,0.0119 -0.34077,-0.0129 -11.95819,0.0826 -25.81709,0.21182 -13.85852,0.12921 -27.05618,0.19408 -29.32814,0.14415 -2.27243,-0.05 -7.0452,-0.058 -10.60896,-0.0179 -3.56237,0.0401 -12.85719,0.11041 -20.65355,0.15628 -7.95508,0.0468 -14.39442,-7.7e-4 -14.67412,0.21462 -0.27404,0.2111 -0.6934,0.26321 -0.93189,0.11583 -0.62354,-0.38538 -24.85175,-0.37196 -25.79716,0.0142 -0.48349,0.19755 -0.69446,0.16738 -0.54298,-0.0777 0.24907,-0.40312 -39.42465,-0.36116 -58.04555,0.0614 -5.7769,0.13109 -8.98482,0.0582 -8.98482,-0.20412 0,-0.36268 -26.57229,-0.21169 -77.8641,-0.045 -22.66487,0.0737 -53.35445,0.0109 -55.55816,-0.11395 -1.24958,-0.0707 -26.99431,0.0119 -57.21052,0.18387 -52.02951,0.29583 -78.18289,0.34272 -80.96216,0.14524 -0.68156,-0.0485 -10.16148,0.0553 -21.06671,0.23049 -28.29256,0.45458 -44.40526,0.50963 -44.40526,0.15168 0,-0.17035 -4.6932,-0.21024 -10.4297,-0.0887 -5.7365,0.12157 -13.7203,0.29077 -17.7417,0.37596 -4.022,0.0852 -7.4805,0.25948 -7.6881,0.38723 -0.2068,0.12779 -0.5087,0.0996 -0.6709,-0.0626 z"
       id="path4173"
       inkscape:connector-curvature="0"
       sodipodi:nodetypes="cccsccscsscccsccccsccsccccssccsccccsccsccsccccssscscscssccc" />
  </g>
</svg>
