<?xml version="1.0" encoding="UTF-8" standalone="no"?>
<!-- Created with Inkscape (http://www.inkscape.org/) -->

<svg
   xmlns:dc="http://purl.org/dc/elements/1.1/"
   xmlns:cc="http://creativecommons.org/ns#"
   xmlns:rdf="http://www.w3.org/1999/02/22-rdf-syntax-ns#"
   xmlns:svg="http://www.w3.org/2000/svg"
   xmlns="http://www.w3.org/2000/svg"
   xmlns:sodipodi="http://sodipodi.sourceforge.net/DTD/sodipodi-0.dtd"
   xmlns:inkscape="http://www.inkscape.org/namespaces/inkscape"
   width="650.70081"
   height="500.51968"
   viewBox="0 0 172.16458 132.42917"
   version="1.1"
   id="svg4699"
   sodipodi:docname="paperAndPencils.svg"
   inkscape:version="0.92.2 5c3e80d, 2017-08-06">
  <defs
     id="defs4693" />
  <sodipodi:namedview
     id="base"
     pagecolor="#ffffff"
     bordercolor="#666666"
     borderopacity="1.0"
     inkscape:pageopacity="0.0"
     inkscape:pageshadow="2"
     inkscape:zoom="1.4"
     inkscape:cx="288.82193"
     inkscape:cy="401.36582"
     inkscape:document-units="mm"
     inkscape:current-layer="layer1"
     showgrid="false"
     units="px"
     inkscape:window-width="1440"
     inkscape:window-height="855"
     inkscape:window-x="0"
     inkscape:window-y="1"
     inkscape:window-maximized="1" />
  <metadata
     id="metadata4696">
    <rdf:RDF>
      <cc:Work
         rdf:about="">
        <dc:format>image/svg+xml</dc:format>
        <dc:type
           rdf:resource="http://purl.org/dc/dcmitype/StillImage" />
        <dc:title />
      </cc:Work>
    </rdf:RDF>
  </metadata>
  <g
     inkscape:label="Layer 1"
     inkscape:groupmode="layer"
     id="layer1"
     transform="translate(0,-164.57082)">
    <path
       d="m 128.02362,192.10558 c 0.002,0.0105 0.003,0.0214 0.005,0.032 0.002,0.009 0.004,0.0162 0.006,0.0243 0.002,0.009 0.004,0.0175 0.006,0.026 0.005,0.0171 0.0108,0.0333 0.0173,0.0495 l 9.91754,24.37527 c 0.23037,0.56619 0.87831,0.83933 1.44443,0.60901 l 5.29896,-2.15599 c 0.56613,-0.23034 0.83931,-0.87827 0.60896,-1.4444 l -9.91754,-24.37525 c -0.007,-0.0161 -0.014,-0.0323 -0.0222,-0.0475 -0.004,-0.008 -0.008,-0.0161 -0.0135,-0.023 -0.004,-0.007 -0.009,-0.0138 -0.0129,-0.0212 -0.006,-0.009 -0.0129,-0.0172 -0.0191,-0.0263 -0.004,-0.005 -0.008,-0.0102 -0.0111,-0.0157 -0.007,-0.009 -0.0146,-0.0173 -0.0225,-0.0252 -0.003,-0.004 -0.006,-0.008 -0.01,-0.0107 l -0.006,-0.007 c -4.8e-4,-3.7e-4 -6.2e-4,-5e-4 -0.001,-0.001 l -5.59721,-4.66005 c -0.15212,-0.15793 -0.38511,-0.20724 -0.58824,-0.12459 -0.20315,0.0827 -0.3355,0.28066 -0.33418,0.49988 l -0.75396,7.24398 c -6e-5,6.3e-4 -1.8e-4,0.001 9e-4,0.002 l 7.7e-4,0.008 c -2.5e-4,0.005 9e-4,0.01 0.001,0.0143 -3.8e-4,0.0114 6.9e-4,0.0223 0.002,0.0336 -1.3e-4,0.006 10e-4,0.0127 0.002,0.019 z m 10.94546,24.10293 -9.32725,-22.92446 c 0.2024,-0.003 0.40753,-0.0425 0.60604,-0.12329 0.19851,-0.0808 0.37295,-0.1957 0.51998,-0.33485 l 9.34073,22.95758 -1.09291,0.44466 c -0.0181,0.008 -0.0393,-0.001 -0.0466,-0.0197 z m -9.57428,-26.71517 3.14262,-1.27864 1.90554,1.51796 c 0.0719,0.28858 -0.0768,0.59444 -0.36006,0.70969 -0.31044,0.12634 -0.66578,-0.0235 -0.79209,-0.33395 -0.11164,-0.27433 -0.42455,-0.40627 -0.6989,-0.29465 -0.27433,0.11164 -0.40627,0.42455 -0.29464,0.69891 0.12632,0.31043 -0.0235,0.66577 -0.33395,0.79209 -0.31045,0.12633 -0.66578,-0.0235 -0.79209,-0.33395 -0.11164,-0.27433 -0.42455,-0.40627 -0.69891,-0.29465 -0.27433,0.11163 -0.40626,0.42455 -0.29465,0.6989 0.12633,0.31043 -0.0235,0.66577 -0.33394,0.7921 -0.28329,0.11525 -0.60336,1.2e-4 -0.75325,-0.25673 z m 3.49264,2.47017 9.34073,22.95759 -1.12602,0.45815 -9.34073,-22.95759 c 0.20241,-0.003 0.40753,-0.0425 0.60605,-0.1233 0.1985,-0.0808 0.37294,-0.1957 0.51997,-0.33485 z m 11.42719,22.10867 -1.09291,0.44468 -9.34072,-22.9576 c 0.20242,-0.003 0.40754,-0.0425 0.60604,-0.12329 0.19852,-0.0808 0.37296,-0.1957 0.51999,-0.33486 l 9.32725,22.92448 c 0.008,0.0181 -0.001,0.0392 -0.0197,0.0466 z"
       id="path946"
       inkscape:connector-curvature="0"
       sodipodi:nodetypes="scccssssssccccccccccscccccccscsccsscccsssssssssccccccscsccscssccc"
       style="fill:#577fd6;fill-opacity:1;stroke:none;stroke-width:0.07150977;stroke-opacity:1" />
    <g
       id="g6266"
       transform="matrix(1.0518666,0,0,1.0518666,5.6795853,8.6203552)">
      <path
         style="fill:#577fd6;fill-opacity:1;stroke:none;stroke-width:0.23448949;stroke-opacity:1"
         d="m 342.70508,-159.0332 -435.572268,51.77343 c -1.219748,0.14514 -2.090555,1.25102 -1.945312,2.47071 l -0.002,0.002 32.664062,274.31055 c 0.145248,1.21969 1.252924,2.09029 2.472657,1.94531 l 355.953121,-42.31445 26.73438,-3.17774 -0.42383,-4.42773 -26.58789,3.16015 -353.996094,42.08204 -32.136719,-269.89454 431.156243,-51.24804 2.36719,19.87304 c 0.14514,1.21871 1.62165,2.83358 2.46875,1.94532 l 19.875,-2.36719 29.50781,247.8125 -45.69335,5.43164 0.42382,4.42773 48.00391,-5.70703 c 1.21882,-0.14513 2.09056,-1.25101 1.94531,-2.4707 l -30.03515,-252.22656 c -0.008,-0.0491 -0.0339,-0.0887 -0.043,-0.13672 -0.034,-0.19238 -0.0943,-0.37939 -0.17969,-0.55469 -0.034,-0.0673 -0.0587,-0.13345 -0.0977,-0.19922 -0.13568,-0.22753 -0.31143,-0.42847 -0.51953,-0.59375 l -24.71094,-19.45312 c -0.20976,-0.16403 -0.44654,-0.2858 -0.70117,-0.36328 -0.0695,-0.0189 -0.1395,-0.0379 -0.21093,-0.0488 -0.19238,-0.042 -0.38888,-0.0578 -0.58594,-0.0469 -0.0378,0.0113 -0.0844,-0.008 -0.13086,-0.004 z m 3.10547,7.27734 16.27343,12.8125 -14.54296,1.73047 z"
         transform="matrix(0.26458333,0,0,0.26458333,7.4083337,151.34165)"
         id="path5320"
         inkscape:connector-curvature="0" />
      <path
         style="fill:#577fd6;fill-opacity:1;stroke:none;stroke-width:0.07993423;stroke-opacity:1"
         inkscape:connector-curvature="0"
         id="path5340"
         d="m 105.57118,170.73191 2.1405,-0.25464 0.25191,2.1175 -2.14049,0.25464 z m 0,0" />
      <path
         style="fill:#577fd6;fill-opacity:1;stroke:none;stroke-width:0.07993423;stroke-opacity:1"
         inkscape:connector-curvature="0"
         id="path5340-2"
         d="m 105.05195,166.70305 2.14051,-0.25464 0.25191,2.1175 -2.14051,0.25463 z m 0,0" />
      <path
         style="fill:#577fd6;fill-opacity:1;stroke:none;stroke-width:0.07993423;stroke-opacity:1"
         inkscape:connector-curvature="0"
         id="path5340-3"
         d="m 104.53903,162.46943 2.14051,-0.25464 0.25191,2.11749 -2.14051,0.25464 z m 0,0" />
      <path
         style="fill:#577fd6;fill-opacity:1;stroke:none;stroke-width:0.07993423;stroke-opacity:1"
         inkscape:connector-curvature="0"
         id="path5340-2-9"
         d="m 104.01982,158.44056 2.1405,-0.25464 0.25191,2.11749 -2.1405,0.25463 z m 0,0" />
      <path
         style="fill:#577fd6;fill-opacity:1;stroke:none;stroke-width:0.07993423;stroke-opacity:1"
         inkscape:connector-curvature="0"
         id="path5340-0"
         d="m 103.5654,154.16432 2.1405,-0.25464 0.25192,2.11749 -2.14051,0.25464 z m 0,0" />
      <path
         style="fill:#577fd6;fill-opacity:1;stroke:none;stroke-width:0.07993423;stroke-opacity:1"
         inkscape:connector-curvature="0"
         id="path5340-2-5"
         d="m 103.04619,150.13546 2.14048,-0.25464 0.25191,2.1175 -2.14048,0.25463 z m 0,0" />
      <path
         style="fill:#577fd6;fill-opacity:1;stroke:none;stroke-width:0.07993423;stroke-opacity:1"
         inkscape:connector-curvature="0"
         id="path5340-3-5"
         d="m 102.53325,145.90183 2.1405,-0.25464 0.25191,2.11749 -2.1405,0.25464 z m 0,0" />
      <path
         style="fill:#577fd6;fill-opacity:1;stroke:none;stroke-width:0.07993423;stroke-opacity:1"
         inkscape:connector-curvature="0"
         id="path5340-2-9-4"
         d="m 102.01404,141.87297 2.14049,-0.25464 0.25191,2.1175 -2.14049,0.25463 z m 0,0" />
      <path
         style="fill:#577fd6;fill-opacity:1;stroke:none;stroke-width:0.07993423;stroke-opacity:1"
         inkscape:connector-curvature="0"
         id="path5340-4"
         d="m 101.48283,137.5725 2.14049,-0.25464 0.25191,2.1175 -2.14049,0.25464 z m 0,0" />
      <path
         style="fill:#577fd6;fill-opacity:1;stroke:none;stroke-width:0.07993423;stroke-opacity:1"
         inkscape:connector-curvature="0"
         id="path5340-2-3"
         d="m 100.9636,133.54363 2.1405,-0.25464 0.25191,2.1175 -2.1405,0.25463 z m 0,0" />
      <path
         style="fill:#577fd6;fill-opacity:1;stroke:none;stroke-width:0.07993423;stroke-opacity:1"
         inkscape:connector-curvature="0"
         id="path5340-3-8"
         d="m 100.45068,129.31002 2.1405,-0.25464 0.25191,2.11748 -2.1405,0.25464 z m 0,0" />
      <path
         sodipodi:nodetypes="ccccc"
         style="fill:#577fd6;fill-opacity:1;stroke:none;stroke-width:0.07993423;stroke-opacity:1"
         inkscape:connector-curvature="0"
         id="path5340-00"
         d="m 106.08824,174.76539 2.1405,-0.25464 0.45914,3.85799 -2.14049,0.25463 z" />
    </g>
    <path
       d="m 103.90179,183.22245 c -0.003,0.01 -0.007,0.0205 -0.009,0.0311 -0.002,0.009 -0.003,0.0163 -0.005,0.0244 -0.002,0.009 -0.004,0.0174 -0.005,0.0263 -0.003,0.0175 -0.004,0.0347 -0.005,0.0522 l -1.19063,26.28865 c -0.0277,0.61063 0.44655,1.12983 1.05712,1.15749 l 5.71492,0.25883 c 0.61056,0.0276 1.12975,-0.44656 1.1574,-1.05712 l 1.19061,-26.28864 c 9.2e-4,-0.0176 8.1e-4,-0.0352 -2.6e-4,-0.0525 -1.6e-4,-0.009 -0.001,-0.0179 -0.002,-0.0267 -9e-4,-0.008 -0.002,-0.0164 -0.003,-0.0247 -0.002,-0.0107 -0.004,-0.0212 -0.007,-0.0317 -0.001,-0.006 -0.002,-0.0126 -0.004,-0.0187 -0.003,-0.0111 -0.006,-0.0217 -0.01,-0.0323 -0.001,-0.005 -0.003,-0.01 -0.004,-0.0139 l -0.003,-0.009 c -2.7e-4,-5.3e-4 -3.4e-4,-6.9e-4 -7e-4,-0.002 l -3.13412,-6.57435 c -0.0721,-0.20707 -0.26306,-0.34936 -0.48215,-0.35928 -0.21909,-0.01 -0.42216,0.11454 -0.51266,0.31422 l -3.71561,6.26402 c -3.1e-4,5.4e-4 -6.4e-4,9.5e-4 -5e-4,0.002 l -0.003,0.008 c -0.002,0.005 -0.003,0.009 -0.005,0.0134 -0.005,0.0104 -0.009,0.0206 -0.0124,0.0313 -0.003,0.006 -0.004,0.0121 -0.006,0.0182 z m -0.14305,26.47138 1.11975,-24.72397 c 0.18513,0.0819 0.38795,0.13188 0.60205,0.14158 0.21409,0.01 0.42061,-0.0217 0.61237,-0.0866 l -1.12137,24.75969 -1.1787,-0.0534 c -0.0196,-4.3e-4 -0.035,-0.0177 -0.0341,-0.0374 z m 2.48139,-28.2703 3.38929,0.15351 1.09559,2.176 c -0.0554,0.2922 -0.31849,0.50777 -0.62395,0.49394 -0.33482,-0.0151 -0.59487,-0.2999 -0.57971,-0.63472 0.0134,-0.29588 -0.2156,-0.54664 -0.5115,-0.56004 -0.29588,-0.0134 -0.54664,0.2156 -0.56003,0.51152 -0.0151,0.33481 -0.29989,0.59486 -0.63472,0.5797 -0.33482,-0.0151 -0.59487,-0.2999 -0.5797,-0.63472 0.0134,-0.29587 -0.2156,-0.54664 -0.51151,-0.56003 -0.29589,-0.0134 -0.54664,0.21559 -0.56004,0.5115 -0.0151,0.33482 -0.29988,0.59487 -0.63471,0.57971 -0.30553,-0.0138 -0.54806,-0.25231 -0.57674,-0.54832 z m 2.13875,3.70487 -1.12137,24.75969 -1.21442,-0.055 1.12137,-24.75969 c 0.18513,0.0819 0.38794,0.13188 0.60205,0.14158 0.21408,0.01 0.4206,-0.0217 0.61237,-0.0866 z m 1.12887,24.86161 -1.17869,-0.0534 1.12136,-24.7597 c 0.18513,0.0819 0.38795,0.1319 0.60204,0.14159 0.21409,0.01 0.42061,-0.0217 0.61238,-0.0866 l -1.11976,24.72397 c -4.2e-4,0.0196 -0.0176,0.0351 -0.0374,0.0341 z"
       id="path946-8"
       inkscape:connector-curvature="0"
       sodipodi:nodetypes="scccssssssccccccccccscccccccscsccsscccsssssssssccccccscsccccsscccc"
       style="fill:#577fd6;fill-opacity:1;stroke:none;stroke-width:0.07150977;stroke-opacity:1" />
  </g>
</svg>
