<?xml version="1.0" encoding="UTF-8" standalone="no"?>
<!-- Created with Inkscape (http://www.inkscape.org/) -->

<svg
   xmlns:dc="http://purl.org/dc/elements/1.1/"
   xmlns:cc="http://creativecommons.org/ns#"
   xmlns:rdf="http://www.w3.org/1999/02/22-rdf-syntax-ns#"
   xmlns:svg="http://www.w3.org/2000/svg"
   xmlns="http://www.w3.org/2000/svg"
   xmlns:sodipodi="http://sodipodi.sourceforge.net/DTD/sodipodi-0.dtd"
   xmlns:inkscape="http://www.inkscape.org/namespaces/inkscape"
   width="650.70081"
   height="500.51968"
   viewBox="0 0 172.16458 132.42917"
   version="1.1"
   id="svg4699"
   sodipodi:docname="paperAndPencils.svg"
   inkscape:version="0.92.2 5c3e80d, 2017-08-06">
  <defs
     id="defs4693" />
  <sodipodi:namedview
     id="base"
     pagecolor="#ffffff"
     bordercolor="#666666"
     borderopacity="1.0"
     inkscape:pageopacity="0.0"
     inkscape:pageshadow="2"
     inkscape:zoom="0.7"
     inkscape:cx="6.733148"
     inkscape:cy="480.76363"
     inkscape:document-units="mm"
     inkscape:current-layer="layer1"
     showgrid="false"
     units="px"
     inkscape:window-width="1440"
     inkscape:window-height="855"
     inkscape:window-x="0"
     inkscape:window-y="1"
     inkscape:window-maximized="1" />
  <metadata
     id="metadata4696">
    <rdf:RDF>
      <cc:Work
         rdf:about="">
        <dc:format>image/svg+xml</dc:format>
        <dc:type
           rdf:resource="http://purl.org/dc/dcmitype/StillImage" />
        <dc:title></dc:title>
      </cc:Work>
    </rdf:RDF>
  </metadata>
  <g
     inkscape:label="Layer 1"
     inkscape:groupmode="layer"
     id="layer1"
     transform="translate(0,-164.57082)">
    <path
       d="m 102.84123,192.46122 c -0.005,0.009 -0.0112,0.0184 -0.0161,0.0281 -0.004,0.008 -0.007,0.0151 -0.0105,0.0226 -0.004,0.008 -0.008,0.016 -0.011,0.0244 -0.007,0.0163 -0.0122,0.0328 -0.0171,0.0496 l -7.295922,25.28399 c -0.16948,0.5873 0.17039,1.20287 0.757627,1.37233 l 5.496515,1.58606 c 0.58723,0.16945 1.2028,-0.17042 1.37225,-0.75765 l 7.29593,-25.28399 c 0.005,-0.0169 0.009,-0.034 0.012,-0.0511 0.002,-0.009 0.003,-0.0177 0.004,-0.0265 0.001,-0.008 0.002,-0.0164 0.003,-0.0247 9.4e-4,-0.0108 0.001,-0.0216 0.001,-0.0324 1.9e-4,-0.006 6.5e-4,-0.0128 5.8e-4,-0.0191 -8e-5,-0.0114 -9.4e-4,-0.0226 -0.002,-0.0337 -2.8e-4,-0.005 -2.5e-4,-0.01 -7.6e-4,-0.0145 l -8.6e-4,-0.009 c -1.4e-4,-5.9e-4 -1.7e-4,-7.8e-4 -2.4e-4,-0.002 l -1.51246,-7.12442 c -0.0218,-0.21819 -0.17422,-0.40113 -0.38494,-0.46193 -0.21072,-0.0608 -0.43723,0.0128 -0.57186,0.18583 l -5.07552,5.22331 c -4.3e-4,4.5e-4 -8.5e-4,7.8e-4 -0.001,0.002 l -0.005,0.007 c -0.003,0.004 -0.005,0.008 -0.008,0.0118 -0.007,0.009 -0.0133,0.018 -0.0194,0.0275 -0.004,0.005 -0.007,0.0108 -0.01,0.0163 z m -6.319975,25.70627 6.861675,-23.77911 c 0.16089,0.12286 0.34643,0.21882 0.55235,0.27824 0.20591,0.0594 0.41405,0.0771 0.61566,0.0588 l -6.871595,23.81346 -1.13365,-0.32713 c -0.019,-0.005 -0.0299,-0.0254 -0.0244,-0.0443 z m 9.013725,-26.90948 3.25978,0.94064 0.55723,2.37166 c -0.12209,0.27119 -0.42825,0.41937 -0.72204,0.3346 -0.32203,-0.0929 -0.50841,-0.43051 -0.41549,-0.75253 0.0821,-0.28458 -0.082,-0.58187 -0.3666,-0.66399 -0.28458,-0.0821 -0.58187,0.082 -0.66399,0.36661 -0.0929,0.32202 -0.4305,0.5084 -0.75253,0.41548 -0.32203,-0.0929 -0.50841,-0.43051 -0.41548,-0.75253 0.0821,-0.28457 -0.082,-0.58187 -0.36661,-0.66399 -0.28458,-0.0821 -0.58187,0.082 -0.66399,0.3666 -0.0929,0.32203 -0.4305,0.50841 -0.75253,0.41549 -0.29385,-0.0848 -0.474,-0.37331 -0.43277,-0.66783 z m 1.21457,4.10184 -6.871607,23.81347 -1.168004,-0.33704 6.871601,-23.81347 c 0.16089,0.12286 0.34643,0.21882 0.55235,0.27824 0.20591,0.0594 0.41405,0.0771 0.61566,0.0588 z m -4.70735,24.43798 -1.13366,-0.32712 6.87161,-23.81347 c 0.16089,0.12286 0.34643,0.21883 0.55234,0.27824 0.20592,0.0594 0.41406,0.0771 0.61567,0.0588 l -6.86169,23.77911 c -0.005,0.019 -0.0253,0.03 -0.0443,0.0244 z"
       id="path946"
       inkscape:connector-curvature="0"
       sodipodi:nodetypes="scccssssssccccccccccscccccccscsccsscccsssssssssccccccscsccscssccc"
       style="fill:#577fd6;fill-opacity:1;stroke:none;stroke-width:0.07150977;stroke-opacity:1" />
    <g
       id="g6266"
       transform="translate(-12.170835,11.641668)">
      <path
         style="fill:#577fd6;fill-opacity:1;stroke:none;stroke-width:0.23448949;stroke-opacity:1"
         d="m 342.70508,-159.0332 -435.572268,51.77343 c -1.219748,0.14514 -2.090555,1.25102 -1.945312,2.47071 l -0.002,0.002 32.664062,274.31055 c 0.145248,1.21969 1.252924,2.09029 2.472657,1.94531 l 355.953121,-42.31445 26.73438,-3.17774 -0.42383,-4.42773 -26.58789,3.16015 -353.996094,42.08204 -32.136719,-269.89454 431.156243,-51.24804 2.36719,19.87304 c 0.14514,1.21871 1.62165,2.83358 2.46875,1.94532 l 19.875,-2.36719 29.50781,247.8125 -45.69335,5.43164 0.42382,4.42773 48.00391,-5.70703 c 1.21882,-0.14513 2.09056,-1.25101 1.94531,-2.4707 l -30.03515,-252.22656 c -0.008,-0.0491 -0.0339,-0.0887 -0.043,-0.13672 -0.034,-0.19238 -0.0943,-0.37939 -0.17969,-0.55469 -0.034,-0.0673 -0.0587,-0.13345 -0.0977,-0.19922 -0.13568,-0.22753 -0.31143,-0.42847 -0.51953,-0.59375 l -24.71094,-19.45312 c -0.20976,-0.16403 -0.44654,-0.2858 -0.70117,-0.36328 -0.0695,-0.0189 -0.1395,-0.0379 -0.21093,-0.0488 -0.19238,-0.042 -0.38888,-0.0578 -0.58594,-0.0469 -0.0378,0.0113 -0.0844,-0.008 -0.13086,-0.004 z m 3.10547,7.27734 16.27343,12.8125 -14.54296,1.73047 z"
         transform="matrix(0.26458333,0,0,0.26458333,7.4083337,151.34165)"
         id="path5320"
         inkscape:connector-curvature="0" />
      <path
         style="fill:#577fd6;fill-opacity:1;stroke:none;stroke-width:0.07993423;stroke-opacity:1"
         inkscape:connector-curvature="0"
         id="path5340"
         d="m 105.57118,170.73191 2.1405,-0.25464 0.25191,2.1175 -2.14049,0.25464 z m 0,0" />
      <path
         style="fill:#577fd6;fill-opacity:1;stroke:none;stroke-width:0.07993423;stroke-opacity:1"
         inkscape:connector-curvature="0"
         id="path5340-2"
         d="m 105.05195,166.70305 2.14051,-0.25464 0.25191,2.1175 -2.14051,0.25463 z m 0,0" />
      <path
         style="fill:#577fd6;fill-opacity:1;stroke:none;stroke-width:0.07993423;stroke-opacity:1"
         inkscape:connector-curvature="0"
         id="path5340-3"
         d="m 104.53903,162.46943 2.14051,-0.25464 0.25191,2.11749 -2.14051,0.25464 z m 0,0" />
      <path
         style="fill:#577fd6;fill-opacity:1;stroke:none;stroke-width:0.07993423;stroke-opacity:1"
         inkscape:connector-curvature="0"
         id="path5340-2-9"
         d="m 104.01982,158.44056 2.1405,-0.25464 0.25191,2.11749 -2.1405,0.25463 z m 0,0" />
      <path
         style="fill:#577fd6;fill-opacity:1;stroke:none;stroke-width:0.07993423;stroke-opacity:1"
         inkscape:connector-curvature="0"
         id="path5340-0"
         d="m 103.5654,154.16432 2.1405,-0.25464 0.25192,2.11749 -2.14051,0.25464 z m 0,0" />
      <path
         style="fill:#577fd6;fill-opacity:1;stroke:none;stroke-width:0.07993423;stroke-opacity:1"
         inkscape:connector-curvature="0"
         id="path5340-2-5"
         d="m 103.04619,150.13546 2.14048,-0.25464 0.25191,2.1175 -2.14048,0.25463 z m 0,0" />
      <path
         style="fill:#577fd6;fill-opacity:1;stroke:none;stroke-width:0.07993423;stroke-opacity:1"
         inkscape:connector-curvature="0"
         id="path5340-3-5"
         d="m 102.53325,145.90183 2.1405,-0.25464 0.25191,2.11749 -2.1405,0.25464 z m 0,0" />
      <path
         style="fill:#577fd6;fill-opacity:1;stroke:none;stroke-width:0.07993423;stroke-opacity:1"
         inkscape:connector-curvature="0"
         id="path5340-2-9-4"
         d="m 102.01404,141.87297 2.14049,-0.25464 0.25191,2.1175 -2.14049,0.25463 z m 0,0" />
      <path
         style="fill:#577fd6;fill-opacity:1;stroke:none;stroke-width:0.07993423;stroke-opacity:1"
         inkscape:connector-curvature="0"
         id="path5340-4"
         d="m 101.48283,137.5725 2.14049,-0.25464 0.25191,2.1175 -2.14049,0.25464 z m 0,0" />
      <path
         style="fill:#577fd6;fill-opacity:1;stroke:none;stroke-width:0.07993423;stroke-opacity:1"
         inkscape:connector-curvature="0"
         id="path5340-2-3"
         d="m 100.9636,133.54363 2.1405,-0.25464 0.25191,2.1175 -2.1405,0.25463 z m 0,0" />
      <path
         style="fill:#577fd6;fill-opacity:1;stroke:none;stroke-width:0.07993423;stroke-opacity:1"
         inkscape:connector-curvature="0"
         id="path5340-3-8"
         d="m 100.45068,129.31002 2.1405,-0.25464 0.25191,2.11748 -2.1405,0.25464 z m 0,0" />
      <path
         sodipodi:nodetypes="ccccc"
         style="fill:#577fd6;fill-opacity:1;stroke:none;stroke-width:0.07993423;stroke-opacity:1"
         inkscape:connector-curvature="0"
         id="path5340-00"
         d="m 106.08824,174.76539 2.1405,-0.25464 0.45914,3.85799 -2.14049,0.25463 z" />
    </g>
    <path
       d="m 81.147615,176.34324 c -0.0028,0.01 -0.0066,0.0205 -0.0091,0.0311 -0.002,0.009 -0.0033,0.0163 -0.0049,0.0244 -0.002,0.009 -0.004,0.0174 -0.005,0.0263 -0.003,0.0175 -0.0042,0.0347 -0.005,0.0522 l -1.190624,26.28865 c -0.02766,0.61063 0.446547,1.12983 1.057117,1.15749 l 5.714913,0.25883 c 0.61056,0.0276 1.129755,-0.44656 1.157407,-1.05712 l 1.190607,-26.28864 c 9.15e-4,-0.0176 8.12e-4,-0.0352 -2.63e-4,-0.0525 -1.57e-4,-0.009 -0.0012,-0.0179 -0.0023,-0.0267 -8.95e-4,-0.008 -0.0019,-0.0164 -0.0028,-0.0247 -0.0016,-0.0107 -0.0041,-0.0212 -0.0066,-0.0317 -0.0012,-0.006 -0.0023,-0.0126 -0.0039,-0.0187 -0.0027,-0.0111 -0.0062,-0.0217 -0.0098,-0.0323 -0.0014,-0.005 -0.0026,-0.01 -0.0041,-0.0139 l -0.0029,-0.009 c -2.72e-4,-5.3e-4 -3.43e-4,-6.9e-4 -7.01e-4,-0.002 l -3.134112,-6.57435 c -0.07214,-0.20707 -0.263065,-0.34936 -0.482157,-0.35928 -0.219088,-0.01 -0.422152,0.11454 -0.512657,0.31422 l -3.715604,6.26402 c -3.13e-4,5.4e-4 -6.47e-4,9.5e-4 -5.06e-4,0.002 l -0.0032,0.008 c -0.002,0.005 -0.003,0.009 -0.005,0.0134 -0.0047,0.0104 -0.0087,0.0206 -0.01244,0.0313 -0.0027,0.006 -0.0043,0.0121 -0.0059,0.0182 z m -0.14305,26.47138 1.119754,-24.72397 c 0.18513,0.0819 0.387947,0.13188 0.602053,0.14158 0.214087,0.01 0.420604,-0.0217 0.612368,-0.0866 l -1.121373,24.75969 -1.178703,-0.0534 c -0.0196,-4.3e-4 -0.035,-0.0177 -0.0341,-0.0374 z m 2.481395,-28.2703 3.38929,0.15351 1.095589,2.176 c -0.05539,0.2922 -0.31849,0.50777 -0.623952,0.49394 -0.334817,-0.0151 -0.594875,-0.2999 -0.579712,-0.63472 0.01338,-0.29588 -0.215596,-0.54664 -0.511501,-0.56004 -0.295883,-0.0134 -0.546637,0.2156 -0.560033,0.51152 -0.01514,0.33481 -0.29989,0.59486 -0.634714,0.5797 -0.334818,-0.0151 -0.594875,-0.2999 -0.579703,-0.63472 0.01339,-0.29587 -0.215596,-0.54664 -0.51151,-0.56003 -0.295884,-0.0134 -0.546637,0.21559 -0.560035,0.5115 -0.01514,0.33482 -0.299888,0.59487 -0.63471,0.57971 -0.305527,-0.0138 -0.548063,-0.25231 -0.576741,-0.54832 z m 2.138741,3.70487 -1.121364,24.75969 -1.214419,-0.055 1.121368,-24.75969 c 0.185129,0.0819 0.387944,0.13188 0.602046,0.14158 0.214088,0.01 0.420604,-0.0217 0.612369,-0.0866 z m 1.12887,24.86161 -1.178689,-0.0534 1.121364,-24.7597 c 0.18513,0.0819 0.387946,0.1319 0.602036,0.14159 0.214095,0.01 0.420615,-0.0217 0.612379,-0.0866 l -1.119751,24.72397 c -4.25e-4,0.0196 -0.0176,0.0351 -0.03738,0.0341 z"
       id="path946-8"
       inkscape:connector-curvature="0"
       sodipodi:nodetypes="scccssssssccccccccccscccccccscsccsscccsssssssssccccccscsccccsscccc"
       style="fill:#577fd6;fill-opacity:1;stroke:none;stroke-width:0.07150977;stroke-opacity:1" />
  </g>
</svg>
