<?xml version="1.0" encoding="UTF-8" standalone="no"?>
<svg
   xmlns:dc="http://purl.org/dc/elements/1.1/"
   xmlns:cc="http://creativecommons.org/ns#"
   xmlns:rdf="http://www.w3.org/1999/02/22-rdf-syntax-ns#"
   xmlns:svg="http://www.w3.org/2000/svg"
   xmlns="http://www.w3.org/2000/svg"
   viewBox="0 0 1654 2339"
   height="2339"
   width="1654"
   version="1.1"
   id="svg4811">
  <metadata
     id="metadata4817">
    <rdf:RDF>
      <cc:Work
         rdf:about="">
        <dc:format>image/svg+xml</dc:format>
        <dc:type
           rdf:resource="http://purl.org/dc/dcmitype/StillImage" />
        <dc:title></dc:title>
      </cc:Work>
    </rdf:RDF>
  </metadata>
  <defs
     id="defs4815" />
  <path
     id="path5369"
     d="m 769.14663,1877.0249 c -63.01481,-6.6085 -145.43441,-28.8317 -192.60279,-51.9325 -25.93572,-12.702 -74.52191,-40.6489 -76.74259,-44.1424 -1.04106,-1.6378 -1.92698,-1.8629 -1.9687,-0.5001 -0.0493,1.6082 -0.71474,1.59 -1.89625,-0.052 -1.00122,-1.3912 -15.00625,-11.2146 -31.12233,-21.8297 -51.47075,-33.9022 -114.96435,-102.2618 -160.68281,-172.9971 -28.5089,-44.1088 -61.13088,-124.1158 -76.62824,-187.9344 -21.00734,-86.509 -20.4427,-206.9578 1.33575,-284.9418 3.23491,-11.5835 6.66191,-24.9633 7.61557,-29.733 5.15293,-25.7722 33.34801,-93.5697 53.25981,-128.0678 8.50513,-14.73552 18.24147,-31.80931 21.63632,-37.94175 28.82362,-52.0669 126.85475,-149.68823 176.64705,-175.90861 3.36516,-1.77209 15.03841,-9.61561 25.94053,-17.43005 49.73499,-35.64915 112.01394,-60.50721 201.93697,-80.60124 59.17055,-13.22215 169.50247,-13.6659 230.43114,-0.92679 12.94627,2.70683 28.55612,5.93809 34.68856,7.18058 6.13244,1.24249 18.39733,4.61103 27.25528,7.48564 8.858,2.87462 22.1373,6.87847 29.5096,8.89746 7.3723,2.01899 16.8497,5.17015 21.0609,7.00259 4.2112,1.83244 16.0192,6.91995 26.2399,11.30558 10.2207,4.38564 32.5205,15.59702 49.5551,24.9142 67.2102,36.76114 143.6899,100.36433 187.8149,156.19354 24.8568,31.44994 67.3565,97.93542 67.409,105.45285 0.01,1.20105 1.7599,5.52869 3.8922,9.61699 21.7558,41.71331 40.9484,99.46321 50.3611,151.53471 2.6708,14.775 6.141,31.881 7.7114,38.0135 4.3465,16.9725 6.0156,111.1807 2.576,145.3952 -6.2885,62.5524 -12.4484,90.0996 -34.5283,154.413 -16.672,48.5616 -33.767,81.8942 -71.0982,138.6305 -45.3446,68.9151 -123.811,141.4937 -205.466,190.0486 -14.0806,8.3728 -70.1363,35.5508 -73.3249,35.5508 -1.1549,0 -7.9865,2.6514 -15.1813,5.8919 -33.9385,15.2859 -95.11645,30.7001 -134.49166,33.8862 -14.99041,1.213 -38.96268,3.303 -53.27171,4.6444 -33.17906,3.1103 -60.52321,2.7976 -97.8713,-1.1192 z"
     style="fill:#ffffe2;fill-opacity:1;stroke:#ffffe2;stroke-width:10;stroke-linecap:butt;stroke-miterlimit:4;stroke-dasharray:none;stroke-opacity:1" />
  <path
     id="path5361"
     d="m 786.08896,1907.7683 c -3.025,-0.3721 -8.2,-1.1572 -11.5,-1.7447 -3.3,-0.5874 -8.1671,-1.0707 -10.8157,-1.0739 -2.6487,0 -5.7,-0.479 -6.7807,-1.0574 -1.0807,-0.5784 -5.4387,-1.2898 -9.6843,-1.5809 -4.2456,-0.291 -11.0943,-1.3692 -15.2193,-2.3959 -13.4094,-3.3375 -20.3982,-4.8127 -26,-5.4883 -3.025,-0.3647 -7.525,-1.2866 -10,-2.0484 -2.475,-0.7619 -7.425,-2.091 -11,-2.9535 -3.575,-0.8625 -13.475,-3.3935 -22,-5.6243 -8.525,-2.2309 -17.525,-4.4673 -20,-4.9699 -2.475,-0.5026 -7.425,-2.0008 -11,-3.3293 -3.575,-1.3286 -8.975,-3.1679 -12,-4.0873 -3.025,-0.9194 -5.725,-1.9899 -6,-2.3789 -0.275,-0.389 -3.2,-1.634 -6.5,-2.7665 -3.3,-1.1326 -7.35,-2.5312 -9,-3.108 -1.65,-0.5767 -4.8,-1.5908 -7,-2.2534 -2.2,-0.6626 -5.35,-2.1877 -7,-3.3892 -1.65,-1.2014 -5.025,-2.7381 -7.5,-3.4148 -4.7382,-1.2956 -14.15,-5.2142 -15,-6.2453 -0.275,-0.3336 -1.7918,-0.9231 -3.3708,-1.3099 -1.5789,-0.3868 -3.5236,-1.3561 -4.3214,-2.154 -0.7978,-0.7978 -2.2634,-1.4506 -3.2568,-1.4506 -0.9933,0 -2.3663,-0.675 -3.051,-1.5 -0.6847,-0.825 -1.8648,-1.5 -2.6224,-1.5 -0.7577,0 -1.3776,-0.45 -1.3776,-1 0,-0.55 -0.8654,-1 -1.9232,-1 -1.0579,0 -3.1954,-1.0645 -4.75,-2.3655 -1.5547,-1.3011 -5.3018,-3.5622 -8.3268,-5.0247 -3.025,-1.4625 -8.2,-4.2049 -11.5,-6.0942 -3.3,-1.8894 -7.125,-4.0105 -8.5,-4.7137 -1.375,-0.7032 -3.0827,-1.8344 -3.795,-2.5138 -0.7122,-0.6794 -3.016,-1.6987 -5.1194,-2.2651 -2.1035,-0.5664 -5.0199,-1.9701 -6.481,-3.1194 -1.461,-1.1493 -4.6691,-3.1597 -7.129,-4.4677 -2.46,-1.3079 -7.4252,-4.6411 -11.03387,-7.407 -3.60868,-2.7659 -7.09685,-5.0367 -7.75147,-5.0462 -0.65463,-0.01 -2.20163,-1.0843 -3.43779,-2.3884 -1.23615,-1.3041 -5.14528,-4.3338 -8.68695,-6.7327 -3.54167,-2.3989 -6.99381,-5.3741 -7.67142,-6.6116 -0.67762,-1.2375 -1.59186,-2.25 -2.03166,-2.25 -1.45212,0 -13.06636,-8.3899 -20.77851,-15.01 -15.74782,-13.5179 -25.94206,-21.99 -26.45998,-21.99 -1.88007,0 -39.32618,-37.7219 -48.62392,-48.982 -2.475,-2.9974 -6.34242,-7.4902 -8.59426,-9.9839 -2.25184,-2.4938 -5.17684,-5.8283 -6.5,-7.41 -1.32316,-1.5818 -3.88259,-4.5068 -5.68762,-6.5 -1.80504,-1.9933 -4.40671,-5.4878 -5.7815,-7.7657 -1.37479,-2.2779 -3.44389,-4.3885 -4.598,-4.6904 -1.4109,-0.3689 -1.89945,-1.0671 -1.49118,-2.131 0.64048,-1.6691 0.47067,-1.9095 -7.37632,-10.4431 -2.73412,-2.9733 -4.97112,-5.9267 -4.97112,-6.5629 0,-0.6363 -1.40815,-2.4785 -3.12922,-4.0939 -1.72107,-1.6154 -4.15181,-5.1871 -5.40163,-7.9371 -1.24983,-2.75 -3.89168,-6.5508 -5.87078,-8.4462 -1.9791,-1.8954 -3.59837,-4.1769 -3.59837,-5.07 0,-0.8932 -2.3625,-5.2242 -5.25,-9.6245 -2.8875,-4.4002 -5.90559,-9.3187 -6.70687,-10.9299 -0.80128,-1.6112 -2.02583,-3.6255 -2.72123,-4.4763 -1.14829,-1.405 -3.16295,-4.9448 -8.51037,-14.9531 -1.02852,-1.925 -2.82152,-5.075 -3.98443,-7 -3.15619,-5.2245 -6.8271,-12.6518 -6.8271,-13.8131 0,-0.9007 -3.4566,-7.9866 -5.94494,-12.1869 -0.48874,-0.825 -1.59277,-3.1255 -2.45339,-5.1122 -0.86062,-1.9868 -2.24807,-4.1794 -3.08322,-4.8725 -0.83515,-0.6931 -1.51845,-2.1112 -1.51845,-3.1513 0,-1.7246 -0.81075,-3.7374 -3.16754,-7.864 -4.95996,-8.6846 -9.82273,-20.0904 -9.82715,-23.05 -0.003,-1.9525 -0.50441,-4.0491 -1.11443,-4.6591 -0.93068,-0.9307 -1.39396,-3.1113 -1.82704,-8.5999 -0.0351,-0.445 -0.62634,-0.4853 -1.31384,-0.09 -0.6875,0.3956 -0.96038,0.3951 -0.60641,0 0.76615,-0.8578 -1.23218,-8.6776 -3.47545,-13.6001 -4.27096,-9.3719 -7.55075,-19.2658 -8.15432,-24.5986 -0.36736,-3.2458 -1.84179,-9.5014 -3.2765,-13.9014 -1.43472,-4.4 -2.69492,-8.675 -2.80044,-9.5 -0.10553,-0.825 -0.5052,-4.1373 -0.88816,-7.3608 -0.38296,-3.2234 -1.51749,-7.4984 -2.52116,-9.5 -1.00571,-2.0056 -2.5745,-9.2503 -3.49482,-16.1392 -0.91847,-6.875 -2.28478,-14.3 -3.03624,-16.5 -0.75146,-2.2 -1.92054,-7.825 -2.59795,-12.5 -0.67742,-4.675 -1.69613,-9.4 -2.2638,-10.5 -0.56767,-1.1 -1.13638,-4.475 -1.2638,-7.5 -0.40747,-9.6733 -1.23776,-19.3026 -2.29341,-26.5975 -0.56489,-3.9037 -1.00742,-11.2452 -0.9834,-16.3145 0.0243,-5.1373 -0.42931,-9.7869 -1.02492,-10.5046 -0.68609,-0.8267 -0.84819,-4.3291 -0.45286,-9.7844 0.44536,-6.1457 0.25105,-9.1612 -0.70222,-10.8979 -1.77721,-3.2378 -1.86961,-4.186 -0.83864,-8.6059 0.48689,-2.0874 0.93209,-8.0699 0.98934,-13.2945 0.0572,-5.2246 0.47247,-9.9496 0.92273,-10.5 0.45026,-0.5504 0.94885,-4.1507 1.10798,-8.0007 0.15913,-3.85 0.68061,-8.1152 1.15886,-9.4781 0.47825,-1.363 0.85014,-7.1964 0.82642,-12.9632 -0.0237,-5.7668 0.36991,-12.0766 0.87472,-14.0219 0.50481,-1.9452 1.16675,-5.904 1.47098,-8.7971 0.88712,-8.4364 1.78793,-13.6228 2.66377,-15.3365 0.47788,-0.935 0.35807,-2.0548 -0.2891,-2.702 -0.80691,-0.8069 -0.65903,-2.535 0.54796,-6.4032 0.90923,-2.9139 1.75166,-7.6876 1.87208,-10.6082 0.12041,-2.9206 0.79489,-5.7882 1.49885,-6.3725 0.70395,-0.5842 1.27991,-2.5528 1.27991,-4.3746 0,-1.8219 0.44388,-4.48 0.9864,-5.9069 0.54252,-1.427 1.19068,-5.7693 1.44035,-9.6496 0.25608,-3.9801 1.13372,-8.0926 2.01359,-9.4355 0.85781,-1.3092 1.56747,-3.6337 1.57702,-5.1655 0.0293,-4.7046 2.85829,-16.4887 4.36509,-18.1829 0.7838,-0.8813 2.43939,-5.7648 3.67907,-10.8523 1.23969,-5.0875 2.60061,-9.25 3.02427,-9.25 0.42367,0 1.08004,-2.5875 1.45861,-5.75 0.37857,-3.1625 1.45337,-6.65 2.38844,-7.75 0.93507,-1.1 2.26719,-4.475 2.96027,-7.5 1.56023,-6.8098 7.07388,-23.1635 8.24335,-24.45 0.47495,-0.5225 0.86354,-1.6121 0.86354,-2.4213 0,-0.8092 0.61719,-2.1817 1.37152,-3.05 0.75434,-0.8683 2.15826,-4.0537 3.11982,-7.0787 1.77912,-5.597 3.54539,-10.11741 6.05633,-15.50001 0.76972,-1.65 2.33973,-5.241 3.48893,-7.98 1.1492,-2.7389 2.45064,-5.2139 2.89209,-5.5 0.44145,-0.286 1.81552,-2.545 3.05349,-5.02 1.23796,-2.475 2.779,-5.175 3.42453,-6 0.64553,-0.825 2.48751,-4.425 4.09329,-8 1.60578,-3.575 3.56993,-7.2875 4.36479,-8.25 0.79485,-0.9625 1.03794,-1.7569 0.5402,-1.7653 -0.49775,-0.01 -0.45499,-0.346 0.095,-0.75 0.92235,-0.6777 3.92086,-5.6817 5.53357,-9.2347 1.37569,-3.0308 4.3902,-8.5283 5.20932,-9.5 0.46361,-0.55 2.9396,-4.6 5.5022,-9 2.56261,-4.4 4.95765,-8.225 5.32232,-8.5 0.36466,-0.275 1.0004,-1.625 1.41274,-3.00004 0.41235,-1.375 1.53309,-3.4 2.49054,-4.5 0.95745,-1.1 2.59323,-3.575 3.63507,-5.5 1.04183,-1.925 2.11924,-3.725 2.39424,-4 0.275,-0.275 0.95,-1.23885 1.5,-2.14189 4.05481,-6.65841 9.9269,-14.85901 10.63925,-14.85901 0.47342,0 0.76413,-0.3375 0.64602,-0.75 -0.32049,-1.11935 4.56828,-8.2253 8.63807,-12.55565 1.96717,-2.09311 3.57667,-4.23061 3.57667,-4.75 0,-0.51939 0.45,-0.94435 1,-0.94435 0.55,0 1,-0.62838 1,-1.39641 0,-0.76802 1.4625,-2.69432 3.25,-4.28067 1.7875,-1.58634 4.58052,-4.67046 6.20672,-6.85359 5.02627,-6.74766 13.71881,-16.60687 22.06071,-25.02158 4.39041,-4.42874 9.6152,-10.05374 11.61065,-12.5 5.96981,-7.31854 11.14974,-12.46277 12.29588,-12.21113 0.59275,0.13014 1.97736,-1.10997 3.07689,-2.75582 1.09953,-1.64584 2.78665,-3.24514 3.74915,-3.554 0.9625,-0.30887 1.75215,-0.86875 1.75478,-1.24419 0.007,-1.06905 6.102,-7.19908 12.58571,-12.65903 3.25023,-2.73704 7.93451,-7.03832 10.40951,-9.55841 2.475,-2.52009 5.83897,-5.2307 7.4755,-6.02358 1.63652,-0.79287 4.78652,-3.40162 7,-5.79722 2.21347,-2.39559 6.4995,-6.11237 9.5245,-8.2595 3.025,-2.14713 8.2,-6.15197 11.5,-8.89964 3.3,-2.74767 6.675,-5.28679 7.5,-5.64249 0.825,-0.35571 2.25914,-1.29742 3.18699,-2.0927 0.92784,-0.79528 2.16534,-1.15032 2.75,-0.78898 0.58465,0.36133 1.06301,-0.0446 1.06301,-0.90204 0,-0.85746 0.5625,-1.56339 1.25,-1.56873 0.6875,-0.005 3.275,-1.62305 5.75,-3.59492 2.475,-1.97187 7.425,-5.35902 11,-7.527 8.70947,-5.28169 18.03867,-11.85153 20.81487,-14.6583 1.2458,-1.25947 3.2595,-2.74129 4.4751,-3.29294 1.2155,-0.55166 3.1292,-1.54619 4.2527,-2.21007 10.0355,-5.93037 21.0047,-12.22359 21.4323,-12.29616 3.0138,-0.51151 26.146,-13.66797 30.2812,-17.22245 0.9658,-0.83024 2.0354,-1.23023 2.3767,-0.88887 0.3414,0.34136 1.9576,-0.0707 3.5917,-0.91571 1.6341,-0.84501 3.8102,-1.69799 4.836,-1.89553 1.0257,-0.19754 3.3442,-1.02442 5.1522,-1.83751 1.808,-0.81309 5.0872,-2.02077 7.2872,-2.68373 2.2,-0.66297 6.25,-2.32527 9,-3.694 6.3866,-3.17876 14.2395,-5.55214 15.5962,-4.71365 0.5785,0.35755 2.0993,-0.33395 3.3796,-1.53665 1.3208,-1.24088 4.2085,-2.42938 6.6759,-2.74769 2.3916,-0.30852 5.5428,-1.39663 7.0027,-2.41802 1.4599,-1.0214 3.1535,-1.85709 3.7636,-1.85709 0.61,0 1.8906,-0.41261 2.8456,-0.91691 0.955,-0.5043 4.4364,-1.66367 7.7364,-2.57639 3.3,-0.91272 6.9,-2.01275 8,-2.44453 3.8579,-1.5143 9.1549,-3.06217 10.4791,-3.06217 1.4211,0 18.631,-5.11259 25.8004,-7.66461 5.5832,-1.98738 17.2717,-4.42179 18.2696,-3.80507 0.4291,0.26518 0.942,-0.004 1.1399,-0.59728 0.4268,-1.28038 13.4073,-3.93785 19.811,-4.05586 2.475,-0.0456 7.2,-0.66524 10.5,-1.37695 3.3,-0.7117 6.675,-1.3107 7.5,-1.33111 0.825,-0.0204 5.5399,-0.49969 10.4775,-1.06507 4.9376,-0.56538 9.9582,-0.78182 11.1569,-0.48097 1.1986,0.30084 3.1062,0.0509 4.2391,-0.55535 1.1328,-0.60628 5.3372,-1.32978 9.3431,-1.60778 4.0059,-0.278 10.6584,-0.93791 14.7834,-1.46647 6.5996,-0.84565 30.8118,-1.5715 33.5,-1.00429 1.6795,0.35437 11.5348,0.068 20.5,-0.59574 11.5083,-0.85198 38.7674,-0.65726 40.2797,0.28772 1.9132,1.19555 3.5742,1.34798 13.7203,1.25908 5.225,-0.0458 11.75,-0.0848 14.5,-0.0866 2.75,-0.002 6.35,0.70255 8,1.56534 1.65,0.86279 3.7994,1.57148 4.7763,1.57487 3.4997,0.0121 14.7237,2.4776 14.7237,3.23421 0,0.42457 2.385,0.77195 5.3,0.77195 2.915,0 5.7275,0.41881 6.25,0.9307 1.0954,1.07309 8.6916,2.31048 15.95,2.59818 2.75,0.109 6.9691,0.93459 9.3758,1.83465 2.4066,0.90006 5.2034,1.63647 6.215,1.63647 1.0116,0 3.955,0.7183 6.5409,1.59623 2.5859,0.87793 6.0891,1.7268 7.7849,1.88638 8.86904,0.83459 14.41584,1.84766 17.37064,3.1726 1.808,0.81068 4.2164,1.65291 5.3521,1.87161 1.1356,0.2187 2.5813,0.82441 3.2127,1.34601 0.6314,0.5216 4.073,1.70159 7.648,2.6222 3.575,0.92061 7.2104,2.31084 8.0787,3.0894 0.8683,0.77856 2.1503,1.41557 2.8489,1.41557 1.2373,0 6.7254,2.18504 10.3988,4.14023 1.0044,0.53465 4.1544,1.22539 7,1.53498 2.8455,0.3096 6.1703,1.18433 7.3884,1.94384 1.2182,0.75952 3.0615,1.38095 4.0964,1.38095 1.0348,0 3.1882,0.64742 4.7852,1.4387 3.9277,1.94613 8.6841,3.91823 9.9036,4.10628 1.6303,0.25139 9.849,4.33693 11.862,5.89663 1.0242,0.7935 4.3992,2.22417 7.5,3.17926 3.1009,0.95509 6.91,2.78112 8.4647,4.05783 1.5547,1.27672 3.3193,2.3213 3.9213,2.3213 0.602,0 1.805,0.59057 2.6733,1.31237 0.8683,0.72181 3.6037,2.17634 6.0787,3.23229 2.475,1.05596 5.0381,2.43381 5.6957,3.0619 0.6576,0.62809 6.0576,3.49427 12,6.3693 12.9394,6.26033 11.7281,5.5813 18.7735,10.52414 8.5674,6.01072 10.6597,7.31505 15.0308,9.37008 2.2,1.03432 5.2607,3.06168 6.8015,4.50525 1.5409,1.44357 3.2006,2.62467 3.6883,2.62467 0.4877,0 2.3617,1.34718 4.1645,2.99373 1.8027,1.64656 4.7555,3.48146 6.5617,4.07756 1.8062,0.5961 3.284,1.45005 3.284,1.89768 0,0.44763 1.815,1.5401 4.0334,2.42772 2.2184,0.88762 4.285,2.26935 4.5924,3.07051 0.3074,0.80117 1.4618,1.74322 2.5653,2.09345 1.1035,0.35024 2.7494,1.29516 3.6576,2.09983 0.9082,0.80467 4.8013,3.70341 8.6513,6.44165 3.85,2.73823 7.702,5.55783 8.56,6.26577 0.858,0.70794 5.7693,4.60756 10.914,8.66584 5.1448,4.05827 10.7428,8.65014 12.44,10.20415 1.6973,1.55401 4.886,4.03271 7.086,5.50822 2.2,1.47552 6.7127,5.39876 10.0282,8.71832 5.336,5.34252 11.5637,11.019 22.2017,20.23684 1.7765,1.5393 3.239,3.33887 3.25,3.99904 0.011,0.66017 0.5947,1.56017 1.2971,2 0.7023,0.43983 2.8262,2.82469 4.7199,5.29969 1.8936,2.475 8.5319,10.35 14.7517,17.5 6.2199,7.15 11.6534,13.45 12.0745,14 0.4211,0.55 2.9957,3.51404 5.7213,6.58676 2.7256,3.07272 6.0806,7.05234 7.4556,8.8436 1.375,1.79125 5.0718,5.95194 8.2152,9.24597 3.1433,3.29402 6.2712,7.52691 6.9509,9.4064 0.6796,1.8795 1.5407,3.41727 1.9135,3.41727 0.3728,0 1.2654,1.41874 1.9837,3.15275 0.7182,1.73402 3.5201,5.67152 6.2265,8.75 2.7063,3.07849 5.3288,6.49725 5.8278,7.59725 2.0881,4.60303 5.0445,8.65165 8.7859,12.03177 2.3033,2.08094 4.7148,5.56945 5.7249,8.28185 0.96,2.5775 2.5182,5.7048 3.4628,6.9496 0.9446,1.2448 2.5244,4.5073 3.5107,7.25 0.9862,2.7427 2.0823,4.9868 2.4356,4.9868 0.3533,0 1.2364,1.8 1.9625,4 0.7261,2.2 1.6651,4 2.0868,4 0.9111,0 3.9132,5.7778 3.9132,7.5312 0,0.6731 0.6647,1.7755 1.477,2.4497 1.4434,1.1979 5.05,8.2752 7.5263,14.7691 0.6816,1.7875 1.5482,3.25 1.9257,3.25 0.8071,0 7.071,12.3262 7.071,13.9144 0,0.5971 0.4197,1.0856 0.9326,1.0856 0.7669,0 2.2718,2.9699 2.5336,5 0.035,0.275 0.4216,1.0625 0.8581,1.75 0.4366,0.6875 0.5156,1.7 0.1757,2.25 -0.3399,0.55 -0.1415,1 0.441,1 0.5824,0 1.059,0.8543 1.059,1.8984 0,1.0442 1.35,4.46491 3,7.60161 1.65,3.1367 3,6.3092 3,7.05 0,0.7408 1.0633,2.4943 2.3629,3.8966 1.7956,1.9374 2.485,4.0693 2.871,8.8784 0.2794,3.4809 1.2321,7.8692 2.1171,9.7519 0.8851,1.8827 3.8945,10.3878 6.6877,18.9003 2.7931,8.5124 5.4399,15.7124 5.8817,16 0.4418,0.2875 1.0492,1.8728 1.3498,3.5228 0.3006,1.65 1.2597,5.8217 2.1313,9.2705 0.8717,3.4488 1.5165,6.5988 1.4329,7 -0.142,0.6821 0.1265,1.5526 1.8449,5.9795 0.3736,0.9625 0.7639,2.575 0.8674,3.5834 0.2797,2.7245 2.4897,9.8807 3.7574,12.1666 0.61,1.1 1.4313,4.475 1.8252,7.5 0.3938,3.025 2.3537,15.4 4.3553,27.5 2.0017,12.1 3.8886,25.375 4.1932,29.5 0.3046,4.125 0.9152,7.9521 1.3569,8.5047 0.4417,0.5526 1.0904,6.4026 1.4416,13 0.3512,6.5974 0.8143,12.6703 1.0292,13.4953 0.4683,1.7982 1.7604,18.1022 2.1002,26.5 0.6105,15.0882 -0.065,63.0764 -0.9437,67 -0.4056,1.8121 -1.1188,9.2961 -2.1917,23 -0.3692,4.7147 -1.0507,10.397 -3.4528,28.7908 -0.5596,4.285 -1.0175,10.1725 -1.0175,13.0834 0,2.9108 -0.313,5.6055 -0.6956,5.9881 -0.7505,0.7505 -0.7399,0.7105 -2.1469,8.1377 -0.5209,2.75 -1.9118,8.375 -3.0909,12.5 -4.5168,15.8016 -5.2566,18.6598 -6.1826,23.8861 -0.5249,2.9623 -1.841,8.0177 -2.9245,11.2341 -1.0835,3.2164 -1.8963,6.1927 -1.806,6.6139 0.09,0.4213 -0.073,1.4409 -0.3623,2.2659 -2.5664,7.3149 -4.9241,15.0232 -5.3526,17.5 -0.5601,3.2379 -3.3544,11.3722 -4.4657,13 -0.3755,0.55 -1.212,2.575 -1.8589,4.5 -1.8383,5.47 -3.5353,9 -4.3267,9 -0.3985,0 -0.4539,0.7054 -0.123,1.5675 0.3308,0.8621 0.1256,2.5496 -0.4561,3.75 -0.5817,1.2004 -1.2851,3.3075 -1.5633,4.6825 -1.0429,5.1554 -2.376,9.6383 -3.8703,13.0155 -4.6386,10.483 -5.5427,12.7162 -6.1206,15.1178 -0.3484,1.4483 -1.8756,3.9645 -3.3938,5.5915 -1.5181,1.627 -3.2645,4.0421 -3.8808,5.3667 -0.6164,1.3247 -2.3039,4.89 -3.75,7.9229 -1.4462,3.0328 -2.6294,6.0862 -2.6294,6.7852 0,1.7996 -7.8335,16.4876 -9.463,17.7435 -0.7444,0.5738 -2.3181,2.8238 -3.497,5 -1.179,2.1763 -2.5703,4.7444 -3.0918,5.7069 -0.5215,0.9625 -1.3915,2.5375 -1.9333,3.5 -0.5418,0.9625 -1.6658,3.1 -2.4979,4.75 -0.8321,1.65 -2.3853,4.35 -3.4516,6 -1.0663,1.65 -3.5958,6.2625 -5.6212,10.25 -2.0254,3.9875 -3.9664,7.2543 -4.3134,7.2595 -0.3469,0.01 -1.5192,2.0302 -2.6049,4.5 -1.0858,2.4698 -2.2793,4.4905 -2.6522,4.4905 -0.3729,0 -1.1779,1.2375 -1.7888,2.75 -1.0187,2.5221 -4.5201,7.9405 -7.1105,11.0037 -4.3536,5.1482 -11.2467,14.9572 -12.3505,17.5749 -0.7354,1.7443 -3.3142,5.5685 -5.7305,8.4983 -2.4164,2.9298 -5.5184,6.8418 -6.8934,8.6933 -4.7069,6.338 -15.5114,17.7495 -37.2655,39.359 -11.9711,11.8914 -22.8482,22.5208 -24.1715,23.6208 -1.3232,1.1 -6.1537,5.2969 -10.7344,9.3265 -17.1205,15.0606 -19.4546,17.0549 -32.3286,27.6227 -4.4,3.6118 -8.5435,7.0133 -9.2078,7.5589 -0.6643,0.5455 -1.5643,1.0014 -2,1.013 -0.4357,0.012 -4.6172,3.6113 -9.2922,7.9993 -4.675,4.388 -8.9841,7.9785 -9.5757,7.9789 -0.5916,4e-4 -2.1326,1.1257 -3.4243,2.5007 -1.2917,1.375 -2.9541,2.5 -3.6942,2.5 -1.5895,0 -9.6532,4.9076 -10.148,6.1762 -0.1883,0.4825 -2.1008,1.7744 -4.25,2.8709 -2.1493,1.0964 -3.9078,2.3843 -3.9078,2.8619 0,0.4776 -1.503,1.1504 -3.3401,1.495 -1.837,0.3446 -4.3904,1.7447 -5.6743,3.1113 -1.2838,1.3666 -2.7251,2.4847 -3.2029,2.4847 -0.8092,0 -12.0553,6.9004 -14.2827,8.7636 -0.55,0.46 -2.575,1.7139 -4.5,2.7864 -1.925,1.0725 -3.725,2.1928 -4,2.4894 -0.9911,1.0693 -12.7874,5.9606 -14.375,5.9606 -0.8938,0 -1.625,0.45 -1.625,1 0,0.55 -0.4488,1 -0.9973,1 -1.2823,0 -14.3426,6.1125 -15.0027,7.0216 -0.275,0.3787 -2.1875,1.2387 -4.25,1.911 -2.0625,0.6724 -3.75,1.5259 -3.75,1.8967 0,1.3531 -13.8485,7.4403 -19.5,8.5713 -2.3055,0.4614 -8.5,3.8963 -8.5,4.7133 0,0.4874 -1.1093,0.8861 -2.4651,0.8861 -3.2074,0 -10.86,2.5097 -16.5349,5.4226 -2.475,1.2704 -6.6375,2.9183 -9.25,3.6619 -2.6125,0.7437 -4.75,1.6327 -4.75,1.9755 0,0.6078 -7.0043,3.0455 -10,3.4803 -4.353,0.6319 -30.3381,8.5453 -31.45,9.5776 -0.5225,0.4852 -2.0975,0.8849 -3.5,0.8883 -1.4025,0 -3.7507,0.6326 -5.21834,1.3983 -1.4675,0.7656 -4.6175,1.7166 -7,2.1132 -2.3824,0.3967 -6.5817,1.5255 -9.3317,2.5085 -5.5323,1.9776 -12.1886,3.4652 -14.5,3.2404 -0.825,-0.08 -3.3,0.3124 -5.5,0.8724 -2.2,0.56 -8.275,1.6342 -13.5,2.387 -9.6299,1.3876 -11.3101,1.717 -14,2.7454 -7.0316,2.6881 -13.3242,3.6139 -28.0357,4.1248 -9.0947,0.3159 -18.9947,1.0708 -22,1.6777 -8.2008,1.656 -10.2125,1.7759 -39.9643,2.3822 -50.518,1.0296 -53.4734,1.048 -59,0.3683 z m 66.5,-27.2298 c 1.65,-0.3162 7.275,-0.6009 12.5,-0.6327 8.8636,-0.054 20.6907,-1.4736 34.2078,-4.1058 3.1392,-0.6113 6.6463,-0.866 7.7934,-0.566 1.1471,0.2999 3.5056,0.1381 5.2411,-0.3596 2.0449,-0.5865 3.3779,-0.545 3.7876,0.1178 0.7866,1.2728 8.888,0.7191 19.4701,-1.3307 4.4,-0.8522 10.8294,-1.8366 14.2875,-2.1875 3.4581,-0.3508 9.6595,-1.7386 13.7809,-3.084 4.1214,-1.3454 9.0825,-2.4461 11.0246,-2.4461 3.1955,0 10.7244,-1.8885 15.907,-3.9901 1.1,-0.446 5.5732,-1.5468 9.94044,-2.446 4.3673,-0.8993 8.4462,-2.0548 9.0643,-2.5678 0.9561,-0.7935 5.7436,-2.177 16.2148,-4.6858 1.2207,-0.2925 2.7383,-1.1569 3.3724,-1.921 0.6341,-0.7641 2.3354,-1.3989 3.7805,-1.4106 4.112,-0.033 19.3189,-5.5199 20.7594,-7.4898 0.7455,-1.0196 2.6916,-1.8183 4.582,-1.8806 2.042,-0.067 3.9364,-0.9096 5.0036,-2.2246 1.1089,-1.3664 3.2778,-2.2921 6.1216,-2.6127 4.0024,-0.4511 6.1691,-1.2496 12.161,-4.482 1.1,-0.5934 5.15,-2.5231 9,-4.2882 3.85,-1.7651 7.675,-3.6135 8.5,-4.1075 0.825,-0.4939 2.6069,-1.3717 3.9597,-1.9507 1.3528,-0.5789 5.0117,-2.6028 8.1308,-4.4976 3.1191,-1.8947 6.7373,-3.4666 8.0403,-3.493 1.3031,-0.026 3.9442,-0.8943 5.8692,-1.9286 1.925,-1.0343 4.85,-2.5515 6.5,-3.3715 1.65,-0.8201 7.725,-4.4589 13.5,-8.0864 5.775,-3.6275 12.0086,-7.289 13.8524,-8.1367 3.3477,-1.539 4.7379,-2.5076 7.9456,-5.5353 2.3376,-2.2066 15.3144,-9.8935 16.7018,-9.8935 0.6193,0 2.4194,-1.35 4.0002,-3 1.5808,-1.65 3.2844,-3 3.7859,-3 0.5014,0 2.2176,-1.398 3.8137,-3.1067 1.7336,-1.8558 3.5005,-2.877 4.3884,-2.5363 0.8847,0.3395 2.8069,-0.758 4.7491,-2.7115 1.7946,-1.805 5.0363,-4.6012 7.2037,-6.2137 2.1675,-1.6125 4.9589,-3.8318 6.2032,-4.9318 4.0919,-3.6174 7.9996,-6.9478 12.3201,-10.5 5.9267,-4.8727 28.9351,-26.0304 29.8139,-27.4158 0.3971,-0.626 2.61,-2.6069 4.9176,-4.4021 2.3076,-1.7952 4.4635,-4.108 4.7909,-5.1395 0.3274,-1.0315 1.8609,-2.3167 3.4079,-2.856 1.547,-0.5392 4.7491,-3.2768 7.1157,-6.0835 2.3666,-2.8067 4.9075,-5.1031 5.6464,-5.1031 0.7389,0 1.3435,-0.6891 1.3435,-1.5314 0,-0.8422 0.675,-1.7904 1.5,-2.107 0.825,-0.3166 1.5,-1.2024 1.5,-1.9686 0,-0.7661 0.3375,-1.4033 0.75,-1.4158 1.5594,-0.048 17.0252,-15.6888 20.2475,-20.4772 1.8506,-2.75 6.5457,-8.4086 10.4336,-12.5747 3.8879,-4.1661 8.4189,-9.5661 10.0689,-12 1.65,-2.4339 3.3375,-4.5753 3.75,-4.7586 0.4125,-0.1834 0.75,-0.7253 0.75,-1.2043 0,-0.479 2.2357,-3.929 4.9681,-7.6667 9.844,-13.4652 10.7965,-14.8321 12.0516,-17.2957 0.7005,-1.375 2.5576,-3.9782 4.127,-5.7848 1.5693,-1.8066 2.8533,-3.9919 2.8533,-4.8561 0,-0.8642 1.3564,-3.2839 3.0142,-5.377 1.6578,-2.0931 3.7117,-5.4751 4.5642,-7.5155 0.8526,-2.0405 2.7428,-5.5676 4.2006,-7.8382 1.4578,-2.2706 3.7096,-6.3769 5.0041,-9.1251 1.2944,-2.7483 2.9521,-5.6733 3.6837,-6.5 0.7316,-0.8268 2.351,-3.3033 3.5985,-5.5033 1.2475,-2.2 3.4138,-6.025 4.8138,-8.5 1.4,-2.475 3.3652,-5.3886 4.3669,-6.4747 1.9945,-2.1625 5.8537,-10.0155 7.6295,-15.5253 0.6205,-1.925 2.2523,-5.7138 3.6263,-8.4195 1.374,-2.7057 2.4982,-5.5441 2.4982,-6.3076 0,-0.7635 2.475,-6.9811 5.5,-13.817 3.025,-6.8358 5.5,-13.2564 5.5,-14.268 0,-1.0116 1.125,-5.0592 2.5,-8.9948 1.375,-3.9355 2.5,-7.9161 2.5,-8.8456 0,-0.9295 0.6028,-2.4005 1.3395,-3.2688 2.6794,-3.1578 7.8474,-18.7651 7.7838,-23.5069 -0.014,-1.0605 0.5875,-3.0855 1.3372,-4.5 0.7496,-1.4145 2.1396,-5.2718 3.0888,-8.5718 0.9492,-3.3 2.0932,-6.4712 2.5423,-7.0471 0.4491,-0.576 1.019,-2.601 1.2663,-4.5 0.6966,-5.3478 1.725,-10.2562 2.6092,-12.4529 2.3981,-5.9584 5.0329,-19.3792 5.0329,-25.6366 0,-2.0731 0.4094,-4.803 0.9098,-6.0663 1.4265,-3.6018 3.0706,-15.1668 4.0819,-28.7129 0.5098,-6.8287 1.3545,-12.6801 1.8772,-13.0032 0.5226,-0.323 0.967,-1.7109 0.9874,-3.0841 0.1498,-10.0639 1.1808,-29.1555 2.0229,-37.461 0.596,-5.8772 0.6433,-10.4063 0.1156,-11.0422 -0.7573,-0.9124 -1.4699,-15.8607 -0.9413,-19.7437 0.094,-0.6875 0.3627,-7.55 0.5981,-15.25 0.2354,-7.7 0.5559,-17.7349 0.7123,-22.2997 0.1563,-4.5649 -0.1173,-8.5479 -0.608,-8.8512 -0.4907,-0.3033 -0.6982,-1.0684 -0.461,-1.7003 0.2372,-0.6318 -0.1992,-4.5238 -0.9697,-8.6488 -0.7706,-4.125 -1.6467,-10.8625 -1.9469,-14.9723 -0.3002,-4.1098 -0.9582,-8.2427 -1.4621,-9.1843 -0.5039,-0.9415 -0.9162,-2.7922 -0.9162,-4.1125 0,-1.3203 -0.8647,-5.0624 -1.9217,-8.3157 -1.0569,-3.2534 -2.1619,-8.812 -2.4556,-12.3526 -0.2936,-3.5406 -0.983,-8.4906 -1.5318,-11 -0.5488,-2.5094 -1.4921,-8.2761 -2.0963,-12.8149 -0.6042,-4.5388 -1.7782,-9.8788 -2.6088,-11.8668 -0.8306,-1.9879 -1.2763,-4.2238 -0.9905,-4.9687 0.2858,-0.7449 -1.2587,-6.8798 -3.4323,-13.6333 -2.1736,-6.7534 -3.9545,-13.0114 -3.9575,-13.9068 0,-0.8953 -0.7174,-3.3317 -1.5875,-5.4141 -0.8701,-2.0824 -2.0097,-6.4418 -2.5324,-9.6875 -0.5227,-3.2458 -1.3858,-6.7719 -1.918,-7.8359 -0.5322,-1.0641 -1.4176,-2.8285 -1.9676,-3.9211 -0.55,-1.0925 -1.0054,-2.78 -1.012,-3.75 -0.01,-0.9699 -1.0618,-3.599 -2.3449,-5.8424 -1.283,-2.2434 -2.6503,-6.0684 -3.0385,-8.5 -0.3881,-2.4316 -1.3049,-5.3369 -2.0374,-6.4562 -0.7324,-1.1193 -2.5461,-5.1693 -4.0303,-9 -1.4842,-3.8307 -4.9122,-11.538 -7.6178,-17.1273 -2.7055,-5.58931 -4.9291,-10.76431 -4.9413,-11.50001 -0.012,-0.7357 -0.9023,-2.4626 -1.9778,-3.8376 -1.0755,-1.375 -1.9655,-3.2875 -1.9778,-4.25 -0.012,-0.9625 -0.4722,-1.75 -1.0222,-1.75 -0.55,0 -1.0143,-1.0125 -1.0318,-2.25 -0.017,-1.2375 -0.6925,-3.1235 -1.5,-4.1912 -0.8075,-1.0676 -1.4682,-2.7483 -1.4682,-3.7349 0,-0.9867 -1.2832,-3.9381 -2.8517,-6.5589 -5.6096,-9.3736 -21.4376,-37.32 -22.8048,-40.265 -0.9216,-1.9853 -8.6519,-13.3551 -9.5334,-14.0219 -0.9752,-0.73773 -5.8101,-7.94471 -5.8101,-8.66072 0,-0.32657 -1.7298,-2.47037 -3.844,-4.764 -2.1142,-2.29364 -5.7977,-7.51896 -8.1855,-11.61184 -2.3878,-4.09287 -4.8205,-7.94894 -5.406,-8.56905 -0.5855,-0.62011 -1.7263,-2.08261 -2.5353,-3.25 -0.8089,-1.16739 -1.9976,-2.12253 -2.6416,-2.12253 -0.6439,0 -1.4276,-1.0234 -1.7416,-2.27421 -0.3139,-1.25082 -4.1316,-6.08832 -8.4838,-10.75 -4.3521,-4.66169 -9.6906,-10.72579 -11.8633,-13.47579 -11.9311,-15.10133 -52.3484,-55.03662 -61.7989,-61.06196 -1.65,-1.05199 -4.35,-3.17305 -6,-4.71347 -1.65,-1.54043 -4.3684,-3.46526 -6.0409,-4.27741 -2.5993,-1.26215 -21.4464,-15.79842 -41.6185,-32.09912 -3.1126,-2.51528 -6.5812,-5.08506 -7.7079,-5.71064 -1.1267,-0.62557 -5.8304,-3.7249 -10.4526,-6.8874 -4.6223,-3.1625 -8.9291,-5.75 -9.5706,-5.75 -0.6416,0 -4.7804,-2.475 -9.1974,-5.5 -4.417,-3.025 -8.399,-5.5 -8.849,-5.5 -0.45,0 -1.3954,-0.69548 -2.1009,-1.54551 -0.7054,-0.85003 -1.8547,-1.32598 -2.5539,-1.05766 -1.3424,0.51511 -8.8986,-2.76307 -9.8254,-4.26263 -0.2993,-0.4843 -3.1404,-2.13968 -6.3135,-3.67861 -3.1732,-1.53893 -7.1194,-3.76721 -8.7694,-4.95173 -1.65,-1.18453 -7.5,-4.09738 -13,-6.47301 -5.5,-2.37563 -14.4222,-6.47072 -19.8271,-9.10021 -5.4048,-2.62948 -11.5923,-5.07913 -13.75,-5.44366 -2.1576,-0.36453 -3.9229,-1.02096 -3.9229,-1.45873 0,-0.97856 -9.2261,-4.6543 -14,-5.57772 -1.925,-0.37235 -5.525,-1.60384 -8,-2.73666 -2.475,-1.13281 -6.3,-2.21858 -8.5,-2.41283 -2.2,-0.19425 -4.9,-0.76246 -6,-1.26269 -1.1,-0.50023 -4.25,-1.58386 -7,-2.40807 -2.75,-0.82421 -8.375,-2.70107 -12.5,-4.1708 -9.30124,-3.314 -22.83104,-7.16653 -25.50004,-7.26097 -5.8376,-0.20656 -16.8418,-2.13355 -17.4071,-3.04825 -0.5667,-0.91689 -7.0117,-2.45714 -15.0929,-3.60692 -1.375,-0.19563 -7.225,-1.34015 -13,-2.54338 -5.775,-1.20323 -13.1328,-2.34078 -16.3507,-2.52789 -3.2179,-0.18711 -6.1054,-0.59487 -6.4167,-0.90613 -0.3112,-0.31127 -2.4545,-0.56594 -4.7628,-0.56594 -2.3082,0 -6.6207,-0.4867 -9.5833,-1.08156 -2.9626,-0.59486 -11.9115,-1.20205 -19.8865,-1.34932 -7.975,-0.14726 -16.075,-0.57949 -18,-0.9605 -1.925,-0.38101 -7.6924,-0.31515 -12.8164,0.14635 -5.124,0.46151 -9.5014,0.53986 -9.7274,0.17412 -0.4485,-0.72571 -37.175,-0.30905 -44.4562,0.50436 -3.8193,0.42667 -11.1477,0.58197 -26.5,0.5616 -3.9535,-0.005 -24.175,2.88328 -28,3.99965 -1.65,0.48157 -7.05,1.59671 -12,2.47808 -4.95,0.88138 -11.25,2.23492 -14,3.00787 -10.4693,2.94265 -23.1545,5.78502 -27,6.04991 -4.0883,0.28162 -18.597,3.93928 -21.4291,5.40231 -0.864,0.44632 -3.8209,1.13292 -6.5709,1.52577 -2.75,0.39285 -6.35,1.34196 -8,2.10913 -1.65,0.76717 -6.551,2.27677 -10.8911,3.35467 -4.3401,1.0779 -8.3676,2.43631 -8.95,3.01869 -0.5824,0.58238 -1.6493,1.05887 -2.371,1.05887 -0.7216,0 -4.5691,1.54376 -8.55,3.43058 -3.9808,1.88683 -9.2629,3.97218 -11.7379,4.63412 -4.7968,1.28294 -19.4995,6.63269 -22,8.00499 -4.3948,2.41197 -14.0438,6.68991 -17.8648,7.92048 -2.4006,0.77315 -9.8256,4.66084 -16.5,8.63931 -6.6743,3.97848 -15.2852,8.84114 -19.1352,10.80592 -3.85,1.96478 -10.15,6.03116 -14,9.0364 -6.6575,5.19672 -8.6579,6.71361 -19.7302,14.96133 -2.6017,1.93795 -6.4267,4.22912 -8.5,5.09148 -3.9963,1.66213 -7.4889,3.89301 -18.76977,11.98895 -3.85,2.76303 -8.19812,5.63277 -9.66248,6.3772 -1.46437,0.74444 -6.63937,4.44915 -11.5,8.23269 -4.86064,3.78354 -9.8496,7.66608 -11.08659,8.62786 -1.23699,0.96178 -3.71199,2.979 -5.5,4.48272 -1.78801,1.50371 -3.51355,2.74121 -3.83454,2.75 -0.32099,0.009 -2.57099,1.85776 -5,4.10884 -2.42901,2.25108 -5.54139,4.70514 -6.91639,5.45346 -1.375,0.74833 -6.775,5.94653 -12,11.55155 -11.15359,11.96481 -29.2049,29.83355 -30.17919,29.87395 -1.46215,0.0606 -21.24772,22.10286 -28.01644,31.21187 -2.0326,2.73537 -5.70237,7.32231 -8.15505,10.1932 -2.45268,2.87089 -7.69504,9.92304 -11.64969,15.67145 -3.95465,5.74841 -8.19832,11.57665 -9.43039,12.95165 -1.23207,1.375 -3.77668,5.53584 -5.65468,9.24634 -1.87801,3.7104 -3.97706,6.7479 -4.66456,6.75 -0.6875,0 -1.25,0.4537 -1.25,1.0037 0,0.55 0.48013,1 1.06695,1 0.58682,0 -0.53818,1.9588 -2.5,4.353 -1.96182,2.3941 -3.56695,4.7777 -3.56695,5.2969 0,0.5191 -2.025,4.027 -4.5,7.7952 -2.475,3.7683 -4.5,7.4331 -4.5,8.1441 0,0.711 -0.40315,1.5419 -0.89588,1.8464 -0.49274,0.3045 -2.35614,3.3686 -4.14089,6.809 -1.78475,3.4405 -4.70709,8.5492 -6.49409,11.3528 -4.55337,7.1437 -16.3048,31.7849 -20.93715,43.90261 -1.47179,3.85 -3.0814,7.9 -3.57691,9 -1.52506,3.3855 -4.04304,10.7998 -5.06754,14.9216 -0.53611,2.1569 -1.54866,4.4069 -2.25012,5 -0.70145,0.5931 -2.07803,3.1034 -3.05905,5.5784 -0.98103,2.475 -2.18749,5.2814 -2.68103,6.2364 -0.49354,0.955 -0.89734,2.4157 -0.89734,3.246 0,1.9972 -3.75782,13.3503 -5.46723,16.5176 -1.36424,2.5277 -3.12154,9.8285 -2.71936,11.2976 0.25625,0.9361 -3.49045,16.7411 -4.73648,19.9803 -0.47015,1.2221 -1.86607,5.8221 -3.10204,10.2221 -1.23598,4.4 -2.84843,9.8 -3.58322,12 -1.25312,3.7519 -2.99123,12.5716 -3.90475,19.814 -0.62334,4.9417 -4.38901,29.2295 -5.99804,38.686 -0.79545,4.675 -1.41227,10.3 -1.37071,12.5 0.0416,2.2 -0.19302,7.2625 -0.5213,11.25 -2.71929,33.0303 -3.10761,40.6485 -2.4085,47.25 0.37861,3.575 0.70092,14.0387 0.71625,23.2527 0.0176,10.5488 0.44894,17.5394 1.16488,18.8772 0.7379,1.3787 0.78857,2.3431 0.14435,2.7473 -0.6373,0.3998 -0.70185,4.0235 -0.18032,10.1228 0.44677,5.225 1.05925,13.1 1.36107,17.5 0.30182,4.4 0.77538,8.9 1.05235,10 0.27698,1.1 0.72178,4.25 0.98846,7 0.50191,5.1758 1.57801,10.7475 3.57298,18.5 0.6369,2.475 1.33012,5.7844 1.54048,7.3542 0.21036,1.5698 0.64184,3.6713 0.95884,4.6701 1.2114,3.8168 1.62453,6.7171 1.99075,13.9757 0.34144,6.7675 2.78689,16.7445 5.30446,21.6414 1.36401,2.653 3.79325,10.7212 5.67813,18.8586 1.64089,7.0841 4.09102,15.3414 5.63769,19 0.46503,1.1 1.26625,3.8 1.78051,6 2.68901,11.5038 7.11733,24.2779 12.13316,35 4.12349,8.8146 5.45452,12.0804 8.76254,21.5 3.39975,9.6808 4.72964,12.7494 11.26806,26 9.99858,20.2628 20.82137,40.2875 25.05227,46.3525 1.8616,2.6686 3.83472,5.586 4.38472,6.4832 0.55,0.8972 2.2375,3.5198 3.75,5.828 1.5125,2.3081 2.75,4.4845 2.75,4.8363 0,0.8228 5.18221,8.2094 8.18444,11.666 4.01617,4.6239 5.22204,6.2287 8.936,11.8922 1.99125,3.0364 5.47875,7.6679 7.75,10.2921 2.27126,2.6242 4.12956,5.1129 4.12956,5.5304 0,0.4175 1.40003,2.3026 3.11118,4.1892 1.71115,1.8866 4.80113,5.6801 6.86662,8.4301 2.06549,2.75 4.71546,5.8572 5.88882,6.905 1.17336,1.0477 2.13338,2.3514 2.13338,2.897 0,2.4432 23.56922,28.698 25.76252,28.698 0.41209,0 1.34405,1.3437 2.07102,2.9861 0.72697,1.6423 6.57432,7.7999 12.99411,13.6835 6.41979,5.8836 15.04735,14.1266 19.17235,18.3177 4.125,4.1911 11.05455,10.521 15.39899,14.0664 4.34444,3.5455 8.721,7.2229 9.72568,8.172 2.56888,2.4268 12.4407,9.0047 18.37533,12.244 2.75,1.5011 5.71043,3.3594 6.57874,4.1297 0.86831,0.7703 1.86082,1.4006 2.20559,1.4006 1.73198,0 8.17674,5.3571 7.92184,6.5849 -0.16162,0.7783 0.1759,1.4151 0.75,1.4151 0.5741,0 1.0438,-0.4717 1.0438,-1.0481 0,-0.5765 1.6441,0.5485 3.6534,2.5 2.0094,1.9514 4.0665,3.5481 4.5715,3.5481 0.5049,0 1.6083,0.6903 2.4519,1.5339 0.8745,0.8745 2.456,1.3084 3.6786,1.0093 1.1795,-0.2886 1.5546,-0.2572 0.8335,0.07 -1.0263,0.4654 -0.9384,1.0064 0.405,2.4908 2.0283,2.2413 3.8548,2.5078 3.064,0.4472 -0.3632,-0.9465 -0.076,-1.2646 0.8299,-0.9172 0.7623,0.2925 1.1689,1.0975 0.9036,1.7888 -0.2653,0.6914 0.1006,1.7138 0.8131,2.272 1.4186,1.1113 11.8623,6.8998 21.2955,11.8031 8.9115,4.6321 17.303,9.2855 23.6308,13.1043 3.097,1.8689 6.022,3.4106 6.5,3.4259 0.4781,0.015 2.1817,1.3653 3.7859,3 1.6042,1.6347 3.5597,2.9722 4.3456,2.9722 0.786,0 2.6235,0.8158 4.0834,1.8128 1.4599,0.9971 5.5793,3.0896 9.1543,4.6502 3.575,1.5605 6.725,3.1096 7,3.4425 0.275,0.3328 2.3,1.2171 4.5,1.9649 4.2725,1.4524 7.2078,2.65 14.7391,6.0132 2.6065,1.164 5.3065,2.1142 6,2.1115 0.6935,0 3.5109,0.7345 6.2609,1.6383 4.644,1.5262 6.5624,2.295 16.784,6.7262 2.0811,0.9022 4.4578,1.6404 5.2815,1.6404 1.7867,0 13.2475,3.6432 15.5614,4.9467 0.8948,0.5041 3.3698,1.2309 5.5,1.6153 2.1302,0.3843 4.3231,1.0288 4.8731,1.4321 0.55,0.4033 1.675,0.7715 2.5,0.8183 1.7192,0.097 9.5298,2.0941 12.5,3.1956 2.8173,1.0447 18.606,4.4956 34.5,7.5406 13.633,2.6118 21.9242,4.39 29.8114,6.3937 2.3712,0.6025 9.1212,1.5015 15,1.9979 5.8787,0.4964 18.5636,1.5983 28.1886,2.4486 9.625,0.8503 19.975,1.7111 23,1.9129 7.7889,0.5197 43.903,-0.018 47.5,-0.7071 z"
     style="fill:#d38e66;fill-opacity:1" />
</svg>
