<?xml version="1.0" encoding="UTF-8" standalone="no"?>
<!-- Generator: Adobe Illustrator 19.1.0, SVG Export Plug-In . SVG Version: 6.00 Build 0)  -->

<svg
   xmlns:dc="http://purl.org/dc/elements/1.1/"
   xmlns:cc="http://creativecommons.org/ns#"
   xmlns:rdf="http://www.w3.org/1999/02/22-rdf-syntax-ns#"
   xmlns:svg="http://www.w3.org/2000/svg"
   xmlns="http://www.w3.org/2000/svg"
   xmlns:sodipodi="http://sodipodi.sourceforge.net/DTD/sodipodi-0.dtd"
   xmlns:inkscape="http://www.inkscape.org/namespaces/inkscape"
   version="1.1"
   id="Capa_1"
   x="0px"
   y="0px"
   viewBox="0 0 13 9.1408702"
   xml:space="preserve"
   inkscape:version="0.91 r13725"
   sodipodi:docname="right-arrow.svg"
   width="13"
   height="9.1408701"><metadata
     id="metadata4405"><rdf:RDF><cc:Work
         rdf:about=""><dc:format>image/svg+xml</dc:format><dc:type
           rdf:resource="http://purl.org/dc/dcmitype/StillImage" /><dc:title></dc:title></cc:Work></rdf:RDF></metadata><defs
     id="defs4403" /><sodipodi:namedview
     pagecolor="#ffffff"
     bordercolor="#666666"
     borderopacity="1"
     objecttolerance="10"
     gridtolerance="10"
     guidetolerance="10"
     inkscape:pageopacity="0"
     inkscape:pageshadow="2"
     inkscape:window-width="847"
     inkscape:window-height="480"
     id="namedview4401"
     showgrid="false"
     fit-margin-top="0"
     fit-margin-left="0"
     fit-margin-right="0"
     fit-margin-bottom="0"
     inkscape:zoom="7.4944427"
     inkscape:cx="15.745"
     inkscape:cy="11.071"
     inkscape:window-x="389"
     inkscape:window-y="122"
     inkscape:window-maximized="0"
     inkscape:current-layer="Capa_1" /><path
     style="fill:#5b524a;fill-opacity:1"
     d="m 8.7540489,0.137472 c -0.1771038,-0.183296 -0.4718641,-0.183296 -0.6551604,0 -0.1771038,0.177104 -0.1771038,0.471864 0,0.648555 l 3.3220385,3.322039 -10.96227346,0 C 0.2031121,4.108479 0,4.311591 0,4.567132 0,4.822674 0.2031121,5.032391 0.45865354,5.032391 l 10.96227346,0 -3.3220385,3.315846 c -0.1771038,0.183297 -0.1771038,0.47847 0,0.655161 0.1832963,0.183296 0.4784694,0.183296 0.6551604,0 L 12.862528,4.894919 c 0.183296,-0.177104 0.183296,-0.471864 0,-0.648555 L 8.7540489,0.137472 Z"
     id="path4369"
     inkscape:connector-curvature="0" /><g
     id="g4371"
     transform="translate(0,-17.67513)" /><g
     id="g4373"
     transform="translate(0,-17.67513)" /><g
     id="g4375"
     transform="translate(0,-17.67513)" /><g
     id="g4377"
     transform="translate(0,-17.67513)" /><g
     id="g4379"
     transform="translate(0,-17.67513)" /><g
     id="g4381"
     transform="translate(0,-17.67513)" /><g
     id="g4383"
     transform="translate(0,-17.67513)" /><g
     id="g4385"
     transform="translate(0,-17.67513)" /><g
     id="g4387"
     transform="translate(0,-17.67513)" /><g
     id="g4389"
     transform="translate(0,-17.67513)" /><g
     id="g4391"
     transform="translate(0,-17.67513)" /><g
     id="g4393"
     transform="translate(0,-17.67513)" /><g
     id="g4395"
     transform="translate(0,-17.67513)" /><g
     id="g4397"
     transform="translate(0,-17.67513)" /><g
     id="g4399"
     transform="translate(0,-17.67513)" /></svg>