<?xml version="1.0" encoding="UTF-8" standalone="no"?>
<!-- Generator: Adobe Illustrator 19.0.0, SVG Export Plug-In . SVG Version: 6.00 Build 0)  -->

<svg
   xmlns:dc="http://purl.org/dc/elements/1.1/"
   xmlns:cc="http://creativecommons.org/ns#"
   xmlns:rdf="http://www.w3.org/1999/02/22-rdf-syntax-ns#"
   xmlns:svg="http://www.w3.org/2000/svg"
   xmlns="http://www.w3.org/2000/svg"
   xmlns:sodipodi="http://sodipodi.sourceforge.net/DTD/sodipodi-0.dtd"
   xmlns:inkscape="http://www.inkscape.org/namespaces/inkscape"
   version="1.1"
   id="Layer_1"
   x="0px"
   y="0px"
   viewBox="0 0 600 700"
   xml:space="preserve"
   sodipodi:docname="united-states2.svg"
   width="600"
   height="700"
   inkscape:version="0.92.2 5c3e80d, 2017-08-06"><metadata
     id="metadata3023"><rdf:RDF><cc:Work
         rdf:about=""><dc:format>image/svg+xml</dc:format><dc:type
           rdf:resource="http://purl.org/dc/dcmitype/StillImage" /><dc:title></dc:title></cc:Work></rdf:RDF></metadata><defs
     id="defs3021" /><sodipodi:namedview
     pagecolor="#ffffff"
     bordercolor="#666666"
     borderopacity="1"
     objecttolerance="10"
     gridtolerance="10"
     guidetolerance="10"
     inkscape:pageopacity="0"
     inkscape:pageshadow="2"
     inkscape:window-width="1108"
     inkscape:window-height="703"
     id="namedview3019"
     showgrid="false"
     inkscape:measure-start="271.898,625.966"
     inkscape:measure-end="271.932,617.017"
     showguides="false"
     inkscape:zoom="0.35355339"
     inkscape:cx="45.181451"
     inkscape:cy="432.4749"
     inkscape:window-x="271"
     inkscape:window-y="53"
     inkscape:window-maximized="0"
     inkscape:current-layer="Layer_1" /><g
     id="g2988"
     transform="translate(0,188)" /><g
     id="g2990"
     transform="translate(0,188)" /><g
     id="g2992"
     transform="translate(0,188)" /><g
     id="g2994"
     transform="translate(0,188)" /><g
     id="g2996"
     transform="translate(0,188)" /><g
     id="g2998"
     transform="translate(0,188)" /><g
     id="g3000"
     transform="translate(0,188)" /><g
     id="g3002"
     transform="translate(0,188)" /><g
     id="g3004"
     transform="translate(0,188)" /><g
     id="g3006"
     transform="translate(0,188)" /><g
     id="g3008"
     transform="translate(0,188)" /><g
     id="g3010"
     transform="translate(0,188)" /><g
     id="g3012"
     transform="translate(0,188)" /><g
     id="g3014"
     transform="translate(0,188)" /><g
     id="g3016"
     transform="translate(0,188)" /><path
     style="fill:#fff7ee"
     d="m 556,510.22386 c 0,5.929 -4.851,10.779 -10.778,10.779 H 54.779 C 48.85,521.00186 44,516.15186 44,510.22386 v -316.432 c 0,-5.928 4.85,-10.779 10.779,-10.779 h 490.443 c 5.928,0 10.778,4.851 10.778,10.779 z"
     id="path2858"
     inkscape:connector-curvature="0" /><g
     id="g2866"
     transform="translate(44,96.00786)"><path
       style="fill:#e02424"
       d="m 505.222,87.006 h -295.85 v 32.508 H 512 v -25.73 c 0,-5.928 -0.852,-6.778 -6.778,-6.778 z"
       id="path2860"
       inkscape:connector-curvature="0"
       sodipodi:nodetypes="scccss" /><path
       style="fill:#e02424"
       d="m 209.371,209.198 v 20.283 c 0,6.724 -5.467,12.225 -12.15,12.225 H 512 V 209.199 H 209.371 Z"
       id="path2862"
       inkscape:connector-curvature="0" /><rect
       y="270.29401"
       style="fill:#e02424"
       width="512"
       height="32.507"
       id="rect2864"
       x="0" /></g><g
     id="g2876"
     transform="translate(44,96.00786)"><rect
       y="331.38901"
       style="fill:#e02424"
       width="512"
       height="32.507"
       id="rect2870"
       x="0" /><path
       style="fill:#e02424"
       d="M 512,418.216 V 392.487 H 0 v 25.729 c 0,5.929 0.85,6.779 6.779,6.779 h 498.443 c 5.926,-10e-4 6.778,-0.851 6.778,-6.779 z"
       id="path2872"
       inkscape:connector-curvature="0"
       sodipodi:nodetypes="sccsscs" /><rect
       x="209.366"
       y="148.104"
       style="fill:#e02424"
       width="302.62299"
       height="32.507"
       id="rect2874" /></g><path
     style="fill:#0853a4"
     d="m 50.779,183.01386 c -5.929,0 -6.779,0.85 -6.779,6.778 v 147.921 h 212.716 c 6.683,0 8.15,-1.501 8.15,-8.225 v -146.474 z"
     id="path2878"
     inkscape:connector-curvature="0"
     sodipodi:nodetypes="sscsscs" /><path
     style="fill:#fff7ee;fill-opacity:1;stroke-width:0.99984896"
     inkscape:connector-curvature="0"
     d="m 95.47675,269.16638 21.21,21.21 -21.21,21.21 -21.21,-21.21 z"
     id="path5807" /><path
     style="fill:#fff7ee;fill-opacity:1;stroke-width:0.99984896"
     inkscape:connector-curvature="0"
     d="m 95.46975,209.17238 21.21,21.21 -21.21,21.21 -21.21,-21.21 z"
     id="path5809" /><path
     style="fill:#fff7ee;fill-opacity:1;stroke-width:0.99984896"
     inkscape:connector-curvature="0"
     d="m 155.46975,269.15938 21.21,21.21 -21.21,21.21 -21.21,-21.21 z"
     id="path5811" /><path
     style="fill:#fff7ee;fill-opacity:1;stroke-width:0.99984896"
     inkscape:connector-curvature="0"
     d="m 155.46375,209.16638 21.21,21.21 -21.21,21.21 -21.21,-21.21 z"
     id="path5813" /><path
     style="fill:#fff7ee;fill-opacity:1;stroke-width:0.99984896"
     inkscape:connector-curvature="0"
     d="m 215.46375,269.15338 21.21,21.21 -21.21,21.21 -21.21,-21.21 z"
     id="path5815" /><path
     style="fill:#fff7ee;fill-opacity:1;stroke-width:0.99984896"
     inkscape:connector-curvature="0"
     d="m 215.45775,209.15938 21.21,21.21 -21.21,21.21 -21.21,-21.21 z"
     id="path5817" /><polygon
     transform="matrix(1.592656,0,0,1.592656,-192.32874,552.72443)"
     points="175.106,49 163,36.894 163,0 148,0 148,43.106 168.894,64 183.106,64 203,43.106 203,0 188,0 188,36.894 176.894,49 "
     id="polygon6468"
     style="fill:#ffb000;fill-opacity:1" /><path
     inkscape:connector-curvature="0"
     d="m 220.16919,554.31709 h -74.85484 v 100.33733 h 74.85484 z m -23.88985,76.44749 h -27.07515 v -52.55765 h 27.07515 z"
     id="path6470"
     style="fill:#ffb000;fill-opacity:1;stroke-width:1.59265602" /><polygon
     transform="matrix(1.592656,0,0,1.592656,-192.32874,552.72443)"
     points="364,49 339,49 339,40 364,40 364,25 339,25 339,16 364,16 364,1 324,1 324,64 364,64 "
     id="polygon6472"
     style="fill:#ffb000;fill-opacity:1" /><polygon
     transform="matrix(1.592656,0,0,1.592656,-192.32874,552.72443)"
     points="268,1 268,16 284,16 284,64 299,64 299,16 316,16 316,1 "
     id="polygon6474"
     style="fill:#ffb000;fill-opacity:1" /><path
     d="M 44.2444,54.85508 V 154.238 H 67.27472 C 67.167405,137.1856 67.165478,138.5448 67.165478,116.37783 H 105.36727 V 92.71524 H 67.165478 V 78.51768 h 38.201792 v -23.6626 z"
     id="polygon6472-5"
     inkscape:connector-curvature="0"
     sodipodi:nodetypes="ccccccccccc"
     style="fill:#ffb000;fill-opacity:1;stroke-width:1.55259216" /><path
     inkscape:connector-curvature="0"
     d="m 190.53765,54.12534 h -71.81936 v 99.38292 h 71.81936 z m -22.92105,75.7203 H 141.63937 V 77.78795 h 25.97723 z"
     id="path6470-7"
     style="fill:#ffb000;fill-opacity:1;stroke-width:1.55259216" /><path
     d="m 334.58772,51.3934 v 99.38291 H 406.4071 V 51.3934 h -22.89421 c 0.004,25.17683 -0.0282,53.10757 -0.0268,75.72032 h -25.97724 c -0.0551,-24.85161 0.0559,-52.31881 0.0508,-75.72032 z"
     id="path6470-9"
     inkscape:connector-curvature="0"
     sodipodi:nodetypes="ccccccccc"
     style="fill:#ffb000;fill-opacity:1;stroke-width:1.55259216" /><path
     d="m 492.73798,553.18828 v 62.10737 h 24.19469 v 0.006 h 15.64348 v 14.3339 h -15.64348 v 0.006 h -24.19469 v 23.88362 h 63.70624 v -23.88984 h -0.003 v -14.33317 h 0.003 v -23.88984 h -39.8164 v -14.3339 h 39.8164 v -23.88984 z"
     id="polygon6472-8"
     inkscape:connector-curvature="0"
     style="fill:#ffb000;fill-opacity:1;stroke-width:1.59265602" /><path
     d="m 455.97951,52.47471 v 61.51661 h 23.21357 v 0.006 h 15.00911 v 14.1975 h -15.00911 v 0.006 h -23.21357 v 23.65642 h 61.12287 v -23.66263 h -0.003 v -14.19757 h 0.003 V 90.33489 H 478.90059 V 76.13732 h 38.20179 v -23.6626 z"
     id="polygon6472-8-3"
     inkscape:connector-curvature="0"
     style="fill:#ffb000;fill-opacity:1;stroke-width:1.55259216" /><path
     d="m 203.49755,53.65799 v 99.3829 h 22.76588 c -0.30984,-6.4185 -0.38,-27.88753 0.14029,-37.48734 l 22.90616,22.67048 16.67747,17.21702 16.00297,-16.9428 -22.58983,-23.31752 h 17.4445 V 91.90021 91.51815 77.32058 76.71671 53.65799 Z m 22.92107,23.66259 h 27.5053 v 14.19757 h -27.5053 z m 41.38925,137.47414 v 0.72714 h 0.68646 z"
     id="polygon6472-2"
     inkscape:connector-curvature="0"
     style="fill:#ffb000;fill-opacity:1;stroke-width:1.55259216" /><rect
     style="opacity:0.98999999;fill:#ffb000;fill-opacity:1;stroke:none;stroke-width:1.14865458;stroke-linecap:round;stroke-miterlimit:4;stroke-dasharray:none;stroke-dashoffset:0;stroke-opacity:1"
     id="rect7185"
     width="25.977221"
     height="26.817612"
     x="529.32697"
     y="125.04033" /><rect
     style="opacity:0.98999999;fill:#ffb000;fill-opacity:1;stroke:none;stroke-width:1.14865458;stroke-linecap:round;stroke-miterlimit:4;stroke-dasharray:none;stroke-dashoffset:0;stroke-opacity:1"
     id="rect7185-4"
     width="25.977221"
     height="26.817612"
     x="417.10364"
     y="124.35309" /><path
     inkscape:connector-curvature="0"
     d="m 401.95659,553.18828 v 100.33733 h 23.72809 c -0.32293,-6.48016 -0.39607,-28.15536 0.1462,-37.84736 l 23.8743,22.88821 17.38234,17.38234 16.67935,-17.10549 -23.54459,-23.54145 h 18.18179 v -23.50411 -0.38573 -14.3339 -0.60969 -23.28015 z m 23.88984,23.88984 h 28.6678 v 14.3339 h -28.6678 z m 43.13858,138.79436 v 0.73412 h 0.71545 z"
     id="polygon6472-2-8"
     style="fill:#ffb000;fill-opacity:1;stroke-width:1.59265602" /></svg>