<?xml version="1.0" encoding="UTF-8" standalone="no"?>
<svg
   xmlns:dc="http://purl.org/dc/elements/1.1/"
   xmlns:cc="http://creativecommons.org/ns#"
   xmlns:rdf="http://www.w3.org/1999/02/22-rdf-syntax-ns#"
   xmlns:svg="http://www.w3.org/2000/svg"
   xmlns="http://www.w3.org/2000/svg"
   viewBox="0 0 369.09656 377.35745"
   height="377.35745"
   width="369.09656"
   xml:space="preserve"
   version="1.1"
   id="svg5952"><metadata
     id="metadata5958"><rdf:RDF><cc:Work
         rdf:about=""><dc:format>image/svg+xml</dc:format><dc:type
           rdf:resource="http://purl.org/dc/dcmitype/StillImage" /><dc:title></dc:title></cc:Work></rdf:RDF></metadata><defs
     id="defs5956" /><g
     transform="matrix(1.25,0,0,-1.25,-516.70354,1119.2423)"
     id="g5960"><g
       id="g5962" /><g
       id="g5964"><g
         transform="scale(1146,1929)"
         id="g5966" /></g><path
       id="path6051"
       d="m 647.12751,594.31473 c -0.53455,0.52136 -0.97676,1.33669 -0.98269,1.81183 -0.0117,0.93818 -5.17218,2.75193 -6.114,2.74018 -0.31741,-0.004 -1.36823,0.79298 -2.33516,1.77098 -0.96692,0.97801 -1.59446,1.46731 -3.35007,3.0429 -4.04265,3.62808 -7.65326,7.73905 -7.6656,8.7279 -0.005,0.41946 -1.72874,1.49004 -3.83,2.37906 -2.14751,0.90858 -5.88472,3.66778 -8.53448,6.30103 -2.59269,2.57654 -6.32527,5.35162 -8.29462,6.16684 -1.96935,0.8152 -3.79834,2.02903 -4.06443,2.69739 -0.2661,0.66837 -1.10746,1.20742 -1.86969,1.1979 -0.76225,-0.01 -1.80717,0.87751 -2.32206,1.97117 -0.51488,1.09365 -1.47306,1.98176 -2.12925,1.97357 -0.65622,-0.008 -2.00501,1.05505 -2.99733,2.36276 -0.99233,1.30772 -2.21166,2.37258 -2.70963,2.36636 -1.2493,-0.0156 -6.04724,4.25566 -6.06147,5.39611 -0.006,0.51071 -0.34822,0.92437 -0.75966,0.91923 -0.41143,-0.005 -1.77916,1.40675 -3.03941,3.13754 -1.63225,2.2417 -3.42554,3.54257 -6.23444,4.52252 -2.65928,0.92774 -4.89292,2.4873 -6.86033,4.78996 -1.60447,1.87788 -4.14058,4.15296 -5.63577,5.05576 -2.48476,1.50026 -2.78092,1.52663 -3.44385,0.30656 -0.39892,-0.73419 -1.20886,-1.34092 -1.79987,-1.3483 -0.59103,-0.007 -1.27504,-0.55596 -1.52005,-1.21907 -0.245,-0.66311 -1.04308,-1.21311 -1.7735,-1.22223 -1.3322,-0.0166 -5.79291,-3.55929 -10.22208,-8.11828 -1.30367,-1.34187 -2.82773,-2.44546 -3.38681,-2.45244 -0.55907,-0.007 -1.4153,-0.91774 -1.90272,-2.02391 -0.48743,-1.10617 -1.16987,-2.01476 -1.51655,-2.01909 -0.34667,-0.004 -1.59012,-0.91993 -2.76322,-2.03466 -1.17309,-1.11473 -2.54995,-2.03199 -3.05968,-2.03835 -0.50972,-0.006 -2.28653,-1.28865 -3.94847,-2.84952 -1.66194,-1.56087 -3.29275,-2.84133 -3.62403,-2.84546 -0.3313,-0.004 -1.01034,-1.0284 -1.50901,-2.27613 -0.85623,-2.14234 -11.84437,-11.49165 -13.5308,-11.5127 -0.43212,-0.005 -0.77748,-0.66479 -0.76749,-1.46533 0.0108,-0.86144 -1.01252,-1.93549 -2.50707,-2.6315 -1.38889,-0.64679 -2.90367,-1.87506 -3.36619,-2.72948 -1.2665,-2.33962 -4.62537,-5.26144 -6.10248,-5.30845 -0.71916,-0.0229 -1.88599,-0.94889 -2.59295,-2.05781 -0.70696,-1.10891 -1.62106,-2.02039 -2.03135,-2.02551 -0.41029,-0.005 -2.10017,-0.96233 -3.75529,-2.12713 -1.65514,-1.16479 -3.81533,-2.44295 -4.80044,-2.84035 -0.98512,-0.3974 -1.78663,-1.08218 -1.78114,-1.52173 0.0209,-1.67557 -4.61616,-3.13093 -11.12106,-3.49036 l -6.75962,-0.37351 -0.76288,3.56753 c -0.51431,2.40516 -0.48126,4.03126 0.10146,4.9908 0.47539,0.78281 0.84715,2.80017 0.82614,4.48303 -0.023,1.84538 0.52794,3.68287 1.38824,4.62973 0.81073,0.89229 1.46771,2.95132 1.52206,4.77022 0.26586,8.89707 0.38666,9.32727 3.35896,11.96215 2.6037,2.30815 2.86144,2.90547 2.64671,6.13377 -0.13085,1.96713 0.0256,4.11993 0.34769,4.78401 0.32207,0.66407 1.00466,2.38273 1.51685,3.81923 0.51219,1.43651 1.28952,2.6163 1.7274,2.62177 0.43787,0.005 0.59624,0.98913 0.35194,2.18592 -0.25491,1.24876 -1.47064,3.38432 -0.69818,5.01165 0.74031,1.55962 1.19062,3.48929 1.0007,4.28817 -0.22768,0.95771 0.21252,1.60584 1.29228,1.90266 1.96691,0.54068 2.68492,2.59058 2.53371,7.23365 -0.10832,3.32582 1.75808,7.8644 4.36722,10.61993 0.78788,0.8321 0.90713,2.42294 0.46097,6.14914 -0.45992,3.84122 1.29166,5.63389 2.24278,7.60158 0.68456,1.41622 1.04037,3.34785 0.7907,4.29252 -0.28676,1.08496 -1.31542,1.23566 -0.0488,3.15317 1.10282,1.66956 1.99238,4.05665 1.97679,5.30464 -0.0156,1.24797 0.79683,4.57238 1.80536,7.38758 2.14483,5.98707 1.62722,6.33652 0.44013,6.3217 -0.44096,-0.005 0.58027,1.22724 0.31386,0.78388 -0.74839,-1.24543 -2.78798,-0.97999 -2.80478,0.36502 -0.008,0.65994 -0.59297,1.19269 -1.2994,1.18387 -2.43596,-0.0304 -8.3993,5.05177 -8.42685,7.25869 -0.0235,1.88327 -2.93608,4.65398 -4.3151,4.10495 -0.61972,-0.24672 -0.0996,2.06314 -0.88956,3.23656 -1.47596,2.19239 -6.16739,3.54548 -11.20417,7.67376 -1.66719,1.36648 -3.03849,3.06427 -3.04734,3.77288 -0.0203,1.6277 -3.03861,4.35824 -5.66131,5.12159 -1.1024,0.32086 -2.37143,1.03608 -2.82006,1.58938 -0.44863,0.55329 -1.53238,1.12142 -2.40832,1.26251 -0.87594,0.14108 -2.33176,1.39951 -3.23516,2.7965 -1.05679,1.63421 -2.3006,2.54276 -3.48788,2.54776 -1.69277,0.007 -6.60854,2.65524 -6.62691,4.12682 -0.004,0.34192 -0.7277,0.61267 -1.60764,0.60169 -0.87993,-0.011 -1.60437,0.34 -1.60986,0.77996 -0.005,0.43997 -2.06005,7.20233 -2.61013,7.20525 -0.55008,0.003 -1.90886,0.698 -3.01952,1.54463 -1.11065,0.84664 -2.66702,1.53925 -3.4586,1.53915 -0.88417,-4e-5 -1.97862,1.16254 -2.83786,3.01469 -0.76924,1.65818 -2.58242,4.24575 -4.02928,5.75014 -3.1941,3.32116 -3.24751,4.05711 -0.55711,7.67724 1.85748,2.49938 2.41552,2.7816 4.70826,2.38104 1.52722,-0.26681 2.81756,-0.094 3.12555,0.41848 0.29177,0.48554 2.53394,0.84448 5.05268,0.80886 2.49048,-0.0352 5.43393,0.18922 6.54101,0.49877 1.50513,0.42083 2.53902,0.0872 4.09875,-1.32247 1.7053,-1.5413 2.8734,-0.25652 6.40232,-0.12769 2.37406,0.0866 5.09669,0.43012 6.05032,0.76322 1.0444,0.36483 2.95212,1.71436 4.79764,0.9702 2.01434,-0.81225 4.09276,-1.04834 6.0678,-0.68925 1.6522,0.3004 3.0078,0.24244 3.01243,-0.12879 0.005,-0.37123 1.14747,-1.16226 2.53964,-1.75781 1.94617,-0.83257 2.86867,2.33381 3.99127,3.05452 1.90771,1.22476 4.10902,-0.3809 5.37714,-1.6138 0.81291,-0.79033 1.28194,-0.62971 2.35014,0.8048 1.26625,1.70049 1.62159,1.75532 6.94398,1.07139 3.08519,-0.39645 6.78532,-1.25573 8.22253,-1.90952 2.65518,-1.20783 6.16572,-0.82172 7.05232,0.6537 0.23719,0.39472 1.29495,0.51234 2.35057,0.26137 1.08367,-0.25766 3.0087,0.10416 4.42151,0.8312 2.25381,1.15972 1.13901,4.36878 3.2877,3.2914 3.32741,-1.66836 7.27845,-1.10715 8.24421,1.17103 0.42195,0.99534 1.04179,1.81314 1.37742,1.81733 0.89737,0.0112 2.31652,-0.96975 1.39373,-0.66904 -0.5148,0.16774 -0.53636,1.78636 -0.0623,4.66625 0.39934,2.42518 0.85747,5.58235 1.01808,7.01596 0.16061,1.43361 1.02956,4.06574 1.93102,5.84919 0.90145,1.78346 1.62551,4.32345 1.60902,5.64443 -0.0165,1.32096 0.84777,4.18893 1.92059,6.37324 1.21642,2.47671 3.53375,5.31856 3.50588,7.55057 -0.0246,1.96851 0.27104,3.77972 0.65692,4.02491 1.08163,0.68725 3.99975,7.4951 3.97748,9.27907 -0.0109,0.87371 1.02075,3.93756 2.29258,6.80857 1.27183,2.871 2.53019,6.13598 2.79636,7.2555 0.26617,1.11953 0.8049,2.03951 1.19717,2.04441 0.39227,0.005 0.69969,1.09274 0.68315,2.41743 -0.0165,1.3247 0.64179,3.94312 1.46294,5.81872 0.82115,1.8756 1.73802,4.31331 2.03749,5.41714 0.29946,1.10382 1.20526,2.97085 2.0129,4.14895 0.80762,1.17809 1.463,2.57542 1.45639,3.10514 -0.008,0.61767 0.67994,0.79864 1.917,0.50453 1.61287,-0.38347 2.06099,-0.0643 2.73428,1.94756 0.87891,2.6263 2.25005,3.15252 3.04058,1.16692 0.40365,-1.01388 0.62983,-1.05025 1.15452,-0.1856 0.89915,1.48173 3.17095,0.0476 4.67844,-2.95377 0.63725,-1.26868 1.50892,-2.99168 1.93704,-3.8289 0.42812,-0.83721 0.79417,-3.86993 0.81343,-6.73936 0.0219,-3.26727 0.46906,-5.82062 1.1963,-6.8318 0.63869,-0.88805 1.17059,-2.36248 1.182,-3.2765 0.0114,-0.91403 0.34513,-1.99985 0.74161,-2.41293 0.39647,-0.41308 1.32931,-2.78968 2.07297,-5.28133 0.74366,-2.49165 2.26225,-5.58489 3.37464,-6.87389 2.2905,-2.65412 2.62041,-4.73765 0.86108,-5.43809 -1.96186,-0.78107 -1.36282,-2.70653 0.83351,-2.6791 1.77595,0.0222 2.0051,-0.31086 2.04679,-2.97468 0.0622,-3.97021 3.65376,-15.88692 5.26054,-17.45409 0.30529,-0.29775 0.56578,-1.39919 0.57887,-2.44763 0.0131,-1.04842 0.56561,-2.92269 1.22783,-4.16502 0.66222,-1.24231 1.32453,-3.82638 1.47181,-5.74235 0.14727,-1.91596 0.6332,-3.91654 1.07984,-4.44574 0.44664,-0.5292 1.21434,-1.437 1.70599,-2.01735 1.00852,-1.19046 2.33732,-6.34489 2.41184,-9.35555 0.0573,-2.31506 1.94828,-2.63772 5.4473,-0.9295 2.2908,1.11838 5.7565,1.00106 16.19731,-0.54827 3.08595,-0.45793 5.93688,-1.1137 6.3354,-1.45727 0.39852,-0.34356 2.01385,0.0407 3.58962,0.85386 4.08109,2.10605 8.8884,2.78534 10.42901,1.47364 0.7213,-0.61414 3.94359,-1.19429 7.61785,-1.37155 3.72191,-0.17955 6.49848,-0.68357 6.68234,-1.21301 0.173,-0.49818 0.83581,-0.89929 1.4729,-0.89134 0.63709,0.008 1.37229,-0.52291 1.63377,-1.17969 0.69357,-1.74205 3.50804,-1.47869 3.4855,0.32615 -0.0158,1.26853 0.8753,1.57307 6.17414,2.10998 12.8949,1.3066 13.70419,1.3167 14.66915,0.1831 0.51672,-0.60701 2.13406,-1.08875 3.59411,-1.07052 1.46003,0.0182 2.86729,-0.30156 3.12723,-0.71065 0.25995,-0.40908 1.85016,-0.70758 3.5338,-0.6633 1.68365,0.0442 3.78431,-0.13915 4.66816,-0.40757 0.88384,-0.26843 2.64465,0.0696 3.91289,0.75136 4.30533,2.31404 8.31034,0.92331 8.3581,-2.90233 0.0141,-1.12765 -0.95852,-3.50209 0.50734,-4.4625 l 2.08175,-2.41223 -2.42136,-2.4268 c -1.54145,-1.54492 -4.01628,-1.63608 -4.00738,-3.05378 -3.29692,-4.21218 -4.63419,-6.02109 -9.33893,-8.41689 -2.21881,-1.12989 -2.71309,0.54692 -3.36505,-1.2345 -0.50028,-1.36696 -1.33261,-1.97156 -2.73839,-1.98911 -1.62099,-0.0202 -0.41471,-0.41994 -0.39467,-2.02506 0.0154,-1.23586 -0.42909,-2.00551 -1.16359,-2.01468 -0.65371,-0.008 -2.12346,-1.46662 -3.2661,-3.24103 -1.3713,-2.12945 -2.67221,-3.23361 -3.82683,-3.24802 -0.96211,-0.012 -0.92053,-0.93154 -1.86316,-2.0434 -0.97597,-1.15117 -2.57718,-2.03233 -3.71901,-2.04658 -1.10282,-0.0138 -2.00064,-0.38501 -1.99515,-0.82498 0.005,-0.43996 -0.46723,-0.80589 -1.05048,-0.81317 -1.18372,-0.0148 -4.03536,-2.99401 -4.66291,-4.87155 -0.45855,-1.37192 -4.25848,-3.4442 -9.5518,-5.20905 -0.76687,-0.25568 -1.38508,-1.20383 -1.3738,-2.107 0.0131,-1.04764 -0.77196,-1.96639 -2.16849,-2.53783 -1.20395,-0.49264 -2.72491,-1.22626 -3.37991,-1.63027 -0.65501,-0.40401 -1.72818,-0.95753 -2.38483,-1.23006 -5.09279,-2.11364 -6.23305,-2.95842 -6.71196,-4.97273 -0.71043,-2.98808 -9.57224,-11.56121 -11.96541,-11.59109 -1.52301,-0.019 -3.47272,-2.00331 -3.45384,-3.5151 0.003,-0.20728 1.27044,-1.85399 2.81747,-3.65936 1.54702,-1.80537 1.4619,-4.52471 1.76639,-6.04297 0.3045,-1.51826 -0.72474,-4.55376 -0.33164,-4.78997 0.3931,-0.23622 0.72739,-1.44409 0.74287,-2.68415 0.0155,-1.24006 0.57019,-2.69319 1.23268,-3.22919 0.74951,-0.60639 1.03679,-1.68005 0.76048,-2.84219 -0.32016,-1.34661 0.26023,-2.72197 2.0804,-4.92989 2.05074,-2.48762 2.55183,-3.84455 2.67046,-7.23134 0.0803,-2.29301 0.46119,-4.35851 0.84641,-4.58999 0.38521,-0.23148 0.71496,-1.58754 0.73276,-3.01346 0.0368,-2.94956 1.30094,-4.58345 3.01743,-3.90006 0.91653,0.36489 1.12254,-0.15031 0.9574,-2.3943 -0.1222,-1.66061 0.28978,-3.46361 0.98275,-4.30092 2.13864,-2.58405 1.6372,-4.95573 1.66328,-7.04513 0.0141,-1.12773 0.5976,-3.12347 1.2967,-4.435 0.69909,-1.3115 1.05671,-3.0904 0.79471,-3.9531 -0.28337,-0.93309 0.0383,-2.07047 0.7939,-2.80747 0.69864,-0.68141 1.28061,-2.06906 1.29328,-3.08368 0.0127,-1.01462 0.51974,-2.24662 1.12683,-2.73779 0.60707,-0.49116 1.59783,-3.13308 2.2017,-5.87092 0.60387,-2.73785 1.58906,-5.68194 2.1893,-6.54241 0.60026,-0.86047 1.10369,-2.55165 1.11875,-3.75818 0.0174,-1.39638 -2.5696,-2.50677 -1.51346,-3.05515 0.94342,-0.48986 3.13398,-1.44373 2.96897,-2.21123 -0.37453,-1.74225 -0.72116,-7.95948 2.50267,-9.84116 l 2.03295,-2.12047 -1.81435,-3.87727 c -1.85429,-3.96262 -4.26489,-0.23392 -6.04948,-0.30372 -0.54978,-0.0215 2.20683,-0.55334 2.21468,-1.18186 0.0356,-2.84799 -4.19253,-4.7385 -6.20585,-2.77483 z m -63.35804,58.7196 c -0.0208,1.66261 -1.36962,1.3286 -1.81068,-0.44838 -0.26903,-1.08388 -0.054,-1.41385 0.72055,-1.1055 0.60723,0.24176 1.09778,0.941 1.09013,1.55388 z m 34.13226,44.99931 c -0.30056,0.51587 -1.08305,1.5479 -1.73885,2.29339 -0.65578,0.74548 2.21105,3.50592 2.45965,4.17875 0.40103,1.08538 -2.35852,3.43725 -3.11863,2.65792 -0.14934,-0.15312 -1.49696,-1.93286 -1.03928,-3.95496 0.57562,-2.54281 -0.22282,-5.51769 0.99937,-6.05849 2.04325,-0.9041 3.22885,-0.47446 2.43774,0.88339 z m -54.44374,11.86596 c 0.26642,0.44336 -0.25678,0.79686 -1.16268,0.78555 -0.9059,-0.0113 -1.64259,-0.38054 -1.6371,-0.8205 0.005,-0.43997 0.5287,-0.79346 1.16268,-0.78555 0.63398,0.008 1.37068,0.37714 1.6371,0.8205 z m -42.82662,1.8655 c -0.005,0.43996 -0.36996,0.79544 -0.80993,0.78994 -0.43996,-0.005 -0.79544,-0.36996 -0.78995,-0.80991 0.005,-0.43997 0.36996,-0.79545 0.80993,-0.78995 0.43996,0.005 0.79544,0.36996 0.78995,0.80992 z m 94.7737,34.73864 c -0.0107,0.85397 -0.38214,1.77065 -0.8255,2.03707 -0.44336,0.26642 -0.81483,1.18311 -0.82549,2.03707 -0.0243,1.94492 -0.46745,1.94186 -2.51851,-0.0173 -1.69721,-1.62124 -1.38829,-3.27886 0.60642,-3.25396 0.63398,0.008 1.15943,-0.52556 1.16767,-1.18551 0.008,-0.65995 0.55493,-1.19317 1.21488,-1.18493 0.65995,0.008 1.19119,0.71368 1.18052,1.56764 z m -141.69488,0.30606 c -0.008,0.63398 -0.55435,1.14595 -1.2143,1.13771 -1.20489,-0.015 -1.62334,-4.90919 -0.65534,-5.85331 0.75585,-0.73721 1.88633,3.37919 1.86964,4.7156 z m 34.89721,30.88209 c -0.003,0.25945 -0.82295,1.11663 -1.82157,1.90482 -1.98569,1.56728 -3.61542,0.45123 -2.04134,-1.39793 0.86063,-1.01106 3.87414,-1.40648 3.86291,-0.50689 z m 47.51147,3.2378 c 0.23851,0.3969 -0.13641,0.93226 -0.83314,1.18969 -2.00662,0.7414 -2.73692,0.54003 -2.72081,-0.75021 0.0161,-1.28786 2.83469,-1.63642 3.55395,-0.43948 z m 5.14412,0.64809 c 1.37146,0.29214 2.48907,0.89114 2.48358,1.33111 -0.0119,0.95532 -4.78386,0.0778 -5.92187,-1.08902 -0.92045,-0.94372 -0.12004,-1.00007 3.43829,-0.24209 z m 47.81523,2.77666 c 1.00072,1.02601 -0.92376,2.10911 -3.68624,2.07462 -3.44267,-0.043 -4.1646,-0.50118 -3.48382,-2.21113 0.35871,-0.90096 1.27253,-1.08873 3.62052,-0.74391 1.72739,0.25368 3.32468,0.64987 3.54954,0.88042 z m -10.15688,0.79374 c -0.008,0.65995 -0.3537,1.19568 -0.7677,1.19051 -1.0087,-0.0126 -1.71555,-1.27078 -1.06848,-1.9019 0.91214,-0.88963 1.85163,-0.52563 1.83618,0.71139 z m -87.0751,11.85978 c 0.4853,0.49758 -2.82001,3.45887 -3.84638,3.44605 -0.62746,-0.008 2.22666,-3.91221 2.87959,-3.93922 0.25682,-0.0106 0.69188,0.21132 0.96679,0.49317 z m -89.45595,-7.26286 c 0.26641,0.44336 0.10318,0.80135 -0.36275,0.79553 -0.46594,-0.006 -0.84265,-0.37054 -0.83716,-0.81051 0.005,-0.43997 0.16872,-0.79796 0.36274,-0.79553 0.19402,0.002 0.57074,0.36715 0.83717,0.81051 z m 151.52825,11.4922 c -0.011,0.87993 -0.37995,1.59538 -0.81991,1.58989 -0.43997,-0.005 -0.79095,-0.72993 -0.77997,-1.60986 0.011,-0.87993 0.37995,-1.59538 0.81992,-1.58989 0.43996,0.005 0.79094,0.72993 0.77996,1.60986 z m 11.92915,5.74937 c -0.011,0.87993 -0.37994,1.59538 -0.81991,1.58989 -0.43996,-0.005 -0.79095,-0.72993 -0.77996,-1.60986 0.011,-0.87993 0.37994,-1.59538 0.81991,-1.58989 0.43997,0.005 0.79095,0.72993 0.77996,1.60986 z m -8.47276,3.03919 c 0.24802,0.41272 0.0823,0.97195 -0.36833,1.24271 -0.45059,0.27077 -0.81225,-0.0688 -0.80369,-0.75481 0.0175,-1.40512 0.50014,-1.60601 1.17202,-0.4879 z"
       style="fill:#f2ef9f;fill-opacity:1" /></g></svg>